<svg xmlns="http://www.w3.org/2000/svg" width="472" height="512" fill="none" viewBox="20 0 472 512">
  <g fill="#eed979" clip-path="url(#a)">
    <path
      d="M252.441.621063C258.564 3.31682 263.383 8.52029 266.18 14.539c1.185 4.9989 1.114 9.8414 1.07 14.961-.004 1.0677-.008 2.1355-.012 3.2356-.076 6.991-.553 13.6712-1.8 20.5573-.424 2.6224-.516 5.0563-.438 7.7071.897-.5685 1.794-1.137 2.719-1.7227C282.557 50.0336 299.927 39.8537 318 42c6.776 1.7433 11.162 5.2178 15 11 3.958 6.7287 4.318 13.673 2.461 21.1782C326.677 104.435 308.644 130.52 287 153c-.551.573-1.102 1.146-1.669 1.736C277.944 162.37 270.393 169.467 262 176c-1.066.855-2.131 1.712-3.195 2.57-12.968 10.406-26.49 19.966-40.805 28.43.087 2.105.195 4.209.313 6.312.087 1.758.087 1.758.175 3.551.261 3.087.261 3.087 1.867 4.992 3.735 2.599 7.251 2.595 11.645 2.145 3.635-1.556 7.009-3.539 10.438-5.5C275.159 200.687 315.464 193.975 352 203c.721.166 1.441.333 2.184.504C381.401 209.862 405.795 223.843 426 243c.958.893 1.916 1.787 2.902 2.707 26.277 25.005 44.092 62.919 45.19 99.338.042 3.423.044 6.844.033 10.267.004 1.147.008 2.294.012 3.475-.007 5.691-.241 11.117-1.02 16.756-.35 2.879-.35 2.879-.117 5.457 2.549 3.004 2.549 3.004 6 5 12.004 14.646 15.351 29.378 14 48-2.492 14.056-10.622 26.885-22.152 35.301-13.767 8.786-28.81 12.345-45.098 8.761-2.264-.641-4.518-1.318-6.75-2.062-2.324 1.528-4.45 3.093-6.625 4.812-29.491 22.339-62.352 31.5-99.007 31.478-2.047.006-4.093.013-6.14.021-5.518.017-11.036.022-16.554.023-3.453.002-6.905.006-10.358.011-12.057.019-24.115.027-36.172.026-11.223-.002-22.445.02-33.667.051-9.657.026-19.314.037-28.972.036-5.758-.001-11.517.005-17.275.026-5.41.019-10.82.019-16.23.005-1.982-.002-3.963.003-5.944.015-2.712.015-5.422.006-8.133-.01-.778.011-1.555.021-2.356.032-7.489-.094-14.539-2.858-20.157-7.913-7.715-8.826-10.023-18.215-9.711-29.636.784-10.368 5.798-17.023 13.301-23.977 7.697-6 7.697-6 11-6-.261-.561-.522-1.121-.791-1.699C108.887 407.905 99.8877 370.118 101 331l-3 1c-18.6646 1.635-40.6481-3.445-55.1328-15.547-13.0178-11.352-22.5356-25.601-24.1152-43.22-1.7357-30.179 8.3919-56.329 28.2553-78.91C49.2747 191.818 51.618 189.396 54 187c.4663-.47.9326-.941 1.4131-1.425 22.4084-22.278 54.8429-37.557 86.6499-37.638 1.645.016 3.291.035 4.937.063.196-.998.392-1.995.594-3.023 10.512-51.3362 33.975-110.1581 79.539-140.27781 8.285-4.910167 15.721-6.51723 25.308-4.078127M219 32c-.603.5504-1.207 1.1008-1.828 1.6679C207.109 43.1897 199.743 55.0155 193 67c-.587 1.0231-.587 1.0231-1.187 2.0669C179.515 90.6258 171.309 114.064 165 138c-.206.76-.412 1.52-.624 2.303-.894 3.387-1.376 6.164-1.376 9.697 1.025.338 2.05.675 3.105 1.023 1.361.451 2.722.901 4.083 1.352.673.222 1.347.443 2.041.672 3.642 1.208 7.216 2.509 10.771 3.953.372-.623.743-1.247 1.126-1.889C191.325 143.072 198.551 131.205 207 120c.785-1.058 1.57-2.117 2.379-3.207 4.443-5.933 9.109-11.665 13.934-17.293.542-.6359 1.085-1.2719 1.644-1.927 2.7-3.1043 5.429-5.9903 8.551-8.6746C243.631 80.0954 246.555 71.0168 249 58c.172-.9045.344-1.8089.521-2.7408 4.19-19.1133 4.19-19.1133.577-37.1342-2.492-2.5243-3.376-3.0534-6.895-3.4024C234.064 15.514 225.414 25.9505 219 32m45 49c-2.916 2.5104-5.755 5.075-8.559 7.7109-2.075 1.9463-4.194 3.7805-6.378 5.6016C238.76 103.311 230.228 114.135 222 125c-.442.574-.883 1.148-1.338 1.74-6.032 7.851-11.498 15.975-16.724 24.385-.841 1.352-.841 1.352-1.699 2.731-2.44 3.982-4.589 7.761-6.239 12.144.568.583 1.137 1.165 1.723 1.766 5.896 6.26 10.149 12.721 14.277 20.234l2 3c11.649-7.623 23.154-15.261 34-24 .915-.723 1.83-1.446 2.773-2.191C280.112 141.312 313.366 106.561 321 68c-.331-3.5179-.597-5.4474-2.688-8.3125C304.469 49.5856 274.862 72.2379 264 81M57.8396 205.365c-14.8733 17.154-24.8891 39.19-24.1599 62.135C34.9939 281.86 40.5526 293.102 51 303c14.238 11.766 30.4343 13.259 48.1348 13.566 1.2102.03 2.4192.06 3.6662.09 1.095.019 2.189.038 3.317.057 2.861.285 4.509.697 6.882 2.287 3.951 6.394 3.433 13.174 3.5 20.5.878 37.677 9.774 72.42 27.638 105.614C145 447 145 447 145.188 450c-1.188 3-1.188 3-2.915 4.062-1.544.655-3.1 1.282-4.664 1.887-8.617 3.47-15.393 8.351-19.984 16.488-1.783 7.311-.444 11.808 2.891 18.364 2.311 3.424 4.592 4.902 8.484 6.199 1.434.088 2.872.122 4.309.12.879.002 1.758.003 2.664.004.962-.003 1.924-.007 2.914-.011 1.015.001 2.03.001 3.076.001 3.36-.001 6.72-.009 10.08-.016 2.327-.002 4.655-.004 6.982-.005 6.131-.003 12.261-.013 18.391-.024 6.254-.011 12.508-.015 18.762-.02 12.274-.011 24.548-.028 36.822-.049-.28-.618-.56-1.236-.849-1.873-.365-.81-.729-1.621-1.105-2.456-.363-.803-.726-1.607-1.099-2.435-3.424-8.086-2.772-17.648.018-25.822 3.645-8.5 8.995-14.554 17.381-18.525 7.495-2.948 14.335-3.54 22.342-3.639 1.785-.045 1.785-.045 3.607-.09 2.902-.07 5.803-.123 8.705-.16-3.413-4.028-6.883-7.966-10.5-11.813-13.444-15.023-17.441-33.012-16.675-52.77 1.183-16.348 9.637-32.056 21.175-43.417 13.966-11.865 29.76-17.216 47.848-17.496 3.152.496 3.152.496 5.093 2.297 1.607 3.337.968 5.691.059 9.199-3.556 2.371-5.772 2.45-10 2.875-15.963 1.881-28.614 8.836-39 21.125-7.794 10.492-12.697 24.814-11 38 2.149 13.308 7.137 22.944 16 33 .668.763 1.335 1.526 2.023 2.312 9.488 10.158 19.842 16.667 33.692 17.211C324 443 324 443 325.918 444.32c1.842 2.86 1.434 5.395 1.082 8.68-1.143 1.695-1.143 1.695-3 3-2.737.379-2.737.379-6.089.385-1.255.01-2.51.02-3.803.03-.671-.001-1.342-.003-2.033-.004-2.107-.005-4.214.009-6.321.028-4.481.037-8.961.051-13.442.061-5.177.012-10.353.034-15.53.08-2.065.013-4.13.009-6.195.005-9.981.079-17.33 1.158-24.587 8.415-3.106 4.927-4.468 9.587-3.668 15.422 1.603 6.827 4.796 10.792 10.668 14.578 4.032 1.95 7.308 2.257 11.768 2.275.661.005 1.322.01 2.003.015 2.182.014 4.364.013 6.545.011 1.537.004 3.074.008 4.611.013 3.229.007 6.457.007 9.686.002 3.273-.005 6.546.002 9.818.02 43.677.243 82.451-6.64 115.569-37.336.515-.477 1.031-.954 1.562-1.445 27.686-25.943 42.526-61.081 44.723-98.739.942-40.021-15.422-75.791-42.569-104.437-24.533-25.163-60.547-40.132-95.631-40.621-27.427-.078-52.555 6.459-76.413 20.152-8.504 4.809-16.895 5.891-26.449 3.352-6.489-2.624-11.157-6.946-14.223-13.262-.551-3.172-.733-6.352-.937-9.563-1.232-14.65-5.276-27.201-16.125-37.687-12.027-9.978-26.566-14.342-42-14.188-1.638.014-1.638.014-3.31.028-32.717.691-62.1789 17.88-83.7884 41.775M468 399c-.19.537-.38 1.073-.576 1.626-6.323 17.673-13.59 34.628-25.424 49.374-.727.916-1.454 1.833-2.203 2.777-1.369 1.717-2.746 3.427-4.133 5.129-1.791 2.194-1.791 2.194-3.664 5.094 7.43 2.477 16.584.518 23.59-2.648C466.096 454.46 472.893 446.24 477 435c2.556-10.854 1.299-21.614-4.344-31.309-1.431-2.132-1.431-2.132-3.656-4.691z" />
    <path
      d="M474 86c8.89 6.3043 14.503 14.379 17 25 1.564 17.515-3.839 31.432-14.96 45.011-2.291 2.714-4.647 5.364-7.04 7.989-1.096 1.205-1.096 1.205-2.215 2.434-8.622 9.007-18.916 16.238-28.91 23.629-.627.465-1.255.93-1.901 1.409-1.64 1.201-3.306 2.366-4.974 3.528-.637.452-1.274.905-1.93 1.371-4.423 1.344-8.342.53-12.335-1.551-2.433-1.552-4.774-3.187-7.11-4.882-.838-.592-1.676-1.184-2.539-1.794-20.342-14.48-46.588-33.932-51.84-60.027-1.502-12.921 1.002-23.599 8.754-34.117 5.595-6.1204 13.431-10.7115 21.773-11.2382 11.57-.2786 21.344 1.012 31.727 6.5507 3.909 1.8848 4.521 1.8609 8.5.6875 3.232-1.4194 6.382-2.9717 9.551-4.5273 11.59-4.9484 27.405-6.4048 38.449.5273m-47 22c-6.434.546-10.104-.578-15.563-3.875C403.156 99.2576 395.7 97.0609 386 98c-6.542 2.302-10.979 6.958-14.207 13.059-2.551 6.245-2.087 12.05.074 18.339 3.989 9.16 10.279 16.461 17.133 23.602.625.677 1.25 1.354 1.894 2.051 5.274 5.54 11.223 10.141 17.365 14.661 1.179.872 2.351 1.753 3.517 2.642 1.728 1.317 3.473 2.609 5.224 3.896 1.547 1.152 1.547 1.152 3.125 2.328 2.732 1.714 2.732 1.714 5.379.93C445.943 167.161 469.963 146.829 476 123c1.287-7.275-.956-12.945-5-19-3.617-4.0521-7.728-6.6133-13.148-7.2539C447.809 96.2551 434.234 100.766 427 108M125.152 205.895c4.956 2.964 9.421 7.452 11.41 12.96 1.472 7.212 1.638 14.987-2.238 21.434-4.81 6.216-10.721 9.902-18.515 11.027-6.856.37-12.605-1.565-17.8246-6.046-4.917-5.176-7.8164-10.574-8.0742-17.782.3976-6.657 1.9994-12.579 6.957-17.246 8.4028-6.564 18.1858-8.764 28.2848-4.347M108.625 221c-2.907 2.799-2.907 2.799-3.25 6.562.713 3.92 1.429 5.13 4.625 7.438 1.843 1.086 1.843 1.086 4 1 3.899-1.56 5.645-2.467 8-6-.18-3.368-.361-5.991-2.188-8.875-4.309-2.675-6.822-2.712-11.187-.125" />
  </g>
  <defs>
    <clipPath id="a">
      <path fill="#eed979" d="M0 0h512v512H0z" />
    </clipPath>
  </defs>
</svg>