<svg xmlns="http://www.w3.org/2000/svg" width="500" height="120" fill="none" viewBox="0 180 500 120">
    <path fill="#c3a24b" fill-rule="evenodd"
        d="M475.14 208.994c-42.431 41.32-99.792 60.209-176.736 58.264-16.875-.416-23.472-1.111-51.042-5.277-83.889-12.709-150.5554-10.904-201.7359 5.485-10.3472 3.333-9.8613 3.542-4.7919-2.291 16.1806-18.542 21.0421-27.501 16.3893-30.278-4.0972-2.5-4.9307-1.875-18.1946 14.236-8.8194 10.764-27.2914 29.236-30.6247 30.625-4.4444 1.875.1387 10.625 7.1526 8.611 12.8473-3.68 44.3053.833 59.7915 8.611 5.6944 2.847 8.4722 3.542 9.6528 2.362 3.8194-3.82-16.7362-13.543-36.389-17.293-4.6528-.902-8.2639-1.805-7.9861-2.083 2.0139-1.944 35.9028-11.18 50.4862-13.819 37.0138-6.666 104.9308-4.862 165.9718 4.444 95.834 14.653 175.278-3.472 225.348-51.458 11.736-11.25 13.263-14.514 8.125-17.57-4.375-2.778-5.487-2.221-15.417 7.431"
        clip-rule="evenodd" />
</svg>