<svg width="512" height="356" viewBox="0 78 512 356" fill="none" xmlns="http://www.w3.org/2000/svg">
    <path
        d="M305.195 78.0156C309.358 79.4767 312.435 82.0329 315.875 84.75C316.995 85.6219 316.995 85.6219 318.138 86.5115C329.745 95.6295 340.665 105.503 351.455 115.563C353.957 117.89 356.479 120.194 359 122.5C362.662 125.851 366.314 129.212 369.958 132.583C378.504 140.487 387.052 148.319 396.113 155.637C398.59 157.665 401.018 159.738 403.435 161.836C427.203 182.359 453.789 198.58 482.234 211.715C496.822 218.533 496.822 218.533 502.063 224.25C504.372 231.024 503.581 236.334 500.64 242.756C496.408 251.331 491.088 258.666 485 266C484.258 266.922 483.515 267.843 482.75 268.793C476.956 275.963 470.99 282.993 465 290C464.484 290.604 463.968 291.208 463.436 291.83C457.122 299.204 450.714 306.469 444.1 313.576C440.945 316.966 437.868 320.408 434.84 323.91C431.959 327.183 428.994 330.378 426.04 333.585C423.549 336.295 421.088 339.023 418.688 341.812C409.894 351.909 400.574 361.52 391.125 371C390.341 371.789 389.557 372.577 388.749 373.39C384.542 377.586 380.251 381.618 375.747 385.494C373.577 387.364 371.479 389.307 369.375 391.25C364.846 395.342 360.124 399.114 355.303 402.849C351.562 405.753 347.916 408.738 344.313 411.812C339.028 416.253 333.551 420.398 328 424.5C327.174 425.112 326.348 425.724 325.497 426.355C324.714 426.929 323.932 427.502 323.125 428.094C322.426 428.606 321.728 429.119 321.008 429.646C316.681 432.563 313.492 433.31 308.25 433.625C306.494 433.737 306.494 433.737 304.703 433.852C303.811 433.901 302.919 433.95 302 434C296.394 423.988 294.026 413.24 292.313 402C292.134 400.828 292.134 400.828 291.951 399.632C290.251 387.641 289.831 375.529 289.438 363.438C289.394 362.226 289.351 361.015 289.307 359.768C289.039 351.842 288.948 343.93 289 336C288.281 336.012 287.561 336.023 286.82 336.035C277.748 336.114 268.751 335.662 259.698 335.144C233.702 333.688 208.161 333.244 182.23 336.148C161.021 338.41 139.979 339.328 118.664 339.261C115.01 339.249 111.355 339.256 107.701 339.268C104.819 339.275 101.937 339.273 99.0548 339.268C97.0683 339.266 95.0818 339.272 93.0953 339.278C71.3339 339.167 71.3339 339.167 65 336C64.8557 334.974 64.7113 333.948 64.5625 332.891C63.9604 328.726 62.7232 325.577 61 321.75C57.921 314.852 55.9884 309.598 57 302C58.1336 299.329 59.4681 296.869 60.8867 294.34C62.4758 291 62.3948 288.632 62 285C57.1987 286.485 54.2963 289.168 50.75 292.562C50.2086 293.07 49.6672 293.577 49.1094 294.1C47.3886 295.715 45.6691 297.331 44 299C44.1509 304.978 45.1309 310.916 46.0625 316.812C47.4966 326.732 48.1833 336.257 44.7539 345.816C43.935 348.188 43.4465 350.533 43 353C40.3936 352.499 38.5049 351.742 36.125 350.5C32.9878 348.994 30.4172 348.495 27 348C26.8957 347.116 26.7914 346.232 26.6839 345.321C23.9376 322.451 20.3666 299.803 16.2112 277.145C11.9844 254.01 8.81247 231.305 8.86966 207.762C8.87506 205.109 8.86966 202.457 8.86331 199.805C8.86397 198.102 8.86525 196.398 8.86722 194.695C8.86519 193.911 8.86317 193.126 8.86108 192.318C8.879 188.102 9.16865 184.154 10 180C11.0313 180.041 12.0625 180.082 13.125 180.125C16.1502 179.749 16.8779 179.155 18.8008 176.707C20.2964 174.176 21.6951 171.634 23 169C26.8492 170.31 29.1891 171.826 32 174.75C32.6923 175.459 33.3845 176.168 34.0977 176.898C35.6975 178.666 37.0591 180.439 38.4375 182.375C44.5146 188.6 56.2374 187.65 64.4702 188.113C65.5534 188.176 65.5534 188.176 66.6585 188.24C87.7726 189.434 108.915 189.257 130.054 189.203C135.877 189.19 141.7 189.189 147.523 189.187C158.49 189.181 169.457 189.164 180.424 189.144C192.935 189.121 205.446 189.111 217.957 189.101C243.638 189.08 269.319 189.045 295 189C294.863 187.978 294.725 186.955 294.583 185.902C294.401 184.544 294.219 183.185 294.037 181.826C293.902 180.819 293.902 180.819 293.763 179.791C293.063 174.558 292.449 169.324 291.93 164.07C291.8 162.77 291.8 162.77 291.669 161.444C291.398 158.672 291.134 155.899 290.875 153.125C290.786 152.17 290.696 151.214 290.604 150.23C288.975 132.458 288.3 114.842 289 97C289.046 95.7726 289.092 94.5453 289.139 93.2808C289.203 92.104 289.266 90.9272 289.332 89.7148C289.415 88.1369 289.415 88.1369 289.499 86.5271C289.665 85.6932 289.83 84.8592 290 84C293.295 81.803 296.213 81.082 300 80C303 78 303 78 305.195 78.0156ZM313 121C312.504 140.933 314.191 159.844 317.644 179.459C321.554 201.773 321.554 201.773 320 209C316.15 214.161 310.15 217.386 303.776 218.329C301.477 218.412 299.216 218.373 296.917 218.281C296.06 218.264 295.202 218.247 294.319 218.229C292.485 218.19 290.652 218.142 288.819 218.086C286.011 218 283.204 217.942 280.396 217.892C276.467 217.821 272.539 217.74 268.611 217.649C242.084 217.04 215.572 216.862 189.039 216.899C183.514 216.905 177.989 216.905 172.464 216.907C162.096 216.91 151.728 216.918 141.36 216.928C129.516 216.939 117.672 216.945 105.828 216.95C81.5523 216.96 57.2762 216.977 33 217C32.9829 220.21 32.9726 223.421 32.9634 226.631C32.9585 227.536 32.9536 228.44 32.9485 229.372C32.9355 235.484 33.2413 241.358 34.375 247.375C34.5014 248.141 34.6277 248.906 34.7578 249.695C35.4914 253.95 36.5149 257.932 38 262C49.2336 259.192 57.4336 249.218 64.6875 240.75C71.9146 232.388 71.9146 232.388 76.6875 231.5C77.4507 231.335 78.2138 231.17 79 231C79.99 229.35 80.98 227.7 82 226C81.67 230.29 81.34 234.58 81 239C82.65 238.01 84.3 237.02 86 236C88.8125 236.812 88.8125 236.812 91 238C91.5381 244.322 89.7548 248.382 87 254C86.4079 255.35 85.8236 256.704 85.25 258.062C84.8375 259.032 84.425 260.001 84 261C86.8061 262.004 88.1169 262.444 91 262C94.4392 259.487 97.1662 256.352 100 253.188C108.946 243.333 108.946 243.333 116 242C118.898 239.521 118.898 239.521 121 237C120.01 240.96 119.02 244.92 118 249C124.289 248.475 124.289 248.475 130 246C130.373 252.967 129.93 258.71 125.125 264.105C123.723 265.479 122.308 266.839 120.879 268.184C118.707 270.283 117.166 272.201 116 275C116.014 277.032 116.014 277.032 117 279C121.411 281.969 126.2 283.871 131.5 284.25C135.838 282.701 139.26 280.355 143.066 277.789C147.458 275.111 152.108 273.523 157 272C156.711 272.701 156.423 273.402 156.125 274.125C154.982 277.046 153.992 280.025 153 283C157.62 282.67 162.24 282.34 167 282C166.423 293.967 166.423 293.967 162 298C161.01 298.66 160.02 299.32 159 300C159 300.99 159 301.98 159 303C164.73 304.962 169.783 305.276 175.813 305.188C176.746 305.181 177.68 305.175 178.642 305.168C184.155 305.108 189.625 304.872 195.125 304.5C209.043 303.635 222.96 303.703 236.895 303.949C240.365 304.006 243.836 304.047 247.306 304.089C253.353 304.173 259.396 304.312 265.44 304.506C268.826 304.614 272.211 304.702 275.599 304.736C298.494 305.046 298.494 305.046 303.921 309.87C306.614 312.941 308.4 316.239 310 320C310.355 320.778 310.71 321.555 311.075 322.357C312.096 325.275 312.223 327.462 312.179 330.546C312.17 331.635 312.16 332.724 312.15 333.847C312.13 335.017 312.11 336.188 312.09 337.395C312.069 339.903 312.049 342.411 312.029 344.92C311.986 348.852 311.938 352.783 311.884 356.715C311.543 377.546 311.543 377.546 315 398C315.99 398.33 316.98 398.66 318 399C320.481 397.608 322.738 396.184 325.063 394.562C325.735 394.102 326.408 393.642 327.1 393.168C336.345 386.778 344.708 379.568 353 372C354.687 370.5 356.375 369 358.063 367.5C364.079 362.077 369.868 356.498 375.145 350.348C380.319 344.396 386.003 338.953 391.617 333.422C396.039 329.041 400.312 324.615 404.364 319.89C407.11 316.717 409.999 313.679 412.875 310.625C417.613 305.571 422.312 300.489 426.926 295.32C428.352 293.724 429.788 292.136 431.23 290.555C435.863 285.467 440.295 280.264 444.617 274.91C446.287 272.871 447.97 270.862 449.695 268.871C457.451 259.912 464.868 250.761 470 240C465.265 234.53 459.973 232.017 453.375 229.5C441.367 224.804 431.378 217.536 421 210C419.327 208.803 417.654 207.607 415.98 206.41C402.438 196.646 389.428 186.213 377.113 174.934C375.143 173.131 373.144 171.372 371.125 169.625C366.199 165.331 361.402 160.898 356.599 156.469C355.027 155.024 353.448 153.588 351.867 152.152C350.807 151.186 349.747 150.218 348.688 149.25C348.154 148.763 347.62 148.276 347.07 147.774C344.043 144.982 341.12 142.121 338.266 139.152C331.132 131.746 324.582 125.195 315 121C314.34 121 313.68 121 313 121ZM85.8125 298.375C83.3002 302.014 82.7008 305.685 82 310C84.0614 310.109 86.1243 310.186 88.1875 310.25C89.9104 310.32 89.9104 310.32 91.668 310.391C95.6036 309.929 97.1775 308.7 100 306C98.502 302.187 96.3736 300.275 93 298C89.7963 296.75 88.7495 296.529 85.8125 298.375Z"
        fill="#4C2D09" />
</svg>