<svg xmlns="http://www.w3.org/2000/svg" width="392" height="512" fill="none" viewBox="60 0 392 512">
  <path fill="#eed979"
    d="M194.617 22.2821c31.542 26.1921 46.738 70.329 50.865 110.0149 2.499 27.701-2.604 51.803-20.357 74.015-8.217 9.503-17.991 16.061-29.125 21.688h-2c.07 1.88.07 1.88.141 3.798 1.101 29.775 2.201 59.551 3.299 89.326.135 3.667.27 7.335.405 11.002.041 1.095.041 1.095.082 2.212.435 11.811.872 23.622 1.309 35.433.449 12.125.897 24.25 1.343 36.375.275 7.478.551 14.955.829 22.433.213 5.741.424 11.481.634 17.221.087 2.351.174 4.701.262 7.051.12 3.215.237 6.43.354 9.645.053 1.386.053 1.386.106 2.801.157 4.352.277 8.704.332 13.059.01.777.021 1.555.032 2.356-.306 5.465-1.982 9.894-5.44 14.1-5.898 4.8-10.024 7.289-17.605 7.349-.975.01-1.95.019-2.954.029-1.048.004-2.096.009-3.176.013-1.085.006-2.17.011-3.288.017-2.297.01-4.593.016-6.89.02-3.498.01-6.996.041-10.494.072-2.234.007-4.468.012-6.703.016-1.04.012-2.08.025-3.151.037-7.402-.022-13.317-.75-19.177-5.678-5.752-6.87-7.437-10.95-7.194-19.806.019-.719.037-1.438.056-2.179.064-2.416.137-4.831.21-7.247.049-1.743.098-3.485.146-5.227.62-21.671 1.438-43.336 2.249-65.001.223-5.978.444-11.955.664-17.933.417-11.25.835-22.501 1.254-33.751.478-12.837.954-25.675 1.429-38.512.976-26.344 1.955-52.688 2.936-79.031-.922-.292-1.844-.584-2.794-.885-18.693-6.504-32.1147-23.152-41.081-40.053-14.8238-31.081-8.1549-69.357 2.5625-100.6871C90.2354 70.7609 96.962 55.2786 107 41.9999c.696-.9281 1.392-1.8562 2.109-2.8125 11.068-14.1283 24.113-24.5752 41.703-28.875 16.124-1.58072 30.941 1.7701 43.805 11.9697M133 46.9999c-.69.6781-1.379 1.3561-2.09 2.0547C105.757 75.453 96.3387 118.176 96.7227 153.348 97.1705 169.322 103.953 183.487 115 195c6.709 5.949 13.767 10.186 21.992 13.711 8.533 3.657 8.533 3.657 10.169 5.833 1.285 3.76 1.076 7.393 1.01 11.337-.008.884-.016 1.769-.024 2.68-.116 10.119-.489 20.229-.881 30.34-.08 2.112-.158 4.224-.237 6.336-.168 4.505-.338 9.011-.511 13.517-.273 7.149-.54 14.298-.806 21.447-.662 17.754-1.332 35.507-2.004 53.26-.522 13.815-1.042 27.63-1.556 41.445-.263 7.082-.531 14.164-.803 21.245q-.252 6.6525-.498 13.305c-.076 2.028-.153 4.056-.232 6.084-.564 14.492-.71 28.957-.619 43.46 8.941.885 17.767 1.123 26.75 1.062 1.922-.006 1.922-.006 3.883-.013 3.122-.012 6.245-.029 9.367-.049.39-23.652-.71-47.267-1.615-70.897-.228-5.98-.451-11.96-.673-17.941-.517-13.873-1.041-27.747-1.566-41.62-.669-17.676-1.335-35.352-1.994-53.028-.264-7.082-.532-14.164-.803-21.246-.168-4.422-.333-8.845-.498-13.268-.076-2.028-.153-4.056-.232-6.085-.244-6.304-.454-12.608-.619-18.915-.026-.924-.052-1.849-.079-2.801-.069-2.751-.116-5.502-.154-8.254-.023-.828-.045-1.656-.068-2.509-.035-4.631.22-7.719 3.301-11.436 2.564-1.334 4.946-2.413 7.625-3.438 6.309-2.579 11.942-5.384 17.375-9.562 1.236-.942 1.236-.942 2.496-1.902 11.436-9.581 19.35-25.326 20.804-40.155.138-3.259.168-6.494.138-9.756-.015-1.772-.015-1.772-.03-3.58-.524-26.399-8.513-52.6202-21.408-75.6071-.826-1.5875-.826-1.5875-1.668-3.207-4.356-8.0606-9.9-14.3612-16.332-20.793-.715-.7154-1.431-1.4309-2.168-2.168-6.597-6.1761-12.67-9.0199-21.77-9.3945-11.827.4065-18.949 6.4631-27.062 14.5625M313 21c5.5 3 5.5 3 7 6 .656 12.2434-.482 24.4081-1.667 36.5835-.31 3.1955-.61 6.3919-.907 9.5886-.846 9.0769-1.711 18.1519-2.581 27.2269-.534 5.588-1.058 11.178-1.575 16.768-.291 3.102-.594 6.203-.898 9.303-.964 10.188-1.558 20.306-1.601 30.542-.006.991-.013 1.982-.02 3.003.04 7.613 1.065 13.99 4.249 20.985.351.799.701 1.598 1.062 2.422 6.366 12.818 17.124 20.559 29.774 26.402 3.502 1.903 4.897 3.375 6.164 7.176.668 12.187-.358 24.596-.81 36.779q-.132 3.594-.261 7.188c-.211 5.805-.425 11.609-.639 17.413-.174 4.717-.348 9.435-.521 14.152-.05 1.364-.1 2.728-.15 4.091-.025.679-.049 1.358-.075 2.057-.469 12.801-.942 25.602-1.415 38.403-.433 11.706-.861 23.412-1.288 35.118-.439 12.04-.881 24.08-1.326 36.119-.249 6.752-.497 13.503-.743 20.255-.23 6.341-.464 12.682-.701 19.022-.087 2.328-.172 4.655-.255 6.983-.115 3.174-.234 6.349-.354 9.523-.048 1.384-.048 1.384-.097 2.797-.034.854-.067 1.708-.101 2.587-.027.732-.054 1.464-.082 2.218-.221 2.784-.723 5.54-1.182 8.295h41c-.288-5.867-.577-11.734-.874-17.779-1.215-25.248-2.191-50.504-3.142-75.764-.044-1.172-.088-2.344-.134-3.551-.418-11.088-.834-22.176-1.247-33.264-.523-14.045-1.053-28.09-1.594-42.134-.383-9.969-.758-19.939-1.126-29.908-.219-5.924-.442-11.848-.674-17.771-.217-5.536-.423-11.073-.621-16.61-.074-2.027-.152-4.055-.234-6.082-.112-2.767-.21-5.534-.304-8.302-.036-.799-.071-1.598-.108-2.421-.149-4.898.387-8.79 2.058-13.414 1.559-1.566 1.559-1.566 3.437-2.562.708-.394 1.416-.787 2.145-1.192.798-.411 1.596-.822 2.418-1.246 15.247-8.087 24.259-17.417 30-34 7.198-24.32-.766-57.696-3.172-82.3217-.87-8.9254-1.716-17.8529-2.558-26.7808-.294-3.0802-.595-6.1596-.898-9.2389-2.597-26.8041-2.597-26.8041 1.003-31.3461 3.567-3.1423 5.714-3.7407 10.523-3.6445 2.857.4514 4.859 1.6743 6.932 3.6716 4.027 5.7163 3.724 14.9105 4.315 21.646.098 1.0616.196 2.1232.296 3.217.32 3.4905.631 6.9818.942 10.4732.221 2.4503.442 4.9006.664 7.3509.463 5.1347.921 10.2698 1.376 15.4052.58 6.5286 1.173 13.0558 1.769 19.5831.461 5.064.914 10.129 1.364 15.194.215 2.403.433 4.806.653 7.21 2.763 30.205 4.998 58.476-15.209 83.581-.458.621-.915 1.243-1.387 1.883-3.17 4.093-7.058 7.245-11.113 10.43-.546.433-1.092.866-1.655 1.312-3.467 2.64-6.646 4.231-10.845 5.375.062.554.125 1.109.189 1.68 1.017 9.97 1.292 19.971 1.659 29.981.079 2.088.158 4.175.237 6.263.213 5.652.423 11.304.632 16.956.131 3.547.263 7.094.395 10.641.464 12.421.924 24.842 1.381 37.263.424 11.498.854 22.995 1.287 34.492.374 9.927.743 19.854 1.108 29.78.218 5.904.437 11.807.661 17.709.511 13.515.992 27.03 1.375 40.549.05 1.763.101 3.526.154 5.289.137 4.662.248 9.322.31 13.985.03 1.964.084 3.927.139 5.89.05 8.138-1.333 13.124-6.97 19.036-6.474 5.898-13.455 5.804-21.729 5.822-1.077.007-2.155.013-3.265.02-2.276.01-4.553.015-6.829.015-3.458.004-6.916.04-10.375.078-2.218.006-4.437.01-6.656.012-1.023.014-2.046.029-3.101.044-7.445-.047-14.782-1.128-20.548-6.226-5.791-6.165-6.356-12.669-6.225-20.787.008-.922.016-1.844.024-2.794.113-10.198.482-20.387.881-30.577.08-2.097.158-4.194.237-6.291.168-4.47.338-8.941.511-13.411.273-7.089.54-14.179.806-21.269.614-16.326 1.236-32.652 1.858-48.978.57-14.979 1.139-29.959 1.702-44.939.264-7.027.532-14.053.803-21.08.168-4.393.333-8.786.498-13.179.076-2.014.153-4.027.232-6.04.212-5.412.399-10.824.544-16.238.052-1.872.111-3.744.176-5.616.095-2.904.16-5.808.218-8.713.051-1.329.051-1.329.103-2.685.129-4.975.129-4.975-2.457-9.074-2.349-1.441-2.349-1.441-5.106-2.448-5.21-2.114-8.893-6.273-12.859-10.16-.701-.665-1.403-1.33-2.125-2.016-4.325-4.426-7.322-9.203-10.125-14.671-.317-.611-.635-1.221-.961-1.85-5.505-11.326-7.505-22.812-7.34-35.315.006-1.08.006-1.08.012-2.182.171-23.6 2.763-47.134 5-70.606.475-5.0412.928-10.0841 1.381-15.1272.441-4.8787.894-9.7562 1.352-14.6334.216-2.3177.428-4.6358.637-6.9541.291-3.2104.598-6.4188.91-9.6272.083-.9463.166-1.8925.251-2.8675.585-5.7898 1.635-9.6019 5.695-13.9631 3.411-1.7511 6.61-1.8484 10.313-1.1875" />
  <path fill="#eed979"
    d="M348 21c3.021 1.7476 5.416 3.8322 7 7 .097 1.8364.128 3.6764.128 5.5154.002 1.1773.003 2.3545.005 3.5675-.008 1.9525-.008 1.9525-.016 3.9444-.001.6748-.003 1.3496-.004 2.0448-.041 17.3762-.428 34.7464-.858 52.1166-.112 4.544-.211 9.0883-.308 13.6323-.078 3.548-.164 7.095-.253 10.642-.04 1.678-.078 3.356-.112 5.034-.048 2.324-.108 4.647-.171 6.97-.031 1.314-.063 2.629-.095 3.983-.401 4.509-1.337 8.101-3.878 11.862-3.622 2.508-7.07 3.014-11.438 2.688-4.084-2.005-6.443-3.729-8-8-.156-2.571-.206-5.023-.15-7.59.008-.748.017-1.496.025-2.267.03-2.381.076-4.762.125-7.143.026-1.498.052-2.995.079-4.493.088-4.69.205-9.38.323-14.069.043-1.729.085-3.458.128-5.186.088-3.5937.178-7.187.27-10.7803.115-4.5547.226-9.1094.336-13.6642.086-3.5607.175-7.1213.265-10.682.042-1.6773.083-3.3547.123-5.032.129-5.3657.29-10.7295.476-16.0935.024-.783.048-1.5661.073-2.3729.076-2.3258.172-4.6499.273-6.9748.02-.6975.041-1.395.062-2.1136.215-4.2955 1.021-7.0815 3.592-10.5387 3.444-2.6784 7.824-2.8096 12-2M386 21.0001c3.691 1.9631 4.731 3.2271 6.103 7.1744.922 3.9313 1.212 7.4389 1.308 11.4721.019.7315.039 1.463.06 2.2167.063 2.4101.112 4.8202.162 7.2306.041 1.7093.083 3.4187.126 5.128.088 3.5943.169 7.1886.246 10.7831.097 4.5078.205 9.0153.316 13.5228.256 10.3459.46 20.6921.635 31.0392.043 2.398.093 4.794.145 7.191.078 3.667.136 7.334.177 11.001.026 1.964.072 3.928.118 5.891.009 1.168.017 2.336.025 3.54.016 1.008.031 2.016.047 3.055-.599 3.525-2.043 5.181-4.468 7.755-3.269 2.289-6.07 2.472-10 2-3.658-2.04-5.669-3.504-8-7-.299-2.7-.489-5.311-.592-8.019-.037-.799-.073-1.598-.112-2.422-.111-2.519-.207-5.039-.296-7.559-.027-.768-.055-1.537-.083-2.329-.184-5.454-.322-10.91-.452-16.366-.043-1.73-.087-3.459-.13-5.189-.09-3.5914-.178-7.183-.265-10.7746-.11-4.556-.224-9.1118-.34-13.6677-.089-3.5606-.177-7.1212-.265-10.6819-.041-1.6782-.083-3.3564-.125-5.0345-.115-4.5873-.212-9.1744-.292-13.7625-.049-2.23-.13-4.4574-.213-6.6863-.038-1.4284-.074-2.8568-.11-4.2852-.043-1.2491-.086-2.4982-.13-3.7852.489-4.1508 1.791-6.2173 4.405-9.438 4.041-2.6939 7.256-2.6587 12-2" />
</svg>