<svg xmlns="http://www.w3.org/2000/svg" width="525" height="540" fill="none" viewBox="124 483 525 540"><path fill="#000" d="M768 0H0v1376h768V0"/><path fill="#bf9e4e" d="M483 701c3.31 1.438 5.439 3.225 7.938 5.812.648.667 1.296 1.333 1.964 2.02 1.039 1.073 1.039 1.073 2.098 2.168.779.765 1.559 1.53 2.362 2.319 7.604 7.728 13.775 16.513 19.7 25.556.692 1.046 1.383 2.093 2.094 3.171C532.38 762.141 532.38 762.141 534 767c-13.857 10.208-13.857 10.208-20.2 14.69-5.976 4.227-11.884 8.541-17.738 12.935-.697.514-1.395 1.028-2.114 1.558-4.282 3.243-7.779 6.712-11.236 10.818-2.714 3.169-5.679 6.073-8.65 8.999-.588.584-1.176 1.168-1.783 1.77A2440 2440 0 0 1 468 822c3.3 2.712 6.656 5.132 10.25 7.438 8.231 5.44 15.968 11.505 23.75 17.562 1.247.965 2.495 1.93 3.742 2.895C513.675 856.056 521.38 862.456 529 869c-.584 3.927-2.482 6.126-5 9.125l-2.461 2.934c-3.094 3.584-6.241 7.115-9.43 10.617-1.855 2.044-3.677 4.112-5.484 6.199-3.467 3.985-7.044 7.867-10.628 11.747-2.596 2.818-5.117 5.676-7.559 8.628L486 921h-2c-.205.531-.411 1.061-.623 1.608-1.951 3.388-4.656 5.935-7.416 8.662-.6.599-1.199 1.198-1.817 1.815-1.271 1.268-2.543 2.533-3.818 3.795-1.928 1.91-3.848 3.828-5.767 5.747-5.468 5.451-10.931 10.838-16.814 15.844-3.244 2.843-6.229 5.949-9.245 9.029-3.716 3.794-7.443 7.501-11.469 10.969-4.223 3.642-8.128 7.551-12.031 11.531-4.604 4.694-9.286 9.172-14.268 13.46-1.983 1.76-3.727 3.63-5.42 5.66-4.384 5.15-9.075 9.62-14.312 13.88 1.652-3.92 4.304-6.89 7.062-10.06 1.004-1.17 2.007-2.34 3.008-3.51.498-.58.996-1.16 1.509-1.75 1.998-2.36 3.926-4.77 5.859-7.18 3.866-4.755 7.947-9.267 12.138-13.734 2.577-2.749 5.089-5.531 7.539-8.393 4.139-4.737 8.561-9.157 13.03-13.58.851-.847 1.702-1.694 2.578-2.567 2.694-2.682 5.391-5.361 8.089-8.038 3.572-3.546 7.141-7.094 10.708-10.645.82-.813 1.641-1.625 2.487-2.462.758-.755 1.516-1.51 2.297-2.287.667-.662 1.335-1.324 2.022-2.006 1.858-1.887 1.858-1.887 3.674-4.788h2c.271-.593.542-1.186.821-1.797 1.165-2.176 2.354-3.673 4.05-5.453.569-.602 1.138-1.205 1.724-1.825.608-.636 1.216-1.271 1.843-1.925 1.273-1.347 2.547-2.695 3.82-4.043l1.919-2.025c4.332-4.591 8.572-9.266 12.823-13.932l2.363-2.578c4.673-5.133 9.13-10.397 13.481-15.805 2.558-3.105 5.263-6.049 8.039-8.961.368-.546.737-1.093 1.117-1.656-1.312-3.935-3.129-4.888-6.438-7.375-.569-.43-1.139-.86-1.726-1.303-7.857-5.893-15.848-11.608-23.836-17.322-.716-.513-1.432-1.025-2.169-1.553-3.941-2.82-7.884-5.636-11.831-8.447v1c7.088 6.292 14.779 11.948 22.272 17.743 6.369 4.941 12.589 10.033 18.728 15.257-.549 3.884-2.238 5.499-5.062 8.125-4.017 3.877-7.474 7.935-10.903 12.332-2.824 3.529-5.854 6.852-8.898 10.191-1.827 2.011-3.614 4.045-5.387 6.102-3.34 3.822-6.753 7.575-10.188 11.312-.525.578-1.051 1.156-1.592 1.751-3.443 3.727-7.072 7.099-10.919 10.404-3.444 2.994-6.739 6.145-10.051 9.283-4.618 4.374-9.287 8.66-14.089 12.83-2.87 2.508-5.676 5.082-8.473 7.67l-1.704 1.573a290 290 0 0 0-10.144 9.872c-1.712 1.674-3.508 3.201-5.34 4.743-3.614 3.111-6.847 6.487-10.062 10-.703.767-.703.767-1.419 1.549-2.404 2.658-4.678 5.352-6.769 8.263l-2-1c.461-.608.923-1.217 1.398-1.844 6.37-8.56 12.82-17.592 17.602-27.156-3.681 4.119-7.263 8.289-10.688 12.625-5.245 6.621-10.789 12.986-16.312 19.375l-1-2c.817-2.382 1.701-4.651 2.684-6.965.29-.7.58-1.4.88-2.122.95-2.286 1.912-4.568 2.874-6.851q.984-2.361 1.968-4.725c3.527-8.467 7.104-16.913 10.692-25.354 3.363-7.974 6.482-16.043 9.628-24.104 3.163-8.095 6.41-16.152 9.712-24.191 6.07-14.814 11.845-29.736 17.562-44.688.246-.643.491-1.285.745-1.948C446.137 830.474 455.184 805.789 464 781c2.48 3.721 2.444 6.865 2.625 11.188.039.749.077 1.499.117 2.271.094 1.847.177 3.694.258 5.541.783-1.891 1.55-3.788 2.312-5.688.43-1.055.859-2.111 1.301-3.199 3.761-10.501 4.87-20.833 5.075-31.925l.103-3.87c.081-3.106.151-6.211.209-9.318 1.579 2.861 2.372 5.32 2.852 8.547.116.761.233 1.523.354 2.307.138.956.276 1.912.419 2.896.681 4.579.681 4.579 1.375 9.25l1-25c2.285 2.285 2.971 4.125 4.125 7.125l1.07 2.758c.266.698.531 1.397.805 2.117.42-10.824-.696-20.424-3-31-.336-1.666-.671-3.332-1-5 10.384 8.396 18.147 18.64 25.866 29.425 1.352 1.878 2.735 3.731 4.134 5.575-7.482-18.756-16.028-35.156-29.062-50.688C483 702 483 702 483 701"/><path fill="#c09f4e" d="m287 697 2 1c-1.052.982-1.052.982-2.125 1.984C280.154 706.45 274.837 712.967 270 721c-.668 1.092-1.335 2.184-2.023 3.309C259.18 737.953 259.18 737.953 255 753c.473-.666.946-1.333 1.434-2.02C264.78 739.347 273.763 728.044 284 718c-.277 1.051-.554 2.101-.84 3.184-3.184 12.249-4.323 23.098-4.16 35.816.193-.71.387-1.421.586-2.152.26-.919.521-1.839.789-2.786.255-.916.51-1.833.773-2.777C282 747 282 747 284 746l1 25 4-24h1c.067 1.048.067 1.048.136 2.117 1.248 18.925 3.201 36.743 8.864 54.883.182-1.914.182-1.914.367-3.867.169-1.67.338-3.339.508-5.008.079-.842.157-1.684.238-2.551.126-1.208.126-1.208.254-2.441.074-.744.147-1.487.222-2.254C301 786 301 786 303 784c.143.649.286 1.297.433 1.965 3.778 17.042 8.167 33.828 13.005 50.597.636 2.224 1.272 4.447 1.908 6.67.946 3.312 1.893 6.624 2.844 9.934 1.899 6.612 3.759 13.234 5.595 19.864 2.709 9.773 5.533 19.443 8.84 29.032.623 1.844 1.246 3.688 1.867 5.533.442 1.312.885 2.624 1.328 3.936 2.859 8.465 5.68 16.943 8.469 25.431.597 1.811 1.198 3.622 1.802 5.432.846 2.536 1.682 5.076 2.514 7.618l.782 2.316c1.727 5.33 1.727 5.33.613 8.672l-20-40c0 4.246 1.566 8.475 2.625 12.562.266 1.03.531 2.06.805 3.121 1.904 7.21 4.122 14.225 6.828 21.175 1.842 4.841 1.842 4.841.742 8.142-1.006-1.454-2.004-2.914-3-4.375l-1.688-2.461C338 957 338 957 338 955h-2l4 16c-3.813-3.813-7.341-7.638-10.84-11.719-2.552-2.695-5.274-4.949-8.16-7.281 5.592 10.313 11.252 20.387 18 30l-1 2c-4.543-4.951-8.993-9.936-13.188-15.188-4.903-6.067-10.237-11.696-15.585-17.371-2.925-3.106-5.761-6.274-8.539-9.511-2.097-2.398-4.272-4.719-6.438-7.055-4.287-4.696-8.246-9.574-12.135-14.603-3.035-3.921-6.159-7.738-9.365-11.522-11.152-13.333-11.152-13.333-13.797-21.59-2.141-4.852-5.723-8.987-8.953-13.16 1.482-3.755 3.439-5.267 6.75-7.5 4.639-3.261 8.971-6.719 13.25-10.438 5.125-4.452 10.308-8.801 15.578-13.082 3.188-2.607 6.31-5.283 9.422-7.98-17.358 10.818-33.257 22.988-49 36 2.714 15.233 19.363 31.929 28.501 43.98 3.598 4.761 7.034 9.618 10.437 14.52 4.472 6.422 9.228 12.523 14.208 18.557C305.018 955.186 310.52 962.569 316 970c.564.762 1.127 1.525 1.708 2.311 7.793 10.542 15.546 21.113 23.292 31.689l-1 2c-5.309-5.69-10.567-11.367-15.438-17.438-3.365-4.184-6.894-8.145-10.562-12.062-4.423-4.728-8.605-9.577-12.66-14.629-2.198-2.697-4.45-5.334-6.73-7.962-5.188-5.981-10.147-12.067-14.926-18.382-1.962-2.591-3.953-5.156-5.961-7.711C265.54 917.401 257.639 906.821 250 896c-.513-.726-1.025-1.451-1.553-2.199-13.36-18.983-13.36-18.983-14.447-22.801 1.204-3.02 2.614-4.793 5.133-6.812.633-.512 1.266-1.024 1.918-1.552.684-.54 1.369-1.08 2.074-1.636.712-.57 1.424-1.139 2.158-1.726 6.809-5.415 13.746-10.656 20.747-15.82 1.966-1.451 3.927-2.909 5.888-4.368C279.467 833.489 287.12 828.122 295 823c-4.696-6.6-9.993-12.465-15.519-18.368-1.06-1.168-2.093-2.36-3.109-3.566-4.04-4.796-8.274-8.655-13.31-12.378-1.093-.824-1.093-.824-2.209-1.664-5.754-4.297-11.63-8.413-17.587-12.422-3.555-2.393-6.958-4.868-10.266-7.602 1.361-4.811 3.49-8.615 6.312-12.688.653-.956.653-.956 1.319-1.933.948-1.388 1.899-2.775 2.852-4.161 1.579-2.309 3.132-4.635 4.681-6.964C259.077 724.927 271.312 709.07 287 697"/><path fill="#c09e4d" d="M532 784c1.693.713 3.362 1.485 5.008 2.301.973.476 1.946.953 2.949 1.444 1.046.517 2.091 1.035 3.168 1.567 9.232 4.508 18.529 8.81 27.937 12.938C598.166 814.166 598.166 814.166 601 817c.744 8.008-1.625 15.508-3.625 23.187-.367 1.438-.734 2.876-1.101 4.315-2.489 9.717-5.15 19.379-7.969 29.006-1.209 4.127-2.333 8.271-3.43 12.429-1.86 7.051-3.848 14.059-5.875 21.063-.431 1.528-.862 3.057-1.293 4.586l-1.332 4.664c-.206.74-.412 1.479-.625 2.242-1.523 5.281-1.523 5.281-3.75 7.508 1.22-12.253 3.129-24.376 5.147-36.518 3.184-18.137 3.184-18.137 3.853-36.482-.303.592-.606 1.183-.918 1.793-2.559 4.826-4.989 8.581-9.082 12.207v-5c-.424.592-.848 1.183-1.285 1.793-3.804 5.125-7.319 8.793-12.715 12.207l-2-1c-2.725 0-5.41.269-8.125.5-1.096.093-2.191.186-3.32.281-1.265.108-1.265.108-2.555.219.66-.784 1.32-1.568 2-2.375 2.202-2.34 2.202-2.34 2-4.625-1.681-1.236-3.424-2.387-5.188-3.5-6.898-4.485-13.37-9.386-19.812-14.5-1.176-.922-1.176-.922-2.375-1.863-1.605-1.305-3.128-2.71-4.625-4.137v-3c3.957-1.338 7.916-2.67 11.875-4 1.128-.382 2.256-.763 3.418-1.156 1.615-.542 1.615-.542 3.262-1.094.995-.335 1.99-.67 3.015-1.016C537 834 537 834 539 834c-7.607-16.291-7.607-16.291-19-30 0 5.013 1.869 8.533 3.955 12.955 2.148 4.736 2.148 4.736 1.045 8.045-5.637-5.021-8.767-11.089-11.938-17.813-.401-.848-.802-1.697-1.216-2.571C509 798.414 509 798.414 509 795c2.624-2.432 5.706-4.282 8.688-6.25.816-.567 1.633-1.134 2.474-1.719l2.412-1.609c1.092-.733 1.092-.733 2.206-1.482 2.889-1.223 4.252-.871 7.22.06"/><path fill="#c09e4c" d="M467 573c3.86 17.44 3.86 17.44 3 24-10.016 12.434-36.992 15.257-52 17-39.254 4.154-85.316 6.336-121.398-12.234C295 600 295 600 294.758 596.742c.121-1.276.242-2.552.367-3.867.09-1.002.09-1.002.181-2.024.497-5.076 1.398-9.925 2.694-14.851 5.42.475 10.615 1.304 15.938 2.438 5.675 1.164 11.304 2.051 17.062 2.687.674.075 1.348.151 2.043.228 2.317.242 4.636.448 6.957.647.998.09 1.997.18 3.026.272 11.192.885 22.367.88 33.589.858 3.313-.005 6.625 0 9.938.007 14.73.005 29.45 0 44.009-2.512.789-.131 1.578-.262 2.391-.396 10.188-1.717 20.351-3.464 30.192-6.678C465 573 465 573 467 573"/><path fill="#c09f4d" d="M243 784c2.404 1.509 4.496 2.983 6.687 4.75.581.444 1.162.887 1.76 1.344 3.009 2.365 5.272 4.267 6.553 7.906-.456 1.856-.456 1.856-1.457 3.758l-1.112 2.133c-.41.737-.821 1.474-1.244 2.234-.408.755-.817 1.509-1.238 2.287-3.554 6.341-7.697 11.535-12.949 16.588l-1-2c.713-2.123.713-2.123 1.871-4.719.409-.932.819-1.864 1.24-2.824.438-.976.876-1.952 1.326-2.957.856-1.926 1.71-3.853 2.559-5.781.384-.857.767-1.713 1.162-2.596.965-2.052.965-2.052.842-4.123-11.4 15.955-11.4 15.955-17 34l22 8c-2.726 2.726-4.915 4.792-7.977 6.953-.749.534-1.498 1.067-2.27 1.617-.784.554-1.569 1.109-2.378 1.68-6.628 4.729-13.112 9.542-19.375 14.75l-3-2c-.111.651-.221 1.302-.335 1.972-.506 2.948-1.023 5.894-1.54 8.841-.174 1.024-.348 2.048-.527 3.103-.174.983-.348 1.966-.528 2.979-.157.906-.314 1.812-.476 2.745C214 887 214 887 212 890c-.014-.632-.028-1.263-.043-1.914-.453-8.5-2.911-15.197-5.957-23.086v23c-2.747-4.121-4.007-8.509-5.563-13.187-.316-.921-.632-1.843-.958-2.791-1.798-5.377-2.994-10.371-3.479-16.022h-2l1 11h-2l-1-10c-.527 14.092.472 27.643 2.577 41.567 1.028 6.878 1.713 13.475 1.423 20.433-2.157-3.235-2.828-5.684-3.77-9.441-.162-.641-.325-1.283-.493-1.943-.522-2.058-1.036-4.118-1.55-6.178q-1.005-4.0035-2.019-8.004c-.173-.686-.346-1.371-.525-2.077-1.272-4.997-2.638-9.964-4.038-14.927-2.771-9.865-5.285-19.791-7.737-29.739-.501-2.027-1.008-4.052-1.518-6.076-.75-2.97-1.485-5.942-2.217-8.916l-.697-2.733c-1.917-7.91-1.917-7.91-.436-11.966 6.315-6.528 16.742-9.557 25-13 11.208-4.68 22.234-9.392 32.871-15.273 1.033-.57 2.065-1.14 3.129-1.727 1.533-.855 1.533-.855 3.098-1.726 3.114-1.367 4.572-1.908 7.902-1.274"/><path fill="#c09e4d" d="m289 587-1 18c8.827 4.413 17.685 8.11 27.062 11.188 1.012.342 2.023.684 3.065 1.037 6.232 2.066 12.401 3.664 18.873 4.775v1h-12l18 5v1c-2.02.056-4.041.094-6.062.125-1.126.023-2.251.046-3.411.07-6.542-.1-13.06-1.262-19.527-2.195 4.126 1.104 8.252 2.206 12.378 3.308 1.4.374 2.801.749 4.201 1.123 10.691 2.86 10.691 2.86 21.421 5.569v1c-9.295-.656-18.55-1.545-27.812-2.562-1.277-.139-2.554-.278-3.87-.42-3.106-.338-6.212-.677-9.318-1.018 30.111 12.037 58.736 12.63 90.781 12.273 1.053-.01 2.105-.021 3.189-.032 6.124-.096 12.176-.442 18.273-1.026 4.253-.332 8.494-.3 12.757-.215-39.402 22.262-116.448 7.424-157.824-3.562-15.933-4.479-37.553-10.854-48.09-24.493-1.809-3.24-1.897-5.362-1.086-8.945 10.302-13.844 43.482-21 60-21"/><path fill="#b79951" d="M438.938 491.363C457.599 508.151 460.986 543.808 465 567c-2.906 1.257-4.796 2-8 2-2.021-5.233-2.617-10.288-3.25-15.812-3.164-29.952-3.164-29.952-19.039-54.102-4.539-2.881-8.31-3.955-13.711-3.086-6.243 2.071-10.944 5.67-15.875 9.938-8.601 7.42-16.472 12.119-28.109 11.429-9.678-1.178-15.191-5.623-22.586-11.625-9.073-7.457-9.073-7.457-20.266-9.511-7.049 2.506-11.001 10.661-14.059 17.019-3.916 9.743-5.541 19.371-7.167 29.688-.509 3.176-1.022 6.351-1.536 9.527-.121.752-.242 1.505-.366 2.28-.883 5.448-1.897 10.854-3.036 16.255-3.375-.547-5.082-1.055-8-3 1.211-10.325 2.988-20.359 5.312-30.5.283-1.285.566-2.57.858-3.894 7.617-33.61 7.617-33.61 20.83-42.606 8.827-4.943 17.854-5.077 27.594-2.711 1.748.517 3.476 1.105 5.187 1.735 16.397 5.838 30.466 3.339 46.489-2.395 11.143-3.968 22.778-3.224 32.668 3.734"/><path fill="#bf9e4d" d="M162 823c2.052 7.111 3.707 14.173 4.938 21.469l.503 2.91c.525 3.04 1.042 6.08 1.559 9.121.346 2.005.692 4.01 1.039 6.016 1.726 10.018 3.383 20.044 4.951 30.088.942 6.023 1.967 12.026 3.072 18.021.161.888.321 1.776.487 2.691 1.023 5.594 2.186 11.14 3.451 16.684-2.599-1.3-2.702-2.302-3.734-4.98-.325-.829-.649-1.658-.983-2.511-.341-.89-.682-1.78-1.033-2.697-.712-1.822-1.426-3.643-2.141-5.464-.353-.904-.707-1.807-1.072-2.738-2.221-5.589-4.628-11.099-7.037-16.61-.93 2.79-1.187 4.765-1.316 7.668-.063 1.339-.063 1.339-.127 2.705-.04.929-.079 1.858-.119 2.815-.065 1.41-.065 1.41-.131 2.849-.106 2.321-.208 4.642-.307 6.963-3.353-.576-4.938-1.593-7.25-4.062-.521-.548-1.042-1.096-1.578-1.661-.387-.421-.774-.843-1.172-1.277.318 9.781.871 19.446 2.375 29.125.114.756.228 1.512.345 2.29.891 5.401 2.42 10.441 4.28 15.585-4.582-1.527-5.765-4.896-8-9-3.27-7.043-5.145-14.164-6.688-21.75-.318-1.502-.318-1.502-.642-3.035-.992-4.726-1.895-9.448-2.67-14.215-7.066 25.773-12.586 51.838-18 78h-1c.301-4.336.641-8.668 1-13 .059-.723.118-1.447.179-2.192 1.892-22.483 4.949-45.83 11.883-67.37 1.926-6.397 2.553-12.676 3.188-19.313 1.051-10.585 3.039-20.705 5.625-31 .165-.669.33-1.339.5-2.028C153.858 823 153.858 823 162 823"/><path fill="#be9d4c" d="M609 823c4.137 1.532 6.699 4.344 9 8 3.738 8.489 5.96 17.585 8.188 26.562.179.717.359 1.433.544 2.171 2.724 11.013 3.865 21.387 3.904 32.765.095 7.413 1.196 11.941 4.817 18.451C645.324 930.417 648.456 965.338 648 987c-2.872-2.872-2.776-6.13-3.312-10-1.457-9.586-3.92-18.721-6.688-28-.257-.897-.513-1.794-.777-2.719-1.147-3.961-2.417-7.872-3.739-11.777-.274-.812-.548-1.623-.83-2.459-.553-1.632-1.111-3.262-1.673-4.891-.256-.751-.511-1.501-.774-2.275-.232-.675-.465-1.35-.704-2.045C629 921 629 921 629 918h-2c-.12.874-.24 1.748-.363 2.648C624.271 933.103 617.045 946.3 609 956c-1-2-1-2 .109-5.379a442 442 0 0 1 1.641-4.183c1.098-2.807 2.179-5.62 3.25-8.438.42-1.062.42-1.062.849-2.146 2.215-5.98 2.684-11.572 2.839-17.916l.103-2.913c.082-2.341.151-4.683.209-7.025h-2c-.092.674-.183 1.348-.277 2.043-.907 3.708-2.536 6.905-4.285 10.269-.33.646-.659 1.291-.999 1.956-.807 1.58-1.622 3.156-2.439 4.732h-1c.066-.78.131-1.56.199-2.364.822-10.499 1.12-20.985 1.363-31.511.044-1.767.087-3.534.131-5.301.106-4.274.208-8.549.307-12.824h-2c-.09.776-.18 1.552-.273 2.352-.97 4.87-2.634 9.372-4.352 14.023-.53 1.448-.53 1.448-1.07 2.924-3.108 8.385-6.579 16.574-10.305 24.701h-1c.646-5.724 1.596-11.296 2.785-16.93l1.098-5.291c.192-.922.385-1.844.583-2.793 3.893-18.665 7.568-37.363 11.058-56.107l.485-2.587c.298-1.594.595-3.19.888-4.786.991-5.281.991-5.281 2.103-7.506"/><path fill="#b79a53" d="M359.605 490.023C370.813 494.198 382.2 493.375 394 493l-1 3 2 2c-1.498.344-2.998.674-4.5 1-.835.186-1.671.371-2.531.563-7.374 1.086-13.08.125-20.094-2.063-5.093-1.573-9.471-2.845-14.875-2.5 12.155 11.299 12.155 11.299 27.625 16.25 3.868-.407 6.888-2.186 10.211-4.121C393 506 393 506 396 506v3h3v2c-9.738 5.896-18.231 7.885-29.438 5.188-5.774-2.208-10.387-6.594-15.132-10.446-9.073-7.457-9.073-7.457-20.266-9.512-7.049 2.507-11.001 10.662-14.059 17.02-3.916 9.743-5.541 19.371-7.167 29.688-.509 3.176-1.022 6.351-1.536 9.527-.121.752-.242 1.505-.366 2.28-.883 5.448-1.897 10.854-3.036 16.255-3.375-.547-5.082-1.055-8-3 1.211-10.325 2.988-20.359 5.312-30.5.283-1.285.566-2.57.858-3.895 7.617-33.609 7.617-33.609 20.83-42.605 10.258-5.745 21.798-5.222 32.605-.977"/><path fill="#b99b54" d="M476 582c19.126 1.645 45.893 5.019 60.688 18.438C538 603 538 603 538.188 605.812c-3.708 9.953-13.919 16.475-23.141 20.848-11.078 4.872-22.322 8.883-33.922 12.34-1.04.315-2.081.63-3.153.955-1.467.424-1.467.424-2.964.857-.87.254-1.74.508-2.636.77-2.5.44-3.992.228-6.372-.582.623-.257 1.245-.513 1.887-.777 2.679-1.11 5.354-2.232 8.029-3.354 1.461-.609 2.925-1.213 4.391-1.812 10.078-4.119 19.931-8.486 29.505-13.682.806-.431 1.611-.861 2.44-1.305 5.287-2.942 10.985-6.243 14.748-11.07.458-2.557.458-2.557 0-5-5.238-5.397-12.549-7.368-19.688-9-.716-.17-1.433-.339-2.172-.514-6.837-1.551-13.747-2.518-20.715-3.271l-2.452-.309c-.72-.079-1.439-.158-2.18-.24C478 590 478 590 476.752 588.193 476 586 476 586 476 582"/><path fill="#ba9b55" d="M259 895c8.634 10.744 17.13 21.542 24.879 32.945 3.828 5.513 7.986 10.772 12.121 16.055 15.399 19.715 30.31 39.753 45 60l-1 2c-5.309-5.69-10.567-11.367-15.438-17.438-3.365-4.184-6.894-8.145-10.562-12.062-4.423-4.728-8.605-9.577-12.66-14.629-2.198-2.697-4.45-5.334-6.73-7.962-5.18-5.971-10.132-12.047-14.903-18.35-2.641-3.49-5.34-6.932-8.039-10.377-5.426-6.93-10.775-13.86-15.668-21.182 1-2 1-2 3-3z"/><path fill="#b89953" d="M465 931c2.438.812 2.438.812 5 2l1 3c-2.662 2.692-5.331 5.378-8 8.062l-2.254 2.28c-4.14 4.158-8.365 8.119-12.812 11.945-3.296 2.92-6.355 6.069-9.434 9.213-3.716 3.794-7.443 7.501-11.469 10.969-4.223 3.642-8.128 7.551-12.031 11.531-4.604 4.694-9.286 9.172-14.268 13.46-1.983 1.76-3.727 3.63-5.42 5.66-4.384 5.15-9.075 9.62-14.312 13.88 1.652-3.92 4.304-6.89 7.062-10.06 1.004-1.17 2.007-2.34 3.008-3.51.498-.58.996-1.16 1.509-1.75 1.998-2.36 3.926-4.77 5.859-7.18 3.866-4.755 7.947-9.267 12.138-13.734 2.577-2.75 5.092-5.533 7.544-8.395 4.12-4.717 8.513-9.13 12.954-13.543.846-.845 1.693-1.69 2.565-2.56 2.68-2.675 5.364-5.347 8.049-8.018 1.813-1.808 3.626-3.617 5.439-5.426q5.976-5.961 11.958-11.916c1.974-1.967 3.945-3.937 5.915-5.908"/><path fill="#b19653" d="M307 674c1.782 2.672 2.734 4.978 3.751 7.989 3.188 9.34 7.763 17.506 12.858 25.929 1.774 2.948 3.265 5.816 4.391 9.082-3.596-3.494-6.835-7.111-10-11 .714 15.173 5.289 28.616 14.5 40.625.776 1.026.776 1.026 1.568 2.072 4.113 5.373 8.436 10.546 12.922 15.61 8.01 9.09 8.01 9.09 8.01 12.693-4.004-1.607-6.718-4.413-9.688-7.438-.529-.535-1.059-1.071-1.604-1.623-4.92-5.042-9.376-10.385-13.708-15.939q-1.317-1.6485-2.637-3.297C318.759 737.871 315.062 728.411 312 715c-.309-1.294-.309-1.294-.625-2.613-.497-2.123-.946-4.249-1.375-6.387-.174-.826-.348-1.653-.527-2.504-1.858-9.751-2.101-19.6-2.473-29.496"/><path fill="#b69855" d="M459 670h1c.28 8.436-.556 16.478-1.812 24.812-.183 1.236-.365 2.471-.553 3.744-3.496 23.217-3.496 23.217-7.635 32.444-.302.73-.603 1.459-.914 2.211C442.457 747.946 428.973 763.248 417 774h-3c10.621-13.848 10.621-13.848 14.75-17.75 10.561-10.106 15.399-23.168 18.562-37.125.264-1.101.528-2.202.799-3.336 1.097-4.696 2.049-8.945 1.889-13.789-.615.771-1.23 1.542-1.863 2.336-.809 1.003-1.617 2.006-2.449 3.039-.801.998-1.602 1.995-2.426 3.023C441 713 441 713 438 715c1.285-2.676 2.693-5.133 4.355-7.59 7.034-10.71 11.511-21.242 15.063-33.541C458 672 458 672 459 670"/><path fill="#0b0702" d="M351 494c7.043-.32 12.619 1.117 19.289 3.223 8.164 2.454 15.161 1.913 23.461.277 4.133-.798 8.016-1.5 12.25-1.5v2c-2.301 1.72-4.597 3.311-7 4.875-.648.434-1.297.869-1.965 1.316-13.323 8.785-13.323 8.785-20.762 7.465-9.752-2.815-18.211-10.594-25.273-17.656"/><path fill="#bc9c4f" d="M323 660c14.939-1.151 27.551 4.014 41 10-2.895 4.343-5.988 4.993-11 6-7.552.752-14.998 1.456-21.281-3.367-3.157-2.999-6.289-6.003-8.719-9.633z"/><path fill="#bc9c50" d="M443 659c-1.694 6.945-5.574 10.987-10.938 15.437-6.275 3.25-15.149 2.536-21.812.879-2.188-.816-2.188-.816-5.25-2.316v-4c3.119-1.307 6.246-2.592 9.375-3.875.87-.365 1.74-.73 2.637-1.106 8.609-3.507 16.682-5.364 25.988-5.019"/><path fill="#140c03" d="m294 834 2 1c-6.218 5.761-12.511 11.323-19.113 16.645-2.629 2.145-5.209 4.335-7.781 6.547-5.801 4.982-11.719 9.583-18.106 13.808 1.335 3.726 3.008 6.588 5.375 9.75 2.299 3.193 4.155 6.164 5.625 9.812 2.103 5.165 5.433 9.2 9 13.438l-2 4c-7.414-9.852-14.344-19.917-20.938-30.337-1.001-1.567-2.03-3.116-3.062-4.663.07-3.089 1.055-4.056 3.238-6.27 13.518-11.181 27.395-21.922 42.305-31.191 2.315-1.322 2.315-1.322 3.457-2.539"/><path fill="#b19860" d="M333 642c1.896.292 3.792.583 5.688.875 1.694.261 3.388.521 5.083.775 1.677.263 3.35.547 5.022.841 7.759 1.312 15.225 1.791 23.086 1.739 1.761 0 1.761 0 3.557-.001 2.462-.003 4.923-.011 7.384-.023 3.737-.018 7.473-.021 11.209-.02 2.409-.005 4.817-.011 7.225-.018 1.65-.002 1.65-.002 3.334-.003 6.265-.038 12.437-.34 18.674-.946 4.246-.34 8.481-.304 12.738-.219-25.953 14.663-71.766 9.139-100 6v-1h62c-4.847-.124-9.694-.248-14.688-.375-35.598-1.056-35.598-1.056-50.312-5.625z"/><path fill="#bd9f58" d="M353 518h1c.804 12.145-2.752 18.177-10.488 27.371-4.486 4.695-9.916 9.528-16.512 10.629-2.333.039-4.667.045-7 0 1.282-5.982 4.134-8.666 9-12 1.839-1.048 3.694-2.067 5.562-3.062 8.886-4.734 13.262-9.811 17.438-18.938.666-2.213.666-2.213 1-4"/><path fill="#b69958" d="M316 746c1.939 2.908 2.56 4.73 3.375 8.062C325.032 775.242 340.75 789.097 357 803c-8.173 0-18.178-10.695-23.863-16.023-2.231-2.128-2.231-2.128-5.262-4.352-7.305-6.67-13.292-15.098-14.187-25.125.36-4.035 1.218-7.603 2.312-11.5"/><path fill="#b79c5d" d="M450 745c3.518 5.277 2.475 11.864 2 18-3.216 15.907-22.139 29.189-34.812 37.688-1.724 1.112-3.451 2.22-5.188 3.312l-2-1c.822-.75 1.645-1.5 2.492-2.273 2.948-2.698 5.88-5.412 8.802-8.137 1.478-1.378 2.961-2.75 4.444-4.121C438.833 775.938 446.698 762.812 450 745"/><path fill="#b59957" d="m429 967 1 2 2 1c-.495 4.094-1.335 5.767-4.562 8.312-4.429 3.648-8.423 7.595-12.438 11.688-4.604 4.694-9.286 9.172-14.268 13.46-1.983 1.76-3.727 3.63-5.42 5.66-4.384 5.15-9.075 9.62-14.312 13.88 1.652-3.92 4.304-6.89 7.062-10.06 1.004-1.17 2.007-2.34 3.008-3.51.498-.58.996-1.16 1.509-1.75 1.998-2.36 3.926-4.77 5.859-7.18 4.37-5.375 9.043-10.428 13.769-15.488 2.255-2.419 4.448-4.881 6.605-7.387 3.219-3.725 6.66-7.194 10.188-10.625"/><path fill="#b2975b" d="m319 724 2 1c.48 1.466.907 2.949 1.312 4.438 4.233 12.188 13.894 22.964 22.61 32.246C355 772.917 355 772.917 355 777c-4.004-1.607-6.718-4.413-9.688-7.438l-1.605-1.623c-4.919-5.042-9.375-10.385-13.707-15.939q-1.317-1.6485-2.637-3.297C315.166 733.337 315.166 733.337 316 725z"/><path fill="#b6985a" d="M330 914h3l2 3 4-2c1.671 2.507 2.518 4.184 3.436 6.965.264.791.527 1.582.798 2.397.416 1.275.416 1.275.84 2.576.288.876.576 1.752.873 2.656.607 1.851 1.211 3.704 1.813 5.557.925 2.841 1.864 5.677 2.804 8.513.588 1.799 1.175 3.599 1.76 5.398.283.851.567 1.701.859 2.576.38 1.187.38 1.187.769 2.397l.688 2.106C354 958 354 958 353 961c-.246-.494-.492-.989-.746-1.498-2.56-5.144-5.124-10.286-7.689-15.427-.957-1.919-1.914-3.839-2.869-5.759-1.373-2.759-2.749-5.516-4.126-8.273-.64-1.289-.64-1.289-1.294-2.604-.4-.801-.801-1.602-1.213-2.427-.351-.703-.702-1.407-1.063-2.133-1.085-2.114-1.085-2.114-3-4.879-.625-2.188-.625-2.188-1-4"/><path fill="#b59b5d" d="M298 949h2c1.445 1.63 1.445 1.63 3.125 3.918.929 1.254.929 1.254 1.877 2.533.989 1.355.989 1.355 1.998 2.737 1.365 1.846 2.731 3.693 4.098 5.539.668.905 1.335 1.81 2.024 2.743 2.397 3.23 4.847 6.417 7.316 9.592 4.301 5.567 8.451 11.23 12.562 16.938 1.499 2.063 2.999 4.126 4.5 6.188 1.75 2.402 1.75 2.402 3.5 4.812l-1 2c-5.309-5.69-10.567-11.367-15.438-17.438-3.931-4.889-8.105-9.494-12.402-14.06C304 965.807 304 965.807 304 963l3 1c-1.34-4.765-4.235-7.704-7.539-11.23C298 951 298 951 298 949"/><path fill="#bc9d57" d="m603 851 2 1c.042 2.333.041 4.667 0 7l-1 1c-.231 1.347-.412 2.704-.562 4.062-.145 1.3-.289 2.599-.438 3.938h-2c.023.964.046 1.928.07 2.922.027 1.895.027 1.895.055 3.828.023 1.253.046 2.506.07 3.797-.18 3.181-.505 4.818-2.195 7.453l4 1c-.579 4.226-1.574 7.832-3.215 11.766-.439 1.054-.878 2.109-1.33 3.195-.459 1.085-.919 2.171-1.393 3.289l-1.38 3.336c-3.421 8.153-3.421 8.153-5.682 10.414.673-6.032 1.718-11.905 2.961-17.844l.579-2.81c.609-2.949 1.222-5.898 1.835-8.846.801-3.864 1.601-7.729 2.398-11.594.193-.931.385-1.862.583-2.822 1.646-8.01 3.178-16.039 4.644-24.084"/><path fill="#b09758" d="M629 920h3c2.66 5.563 3.962 10.933 5 17l2-3 2-2c5.115 31.748 5.115 31.748 6.312 42.688.076.691.152 1.382.23 2.095.35 3.418.53 6.781.458 10.217-2.872-2.872-2.776-6.13-3.312-10-1.457-9.585-3.915-18.724-6.688-28-.257-.886-.513-1.771-.777-2.684-2.583-8.818-5.445-17.558-8.223-26.316"/><path fill="#ac9358" d="M375 682h1c-.005 1.004-.01 2.008-.016 3.042-.018 3.736-.029 7.473-.039 11.21-.005 1.615-.012 3.23-.02 4.844-.013 2.326-.018 4.652-.023 6.978-.005.718-.01 1.436-.015 2.176-.001 3.713.224 7.14 1.113 10.75-4.308-1.566-8.062-3.683-12-6-.502-6.403-.502-6.403 1.883-9.238 2.592-3.381 3.376-6.682 4.242-10.762 1-4.477 2.014-8.785 3.875-13"/><path fill="#b59a5c" d="m287 697 2 1c-1.052.982-1.052.982-2.125 1.984-6.721 6.465-12.039 12.983-16.875 21.016-.679 1.115-1.359 2.23-2.059 3.379-4.728 7.926-8.505 16.056-11.941 24.621h-1c.422-5.07 1.598-8.656 4.062-13.105.965-1.95 1.486-3.773 1.938-5.895h2l-1-2c-3.426 3.175-3.426 3.175-6 7h-2l-2 4c0-4.068 2.005-6.272 4.312-9.438.448-.619.896-1.239 1.358-1.877 4.664-6.33 9.865-12.044 15.33-17.685.831-.86 1.663-1.72 2.52-2.605 3.653-3.715 7.285-7.283 11.48-10.395"/><path fill="#a68e5c" d="M289 652h1l1 15 2-7c3.023 3.023 2.212 6.51 2.25 10.562.189 6.892.936 11.041 5.449 16.469 2.332 3.53 1.691 6.879 1.301 10.969-5.639-4.512-7.5-10.382-10-17-.3-.728-.601-1.457-.91-2.207-3.092-7.628-4.667-15.566-4.09-23.793z"/><path fill="#b89c5a" d="M483 701c3.31 1.438 5.439 3.225 7.938 5.812.648.667 1.296 1.333 1.964 2.02.693.715 1.385 1.431 2.098 2.168.813.798 1.627 1.596 2.465 2.418 2.544 2.591 4.862 5.271 7.16 8.082.755.918 1.511 1.836 2.289 2.781 1.911 2.49 3.536 4.994 5.086 7.719l-3 1 1 3.188c.84 3.201 1.198 5.553 1 8.812-1.469-2.203-2.692-4.25-3.883-6.59-6.382-12.394-13.402-23.669-22.429-34.328C483 702 483 702 483 701"/><path fill="#ad965f" d="M476 651h2c4.333 8.666-1.402 22.07-4.203 30.711-2.159 5.97-4.214 10.833-8.797 15.289h-1c.296-4.545 1.109-7.308 3.5-11.188 4.208-7.772 3.436-17.186 3.5-25.812l2 1c.625 2.562.625 2.562 1 5 1.941-1.941 1.399-5.473 1.562-8.062.084-1.291.168-2.581.254-3.911.061-.999.122-1.998.184-3.027"/><path fill="#b79b53" d="M171 882c2.855 2.855 2.976 6.131 3.656 9.973.148.797.296 1.594.448 2.415.473 2.557.935 5.116 1.396 7.674.463 2.534.929 5.067 1.396 7.6q.435 2.364.861 4.728c.953 5.235 2.055 10.424 3.243 15.61-2.606-1.303-2.722-2.334-3.77-5.016-.329-.833-.658-1.667-.998-2.526-.344-.894-.689-1.787-1.044-2.708-.531-1.352-.531-1.352-1.073-2.731-1.046-2.67-2.082-5.344-3.115-8.019l-.861-2.219c-1.392-3.589-2.773-7.182-4.139-10.781l3-1z"/><path fill="#ab945b" d="M131 931h1c2.895 13.434.855 24.329-2.375 37.5-.445 1.902-.888 3.804-1.328 5.707-1.071 4.605-2.174 9.201-3.297 13.793h-1c.301-4.336.641-8.668 1-13 .089-1.085.089-1.085.179-2.192C126.363 958.736 128.527 944.9 131 931"/><path fill="#1a0f04" d="M468 834c2.891 1.371 5.477 2.932 8.098 4.766.793.554 1.585 1.107 2.402 1.678.846.596 1.691 1.192 2.562 1.806.875.615 1.75 1.229 2.651 1.863 6.327 4.464 12.607 8.992 18.849 13.575.803.587 1.606 1.174 2.432 1.78.746.551 1.492 1.101 2.26 1.669.653.481 1.306.963 1.979 1.459 1.749 1.389 3.332 2.689 4.767 4.404-.312 2.688-.312 2.688-1 5-.908-.784-1.815-1.567-2.75-2.375-7.479-6.397-14.987-12.719-22.812-18.687-4.25-3.243-8.465-6.519-12.626-9.876-.88-.71-1.76-1.42-2.667-2.152C470 837 470 837 468 834"/><path fill="#b19657" d="M507.188 624.75c.598.413 1.196.825 1.812 1.25l3 1c-9.022 6.015-20.392 8.873-30.688 11.938-1.051.318-2.102.637-3.186.965-.994.289-1.988.577-3.013.874-.889.261-1.778.521-2.694.789-2.528.454-4.013.259-6.419-.566.623-.257 1.245-.513 1.887-.777 7.014-2.906 14.005-5.867 20.988-8.848l2.737-1.164c3.698-1.582 7.314-3.173 10.884-5.031C505 624 505 624 507.188 624.75"/><path fill="#a88f50" d="M476 582c8.802.614 17.36 2.295 26 4-2.619 1.746-4.038 2.387-7 3l1 3c-2.699-.229-5.397-.469-8.094-.727-1.706-.16-3.414-.307-5.125-.421-1.843-.164-1.843-.164-4.781-.852-2.239-2.823-2-4.279-2-8"/><path fill="#b79d5c" d="m458 576-1 3c-1.423.124-1.423.124-2.875.25-1.547.371-1.547.371-3.125.75-1.222 1.986-1.222 1.986-2 4-.614-.005-1.228-.01-1.861-.016-2.838-.021-5.676-.034-8.514-.046-.966-.009-1.931-.017-2.926-.026-5.558-.019-10.971.243-16.493.863-2.785.284-5.533.323-8.331.287-.931-.009-1.861-.018-2.82-.027-.678-.011-1.356-.023-2.055-.035v-1c.809-.1 1.619-.2 2.452-.304 14.505-1.814 28.894-3.673 43.153-6.962C455 576 455 576 458 576"/><path fill="#bea35f" d="m394 493-1 3 2 2c-16.321 3.746-16.321 3.746-24 0-.66-2.078-.66-2.078-1-4 3.062-.168 6.125-.335 9.188-.5.864-.048 1.728-.095 2.619-.145 4.069-.218 8.116-.423 12.193-.355"/><path fill="#b79d5d" d="M191 883c2.042 3.063 2.389 4.426 2.852 7.973.128.983.257 1.965.39 2.978.127 1.027.253 2.054.383 3.111l.406 3.03c.807 6.338 1.144 12.521.969 18.908-2.949-4.424-3.812-9.261-5.125-14.375-.416-1.562-.416-1.562-.84-3.156-.262-1.008-.523-2.016-.793-3.055-.238-.918-.477-1.837-.723-2.783-.516-2.616-.615-4.972-.519-7.631l2-1c.652-2.025.652-2.025 1-4"/><path fill="#af9867" d="m441 739 3 1c-1.38 4.004-3.215 6.77-5.938 10-.797.951-1.595 1.903-2.417 2.883-.428.503-.855 1.006-1.295 1.524-1.413 1.667-2.814 3.344-4.213 5.023-.962 1.148-1.924 2.297-2.887 3.445-.671.802-.671.802-1.355 1.621-2.817 3.335-5.644 6.587-8.895 9.504h-3c10.621-13.848 10.621-13.848 14.75-17.75 5.12-4.849 9.247-10.878 12.25-17.25"/><path fill="#b99d5b" d="M250 799c1 3 1 3 .062 5.188-.35.598-.701 1.196-1.062 1.812h2l1-3h2c-2.114 9.118-7.278 16.644-15 22 1.827-6.019 4.107-11.743 6.625-17.5.313-.719.627-1.437.949-2.178 2.295-5.191 2.295-5.191 3.426-6.322m-2 7 1 2z"/><path fill="#b69a54" d="M190 855h1c.226 4.562.428 9.124.625 13.688.064 1.293.129 2.587.195 3.919.052 1.248.103 2.495.157 3.78.052 1.147.104 2.293.158 3.475-.139 3.229-.574 5.316-2.135 8.138l-3 1-3-12 4-3c.724-2.101.724-2.101.828-4.449.077-.848.155-1.695.234-2.569l.188-2.67c.077-.892.155-1.785.234-2.705.189-2.201.36-4.403.516-6.607"/><path fill="#af9458" d="M322.953 957.633c2.622 1.751 3.407 3.422 4.797 6.242 3.298 6.385 7.18 12.206 11.25 18.125l-1 2c-4.761-5.189-9.45-10.437-14-15.813-.743-.872-1.485-1.745-2.25-2.644-1.8-2.616-2.391-4.418-2.75-7.543 2-1 2-1 3.953-.367"/><path fill="#af9353" d="m603 851 2 1c.042 2.333.041 4.667 0 7l-1 1c-.231 1.347-.412 2.704-.562 4.062-.145 1.3-.289 2.599-.438 3.938h-2c.035.918.07 1.836.105 2.781.258 11.68.258 11.68-2.304 17.266-1.56 3.804-2.098 7.918-2.801 11.953h-2c1.517-10.679 3.538-21.233 5.625-31.812.328-1.676.656-3.351.984-5.026Q601.8015 857.081 603 851"/><path fill="#a89464" d="M577 890c3.558 6.985 3.849 12.813 1.469 20.277-.646 1.891-1.302 3.777-1.969 5.661l-1.012 2.939c-.82 2.378-1.649 4.752-2.488 7.123-1.248-4.177-.526-7.618.312-11.812 1.52-8.037 2.684-16.071 3.688-24.188"/><path fill="#b2934f" d="M330 914h3l2 3 4-2c1.903 2.855 2.462 4.419 3.125 7.688.168.808.335 1.616.508 2.449.121.615.242 1.229.367 1.863h-3l-3 2-5-11h-2z"/><path fill="#b69c5d" d="M516 801c3.236 3.746 4.894 8.036 6.75 12.562.329.768.657 1.536.996 2.327.306.739.611 1.478.926 2.24.279.671.559 1.342.847 2.033C526 822 526 822 525 825c-5.389-5.421-13-13.942-13-22 3 1 3 1 4.188 3.062.268.64.536 1.279.812 1.938z"/><path fill="#b79d65" d="m407 991 2 1-2 2c-.381 1.12-.381 1.12-.77 2.262-1.611 3.585-4.107 5.898-6.918 8.548-1.09 1.06-2.179 2.12-3.265 3.18-.525.51-1.051 1.02-1.592 1.55-1.899 1.9-3.654 3.91-5.393 5.96-2.449 2.88-4.989 5.26-8.062 7.5 1.652-3.92 4.304-6.89 7.062-10.06.994-1.16 1.986-2.31 2.977-3.47.497-.58.993-1.16 1.505-1.76 2.892-3.4 5.683-6.89 8.483-10.37 1.889-2.241 3.869-4.302 5.973-6.34"/><path fill="#170e03" d="M331 917c2.725 1.362 3.085 2.883 4.383 5.621.667 1.403.667 1.403 1.347 2.834.461.984.921 1.968 1.395 2.983.468.98.936 1.96 1.418 2.97C343 938.73 343 938.73 343 941l-3 2-2 3c-.984-3.707-1.961-7.416-2.938-11.125-.277-1.047-.555-2.093-.841-3.172-.268-1.018-.535-2.037-.811-3.086-.246-.932-.492-1.864-.746-2.825-.694-2.916-1.204-5.83-1.664-8.792"/><path fill="#a58f58" d="M333 642c1.896.292 3.792.583 5.688.875 1.697.261 3.394.521 5.092.775 1.648.26 3.293.545 4.934.845 9.538 1.652 18.948 1.94 28.598 2.13q2.4405.057 4.881.117c3.936.095 7.871.179 11.807.258v1c-20.525 1.133-41.125 2.172-61-4z"/><path fill="#a8905e" d="M391 969c1.142 3.811.567 5.344-1 9-.376 1.992-.72 3.992-1 6l4-1c-3.803 5.192-7.762 10.156-12 15-1-2-1-2-.104-4.706.466-1.12.932-2.241 1.413-3.396.749-1.817.749-1.817 1.513-3.671.539-1.284 1.077-2.568 1.616-3.852.535-1.291 1.069-2.583 1.603-3.875 1.313-3.17 2.633-6.336 3.959-9.5"/><path fill="#ae9559" d="M138 902c2 3 2 3 1.574 5.883-.439 1.605-.439 1.605-.886 3.242-.285 1.075-.57 2.15-.864 3.258C137 917 137 917 136 918c-.235 1.43-.414 2.87-.562 4.312-.084.78-.168 1.56-.254 2.364-.267 3.373-.176 6.369.441 9.699.4 3.863-.154 6.077-1.625 9.625h-1c-2.6-14.623.465-28.042 5-42"/><path fill="#bda260" d="M610 882h1v32h2l1-4c1 3 1 3-.434 6.355-.657 1.283-1.326 2.56-2.004 3.833-.338.654-.676 1.308-1.025 1.982-.837 1.615-1.686 3.223-2.537 4.83h-1c.141-2.25.288-4.5.438-6.75.081-1.253.162-2.506.246-3.797.316-3.453.316-3.453.816-5.275.652-2.84.72-5.564.816-8.475.042-1.205.084-2.41.127-3.652l.119-3.801c.044-1.27.087-2.539.131-3.848.106-3.134.208-6.268.307-9.402"/><path fill="#96835a" d="M643 950h1c.574 4.465 1.143 8.931 1.709 13.397q.2895 2.277.582 4.554c.281 2.186.558 4.374.834 6.561.087.674.175 1.348.265 2.043.439 3.505.705 6.913.61 10.445-2.937-2.937-2.867-6.416-3.437-10.375-1.006-6.577-2.272-12.935-4.11-19.34C640 955 640 955 641 952z"/><path fill="#ae9457" d="M483 701c3.31 1.438 5.439 3.225 7.938 5.812.693.713 1.387 1.426 2.101 2.161.647.669 1.294 1.338 1.961 2.027.928.908 1.856 1.815 2.812 2.75 1.934 1.989 3.594 3.984 5.188 6.25l-4 4c-.401-.666-.802-1.333-1.215-2.02-3.929-6.371-8.22-12.155-13.062-17.863C483 702 483 702 483 701"/><path fill="#c1a254" d="M311 692c1.875.312 1.875.312 4 1 2.296 3.445 2.54 5.938 3 10h-2v7h-2c-3.619-5.428-3.111-11.683-3-18"/><path fill="#b69c5d" d="M293 678h2c3.989 4.828 7.489 9.76 7.438 16.188-.145 1.258-.289 2.516-.438 3.812-4.621-3.979-7.132-8.181-9-14-.25-3.562-.25-3.562 0-6"/><path fill="#b19b63" d="M320 982c2.262-.301 2.262-.301 5 0 1.957 2.02 1.957 2.02 3.812 4.812.677.993 1.354 1.986 2.051 3.008.705 1.05 1.411 2.099 2.137 3.18 1.492 2.069 2.991 4.131 4.5 6.188 1.167 1.602 2.333 3.212 3.5 4.812l-1 2c-20-21.421-20-21.421-20-24"/><path fill="#9f8b59" d="M174 899h2c.111.619.221 1.239.335 1.877.512 2.854 1.026 5.707 1.54 8.561.174.973.348 1.947.527 2.951 1.067 5.906 2.255 11.761 3.598 17.611-2.593-1.296-2.701-2.295-3.727-4.965-.464-1.2-.464-1.2-.937-2.424-.317-.841-.634-1.682-.961-2.549-.487-1.255-.487-1.255-.984-2.537C173 911.283 173 911.283 173 909h2z"/><path fill="#1e1305" d="M478 865c6.752 1.859 13.614 4.401 19 9v4c-4.62-.943-7.891-3.337-11.75-5.938-.697-.455-1.395-.911-2.113-1.38-1.752-1.171-3.45-2.421-5.137-3.682z"/><path fill="#98885d" d="M326 631c8.767 1.602 17.371 3.795 26 6v1c-10.698-.73-21.342-1.841-32-3v-1c.804-.124 1.609-.248 2.438-.375.845-.206 1.691-.412 2.562-.625z"/><path fill="#9c8854" d="M323 623c2.773.617 5.543 1.244 8.312 1.875l2.381.527c.758.174 1.515.348 2.295.528.697.157 1.393.314 2.111.476C340 627 340 627 343 629c-9.23.249-17.919-.311-27-2v-2h7z"/><path fill="#b79850" d="M483 583c2.314.281 4.626.575 6.938.875 1.287.162 2.575.325 3.902.492 1.564.313 1.564.313 3.16.633l1 2h-6v2c-1.417.027-2.833.047-4.25.062-1.183.018-1.183.018-2.391.036-2.266-.094-4.188-.466-6.359-1.098l1-3h3z"/><path fill="#ba994c" d="M372 703c.872 2.995 1.108 5.636 1.062 8.75-.009.799-.018 1.598-.027 2.422-.011.603-.023 1.206-.035 1.828l-8-1v-7l6-1z"/><path fill="#1d1206" d="M409 964c0 3.254-.364 3.915-2.117 6.504-.442.658-.884 1.316-1.34 1.994-.468.681-.936 1.363-1.418 2.064-.46.686-.92 1.371-1.395 2.077-1.799 2.657-3.455 5.086-5.73 7.361h-2c-1.698 1.294-3.367 2.625-5 4 1.63-3.783 4.038-6.618 6.688-9.75.663-.787.663-.787 1.341-1.591 3.606-4.264 7.262-8.484 10.971-12.659"/><path fill="#a08b59" d="M307 674c2.265 3.398 3.389 6.839 4.625 10.688.229.701.459 1.403.695 2.126.564 1.728 1.123 3.457 1.68 5.186h-3v6l-2-1c-.93-2.79-1.187-4.765-1.316-7.668-.042-.893-.084-1.785-.127-2.705-.04-.929-.079-1.858-.119-2.815-.044-.94-.087-1.88-.131-2.849-.106-2.321-.208-4.642-.307-6.963"/><path fill="#b79c5d" d="M354 489c3.659.689 7.224 1.568 10.812 2.562 1.464.405 1.464.405 2.958.817 1.104.307 1.104.307 2.23.621l1 5c-1.898-.427-3.794-.867-5.688-1.312-1.055-.244-2.111-.488-3.199-.739-3.134-.956-5.494-1.981-8.113-3.949z"/><path fill="#a58b4f" d="M131 931h1c2.665 16.708 2.665 16.708 0 25-3.49-5.235-3.402-11.869-2.613-18.012.473-2.352.993-4.67 1.613-6.988"/><path fill="#ba9f5e" d="M328 742c5.046 4.78 6.915 8.448 9 15h-3c-1.696-1.969-3.195-3.887-4.688-6-.415-.572-.831-1.145-1.259-1.734-1.027-1.416-2.041-2.84-3.053-4.266 1-2 1-2 3-3"/><path fill="#af9860" d="M484 720c7.754 6.269 14.814 13.432 20 22h-3c-1.395-1.539-1.395-1.539-2.812-3.625-2.76-3.887-5.739-7.09-9.188-10.375l-3 3z"/><path fill="#c1a255" d="m458 576-1 3c-1.423.124-1.423.124-2.875.25-3.23.401-3.23.401-4.5 2.812-.206.64-.412 1.279-.625 1.938h-7v-2l-2-1v-2c2.437-.504 4.874-1.003 7.312-1.5.691-.143 1.381-.286 2.092-.434 2.921-.592 5.607-1.066 8.596-1.066"/><path fill="#ad955d" d="M615 934h1v5l3 1c-2.747 5.916-5.935 10.905-10 16-1-2-1-2 .18-5.555.557-1.443 1.123-2.883 1.695-4.32q.843-2.151 1.68-4.305c.252-.636.505-1.273.765-1.929.699-1.943 1.212-3.881 1.68-5.891"/><path fill="#b49d69" d="M339 788c2.941 1.335 5.108 2.825 7.453 5.039.619.58 1.238 1.16 1.875 1.758.634.603 1.269 1.206 1.922 1.828.65.611 1.299 1.222 1.969 1.852 1.597 1.503 3.191 3.011 4.781 4.523-4.046 0-6.265-1.989-9.438-4.25-.572-.396-1.145-.791-1.736-1.199-3.243-2.277-6.122-4.654-8.826-7.551h2z"/><path fill="#b89c58" d="M619 921h1v8l4 1-5 10-3-1c-.365-6.573.864-11.795 3-18"/><path fill="#b39a5c" d="M353 518h1c.554 11.522.554 11.522-3 17h-7c.398-.557.797-1.114 1.207-1.688 3.456-4.977 5.908-9.553 7.793-15.312"/><path fill="#a79361" d="M459 670h1c.28 7.9-.485 15.247-2 23h-1l-1-7h-1c.392-5.955 1.371-10.628 4-16"/><path fill="#ab945f" d="M488.5 633.813c.495.391.99.783 1.5 1.187-3.672 2.448-7.236 3.449-11.438 4.688-1.145.356-1.145.356-2.314.72-.741.22-1.481.44-2.244.666-.672.202-1.344.404-2.037.612-2.267.362-3.797.006-5.967-.686 2.933-1.237 5.87-2.465 8.812-3.68 1.883-.779 3.76-1.571 5.626-2.39 5.013-2.108 5.013-2.108 8.062-1.117"/><path fill="#bba46e" d="m287 697 2 1c-.748.724-1.495 1.449-2.266 2.195l-2.984 2.93c-.491.474-.982.949-1.488 1.437-2.553 2.519-4.443 4.727-6.371 7.805-.624.869-1.248 1.738-1.891 2.633h-4c1.563-3.771 3.921-6.156 6.812-9l2.583-2.562c2.445-2.288 4.96-4.387 7.605-6.438"/><path fill="#0f0700" d="M419 985c0 4.193-2.226 6.122-5 9-6.34 6-6.34 6-9 6-.248.58-.495 1.15-.75 1.75-1.417 2.55-3.126 4.27-5.25 6.25l-3-1c4.888-4.99 9.835-9.812 15.137-14.359 2.753-2.424 5.302-5.016 7.863-7.641"/><path fill="#261705" d="m278 866 2 1c-2.069 2.203-4.153 4.387-6.25 6.562-.88.943-.88.943-1.777 1.905-.574.59-1.148 1.179-1.739 1.787-.523.55-1.047 1.1-1.587 1.666-1.647 1.08-1.647 1.08-3.849.752-.593-.222-1.187-.444-1.798-.672 1.501-4.057 3.857-5.449 7.5-7.625 3.993-2.377 3.993-2.377 7.5-5.375"/><path fill="#b79d5d" d="M482 744c2.035 2.035 2.638 3.234 3.625 5.875.26.678.521 1.356.789 2.055C487 754 487 754 487 758l-3 2-2 4z"/><path fill="#9f8c5e" d="M476 651h2c2.688 5.375.88 12.542-.367 18.152C477 671 477 671 475 673z"/><path fill="#a7925e" d="M593 901h5c-1.936 6.205-4.256 12.108-7 18h-1c.676-6.082 1.736-12.013 3-18"/><path fill="#aa945e" d="M203 864h2l1 24c-1.594-2.391-2.653-4.308-3.687-6.938-.272-.669-.544-1.338-.825-2.027-.581-2.423-.203-3.67.512-6.035.212-1.58.399-3.164.563-4.75.083-.799.167-1.598.253-2.422.061-.603.122-1.206.184-1.828"/><path fill="#b69c60" d="M328 776c4.526 3.678 8.394 7.411 12 12l-1 2c-3.455-.256-4.274-1.286-6.75-3.875C330 783 330 783 330 780c-.95-2.15-.95-2.15-2-4"/><path fill="#988760" d="M317 698c2.967 3.559 5.459 7.198 7.813 11.188l1.894 3.167c.427.873.853 1.746 1.293 2.645l-1 2-9-11-2 3c-.089-3.832.121-7.266 1-11"/><path fill="#bda05b" d="M140 912h1c-.584 8.316-2.738 16.015-5 24h-1c-.966-2.802-1.739-5.082-2-8 1.688-2.875 1.688-2.875 4-6 1.192-3.284 2.118-6.621 3-10"/><path fill="#b69a56" d="m316 628 10 3-1 3h-12v-3h3z"/><path fill="#c0a259" d="m456 533 2 2c-.023 2.164-.023 2.164-.375 4.625-.111.817-.222 1.635-.336 2.477-.095.626-.191 1.253-.289 1.898h-2v7c-1.801-3.1-2.296-5.425-2.312-9-.017-.846-.034-1.691-.051-2.562.431-2.891 1.458-4.266 3.363-6.438"/><path fill="#bda265" d="m401 978 4 2c-.759.82-1.519 1.64-2.301 2.484-1.004 1.089-2.008 2.177-3.011 3.266-.5.539-1 1.078-1.514 1.633-2.554 2.773-4.985 5.539-7.174 8.617l-2-1c.531-.724 1.062-1.449 1.609-2.195 3.562-4.875 7.105-9.739 10.391-14.805"/><path fill="#a89567" d="M327 966c5.085 4.469 8.888 9.998 12 16l-1 2c-1.44-1.581-2.877-3.165-4.312-4.75-.801-.882-1.602-1.763-2.426-2.672-3.76-4.286-3.76-4.286-5.262-6.578.312-2.25.312-2.25 1-4"/><path fill="#a78f56" d="M147 851c2 3 2 3 1.355 6.512-.376 1.395-.766 2.787-1.167 4.176-1.529 5.45-2.6 10.674-3.188 16.312h-2c.396-9.351 2.576-18.014 5-27"/><path fill="#bfa35d" d="M375.562 510.812c.806.172 1.612.343 2.442.52C380 512 380 512 381 514l-3 1-1 1c-5.529.235-5.529.235-8-1v-4c2.598-1.299 3.76-.813 6.562-.188"/><path fill="#988860" d="M289 652h1c.225 3.124.427 6.249.625 9.375.064.889.129 1.779.195 2.695.052.851.103 1.702.157 2.578.052.786.104 1.571.158 2.381C291 671 291 671 289 673c-1.398-6.09-2.439-11.741-2-18z"/><path fill="#bca161" d="M283 718c1.308 2.615.766 3.564.004 6.352-.229.85-.458 1.701-.693 2.578-.247.889-.494 1.779-.749 2.695-.242.897-.485 1.794-.736 2.719-.602 2.22-1.211 4.439-1.826 6.656h-1l1-11-4 1c.41-.543.82-1.085 1.242-1.645.539-.715 1.078-1.43 1.633-2.167.534-.708 1.067-1.416 1.617-2.145 1.216-1.648 2.372-3.339 3.508-5.043"/><path fill="#a28c54" d="M467 573c.532 2.415 1.051 4.831 1.562 7.25.152.682.303 1.364.459 2.066.731 3.502 1.301 6.287-.021 9.684-1.561-3.587-2.475-6.958-3.125-10.812-.168-.976-.335-1.952-.508-2.958-.182-1.104-.182-1.104-.367-2.23h-7c3.125-2.083 5.271-3 9-3"/><path fill="#9d8650" d="M316 746c2.386 3.579 2.786 5.716 3 10-.766 2.53-1.79 4.628-3 7-2-2-2-2-2.25-5.125.273-4.235 1.106-7.799 2.25-11.875"/><path fill="#b49959" d="M239 601c-1.16 2.847-2.234 4.211-4.562 6.312-2.95 3.253-3.185 5.379-3.438 9.688-2-2-2-2-2.438-5.312.547-4.603 1.906-5.813 5.438-8.688 3-2 3-2 5-2"/><path fill="#998045" d="M167 890c.201 3.716.152 4.772-2 8-.365 2.221-.365 2.221-.414 4.668-.039.893-.077 1.785-.117 2.705l-.094 2.815c-.039.94-.077 1.88-.117 2.849q-.141 3.4815-.258 6.963l-3-1h2v-26c3-1 3-1 4-1"/><path fill="#b59a5c" d="M391 969c1.142 3.811.567 5.344-1 9-.376 1.992-.72 3.992-1 6l4-1-3 4-4-1c.538-6.182 2.546-11.327 5-17"/><path fill="#bfa159" d="M447 762c2 2 2 2 2.375 4.875C449 770 449 770 447.312 772.312c-2.508 1.831-4.253 2.348-7.312 2.688.312-1.938.312-1.938 1-4l3-1c.733-2.015.733-2.015 1-4h2z"/><path fill="#a89361" d="M289 747h1l1 21c-3.114-3.114-3.604-4.404-4.016-8.66.029-4.224 1.003-8.256 2.016-12.34"/><path fill="#a48f5c" d="M375 682h1v21h-1c-.124-1.134-.248-2.269-.375-3.438-.206-1.175-.412-2.351-.625-3.562l-2-1c.309-1.792.622-3.584.938-5.375.174-.998.348-1.995.527-3.023C374 684 374 684 375 682"/><path fill="#bda15b" d="M259 594v2h-4v2l3 1c-1 1-1 1-3.723 1.098-1.653-.018-1.653-.018-3.339-.036-1.105-.009-2.21-.018-3.348-.027-1.282-.017-1.282-.017-2.59-.035v-2c1.769-.673 3.54-1.338 5.312-2 .987-.371 1.973-.743 2.989-1.125C256 594 256 594 259 594"/><path fill="#887a57" d="M126 961h1v6h2c-1.254 7.017-2.576 14.016-4 21h-1c.061-.776.121-1.552.184-2.352.637-8.214 1.237-16.43 1.816-24.648"/><path fill="#9f8b64" d="M347 942c2.819 1.409 3.034 3.417 4.002 6.273.339 1.041.339 1.041.685 2.102l.721 2.078c1.716 5.174 1.716 5.174.592 8.547-1.205-2.221-2.389-4.45-3.563-6.688-.342-.625-.684-1.251-1.037-1.896-1.56-3.011-2.445-4.954-2.115-8.373.236-.674.472-1.348.715-2.043"/><path fill="#a98f56" d="M339 948c2.004 3.006 3.031 5.592 4.188 9 .364 1.052.729 2.104 1.105 3.188C345 963 345 963 344 966c-1.03-1.619-2.049-3.245-3.062-4.875-.569-.905-1.137-1.81-1.723-2.742-.602-1.18-.602-1.18-1.215-2.383l1-2-.5-2c-.5-2-.5-2 .5-4"/><path fill="#bda15d" d="m582 887 2 2-4 13c-.754-3.017-1.247-5.686-1.562-8.75-.126-1.199-.126-1.199-.254-2.422L578 889z"/><path fill="#31210b" d="m284 754 1 4h2l-1 16c-2.031-3.047-2.247-3.601-2.195-7.012.006-.757.013-1.514.019-2.295.017-.785.034-1.571.051-2.381.009-.797.018-1.594.027-2.416.024-1.965.06-3.931.098-5.896"/><path fill="#9f8e66" d="M436 645c-3.39 1.956-6.589 2.627-10.438 3.25l-3.371.578c-3.364.181-5.21-.335-8.191-1.828v-1c7.356-.708 14.609-1.147 22-1"/><path fill="#ac914f" d="M629 920h3c3.246 6.209 3.669 12.058 4 19-2.59-2.59-3.027-4.872-4.062-8.375-.342-1.142-.684-2.284-1.036-3.461-.679-2.381-1.327-4.756-1.902-7.164"/><path fill="#ac9154" d="M577 890c2.632 5.168 3.327 9.11 3 15l-2 2c-2.648-5.764-1.802-10.909-1-17"/><path fill="#c6a964" d="M464 781h1v24h-1l-1-12h-1c-.178-4.548.002-7.879 2-12"/><path fill="#a08d5e" d="M156 944h1c.205.759.41 1.519.621 2.301.27.994.539 1.988.817 3.011l.808 2.989c.535 1.914 1.125 3.813 1.754 5.699-3.458-1.153-3.806-1.805-5.625-4.812-.425-.688-.851-1.375-1.289-2.083-1.054-2.043-1.632-3.86-2.086-6.105l4 1z"/><path fill="#9d8a5f" d="M194 901h1c.896 6.048 1.113 11.889 1 18-3.102-4.653-4.338-9.415-4-15h2z"/><path fill="#ac8f48" d="M545 868h2v2h3l1 3 2 2-12 1 2-2.312c2.299-2.531 2.299-2.531 2-5.688"/><path fill="#1e1608" d="M320 951c4.965 2.483 7.932 5.398 11 10h-3l-2 2z"/><path fill="#b49a5c" d="M505 865c5.785 3.446 5.785 3.446 6.875 6.25.062.866.062.866.125 1.75l-6 5v-6l3 1v-3h-2z"/><path fill="#b49c5f" d="m162 823 1 7-3-2c-3.021 2.014-4.607 3.633-6 7l-1-3c5.25-9 5.25-9 9-9"/><path fill="#a28f5c" d="M283 746h1v19h-1l-1-9h-2c.308-1.48.622-2.959.938-4.438.261-1.235.261-1.235.527-2.496C282 747 282 747 283 746"/><path fill="#ae9a64" d="m316 617 21 5v1c-7.959.545-13.819-.511-21-4z"/><path fill="#b49b60" d="M302 557h1c.125 7.75.125 7.75-1 10h4l2-2v6c-3.375-.547-5.082-1.055-8-3z"/><path fill="#b2995a" d="M581 807c2.608 1.095 5.211 2.201 7.812 3.312.738.309 1.476.618 2.237.936 1.068.459 1.068.459 2.158.928.655.277 1.309.555 1.984.841 1.98 1.076 3.297 2.324 4.809 3.983-3.443-.817-6.812-1.814-10.188-2.875-1.066-.327-2.132-.655-3.23-.992-.852-.374-1.704-.748-2.582-1.133l-1-3h-2z"/><path fill="#b69956" d="M439 773h6c-.573 2.867-.861 3.861-3 6-1.988.398-3.989.738-6 1 .613-2.962 1.254-4.381 3-7"/><path fill="#bb9d5b" d="M318 756c2.624 3.061 3 3.732 3 8h-2l-1 3-2-1c-.25-6.625-.25-6.625 2-10"/><path fill="#ad9250" d="M331 611h18l-4 2-1 1c-2.002-.038-4.004-.155-6-.312-1.093-.079-2.186-.158-3.312-.239-.887-.148-1.774-.296-2.688-.449z"/><path fill="#c0a45e" d="M152 933h1v5h2l1 8-4-1c-1.161-4.256-.762-7.684 0-12"/><path fill="#a68c52" d="M598 881h1c.098 6.152.098 6.152 0 8l-1 1c-.393 1.679-.741 3.369-1.062 5.062-.265 1.379-.265 1.379-.536 2.786L596 900h-2c.285-2.043.578-4.084.875-6.125.162-1.137.325-2.274.492-3.445.607-3.291 1.496-6.288 2.633-9.43"/><path fill="#b99e5c" d="M320 724c.575 3.735 1 7.213 1 11l-2 2c-2.417-4.229-3.348-7.123-3-12 3-1 3-1 4-1"/><path fill="#9d8d68" d="M330 992c3.89 1.497 5.469 3.704 7.75 7.125.92 1.365.92 1.365 1.859 2.755L341 1004l-1 2-11-12z"/><path fill="#b39a5c" d="M241 863v3l-1.5 1.375c-1.731 1.56-1.731 1.56-1.813 4.063.32 2.622.975 4.304 2.313 6.562l-2 1c-.728-1.239-1.432-2.492-2.125-3.75-.394-.696-.789-1.392-1.195-2.109-.68-2.141-.68-2.141.039-4.266 1.712-2.506 3.852-4.085 6.281-5.875"/><path fill="#b2995a" d="M274 729c0 4.825-2.914 7.883-6.188 11.25-.598.577-1.196 1.155-1.812 1.75l-1 2-3-1c1.812-2.146 3.625-4.292 5.438-6.438.516-.611 1.032-1.223 1.564-1.853 3.885-4.596 3.885-4.596 4.998-5.709"/><path fill="#b8994e" d="M506 587v3c-3.543 1.181-6.284 1.27-10 1l-2-3c4.053-.982 7.839-1.082 12-1"/><path fill="#988868" d="m393 1007 2 2c-.66.64-1.32 1.28-2 1.94-3.857 3.84-7.408 7.97-11 12.06 0-4.39 2.735-6.55 5.5-9.69.525-.6 1.049-1.21 1.59-1.84 1.297-1.49 2.602-2.98 3.91-4.47"/><path fill="#a68b4c" d="M410 611c1.958-.054 3.916-.093 5.875-.125 1.636-.035 1.636-.035 3.305-.07C422 611 422 611 424 613c-4.763.953-9.167 1.083-14 1z"/><path fill="#b79953" d="m132 930 3 1c1.007 5.035.974 8.239-1 13h-1z"/><path fill="#937c45" d="M153 919h1c.338 2.541.671 5.083 1 7.625.095.713.191 1.426.289 2.16.527 4.103.816 8.067.711 12.215l-1-3h-2z"/><path fill="#b1975a" d="M522 841c-1.926 2.439-3.801 4.801-6 7-1.5-1.312-1.5-1.312-3-3v-3c5.625-2.125 5.625-2.125 9-1"/><path fill="#a98f52" d="M291 773h1l2 17-3-1c-.914-5.687-.914-10.313 0-16"/><path fill="#ab9151" d="M435 778c3 0 3 0 6 1-1.393 3.367-2.979 4.986-6 7l-2-2z"/><path fill="#9a8963" d="M423 763h2c-.474 4.268-2.958 6.175-6 9l-1.812 1.812L416 775l-2-1c1.312-1.646 2.624-3.292 3.938-4.938.73-.916 1.461-1.833 2.214-2.777C422 764 422 764 423 763"/><path fill="#9f8d63" d="m447 701 2 1c-1.516 3.478-3.577 5.956-6.125 8.75-.724.799-1.449 1.598-2.195 2.422-.555.603-1.109 1.206-1.68 1.828 0-4.034 1.596-5.494 4-8.688.743-.993 1.485-1.987 2.25-3.011.577-.759 1.155-1.519 1.75-2.301"/><path fill="#a58f5b" d="M330 959c5.75 1.75 5.75 1.75 8 4 .856 2.632 1.389 5.295 2 8-3.595-3.493-6.878-7.075-10-11z"/><path fill="#ab8f4b" d="M636 914c2.296 3.445 2.54 5.938 3 10l-4 2c-.027-1.625-.046-3.25-.062-4.875-.012-.905-.024-1.81-.036-2.742C635 916 635 916 636 914"/><path fill="#362309" d="M468 834c3.664 1.69 6.908 3.873 10.25 6.125 1.616 1.087 1.616 1.087 3.266 2.195.819.555 1.639 1.109 2.484 1.68l-3 2c-1.796-1.432-3.586-2.871-5.375-4.312-.998-.801-1.995-1.602-3.023-2.426C470 837 470 837 468 834"/><path fill="#b49b61" d="M247 788c4.285 2.307 7.723 4.33 11 8-1.074 2.915-1.778 4.778-4 7l1-7c-.99-.619-1.98-1.238-3-1.875-.99-.701-1.98-1.402-3-2.125v-2h-2z"/><path fill="#c5a453" d="M326 582c-2 2-2 2-5.695 2.195-1.477-.013-2.954-.037-4.43-.07-.754-.009-1.508-.018-2.285-.027-1.864-.024-3.727-.06-5.59-.098 6.195-3.243 11.254-3.047 18-2"/><path fill="#b39856" d="M452 815c1.125 1.75 1.125 1.75 2 4-.688 1.812-.688 1.812-2 4-.556 1.244-1.097 2.494-1.625 3.75-.454 1.072-.907 2.145-1.375 3.25h-2c1.667-5 3.333-10 5-15"/><path fill="#b69f6c" d="M433 754c-1.668 3.941-4.227 6.789-7 10l-3-2c1.285-1.339 2.579-2.671 3.875-4 1.079-1.114 1.079-1.114 2.18-2.25C431 754 431 754 433 754"/><path fill="#97814b" d="M442 659v1c-1.702.464-1.702.464-3.438.937-3.35.692-3.35.692-4.562 2.063-1.525-.089-3.047-.245-4.562-.438-1.24-.152-1.24-.152-2.504-.308-.638-.084-1.277-.168-1.934-.254 5.566-2.932 10.76-3.125 17-3"/><path fill="#33240a" d="m312 626 17 2-2 1v2c-10.558-1.927-10.558-1.927-15-4z"/><path fill="#af9657" d="M300 601h5l2 4h5l-1 2c-4.389-.665-7.981-2.188-12-4z"/><path fill="#9e8954" d="m458 576-1 3c-5.707.993-11.214 1.105-17 1v-1c2.437-.504 4.874-1.003 7.312-1.5.691-.143 1.381-.286 2.092-.434 2.921-.592 5.607-1.066 8.596-1.066"/><path fill="#a3905f" d="m608 913 3 2c.658 4.825-.622 7.838-3 12h-1z"/><path fill="#ae9250" d="M321 763c1.374 3.818.68 7.073 0 11l-4-5c1.75-4.875 1.75-4.875 4-6"/><path fill="#b1995f" d="M358 669h5v3c-6.4 3.077-6.4 3.077-9.438 2.688-.515-.227-1.031-.454-1.562-.688l5-1z"/><path fill="#36240a" d="M409 964c0 3.57-.868 4.749-2.812 7.688-.523.808-1.045 1.616-1.583 2.449-.529.615-1.059 1.229-1.605 1.863h-3c1.444-3.239 3.258-5.62 5.625-8.25.632-.706 1.263-1.413 1.914-2.141.482-.531.964-1.062 1.461-1.609"/><path fill="#211607" d="m516 886 1 3c-1.293 1.973-1.293 1.973-3.188 4.062-.612.693-1.224 1.385-1.855 2.098-1.908 1.794-3.563 2.816-5.957 3.84 3.267-4.389 6.549-8.753 10-13"/><path fill="#ac9661" d="M518 816c2.875.188 2.875.188 6 1 1.438 2.375 1.438 2.375 2 5l-1 3c-1.17-1.31-2.336-2.623-3.5-3.938-.975-1.096-.975-1.096-1.969-2.214C518 817 518 817 518 816"/><path fill="#c3a55f" d="m287 761 2 4 2 3c.195 2.262.195 2.262.125 4.688-.018.808-.036 1.616-.055 2.449-.034.922-.034.922-.07 1.863h-1l-2-6h-1z"/><path fill="#ac9257" d="m269 849 3 1c-1.787 1.506-3.58 3.005-5.375 4.5-.998.835-1.995 1.671-3.023 2.531C261 859 261 859 259 859v-2h2v-2l4-1v-3h4z"/><path fill="#a79461" d="M450 745c2.236 3.353 2.173 3.907 1.625 7.688-.166 1.212-.166 1.212-.336 2.449-.095.615-.191 1.229-.289 1.863h-2l-1 2c.566-4.69 1.185-9.345 2-14"/><path fill="#af975b" d="M463 561c1.062 1.812 1.062 1.812 2 4l-1 3-7 1 1-4v2c3.011-2.007 3.63-2.839 5-6"/><path fill="#ae9353" d="m307 554 3 2-1 11c-2-2-2-2-2.195-4.602.023-.997.046-1.995.07-3.023.018-1.003.036-2.006.055-3.039.023-.771.046-1.542.07-2.336"/><path fill="#b39b5d" d="m234 817 3 1-6 13h-2c1.543-4.721 3.078-9.417 5-14"/><path fill="#968661" d="m420 794 2 3-10 7-2-1z"/><path fill="#887b5b" d="M479 637v2c-1.412.534-2.83 1.052-4.25 1.562-.789.291-1.578.581-2.391.879-2.55.604-3.912.406-6.359-.441 1.412-.676 2.83-1.34 4.25-2 1.183-.557 1.183-.557 2.391-1.125C475 637 475 637 479 637"/><path fill="#291e0e" d="m405 998 1 2-7 8-3-1z"/><path fill="#251604" d="m205 864 2 1c.625 2.562.625 2.562 1 5h-2v13h-1z"/><path fill="#322109" d="M510 745c2.349 2.349 2.731 3.957 3.625 7.125.26.91.521 1.82.789 2.758.193.698.387 1.397.586 2.117-3.336-2.991-5.151-5.932-7-10z"/><path fill="#9f8f67" d="M483 701c3.21 1.382 5.049 2.924 7.25 5.625.781.947.781.947 1.578 1.914L493 710l-2 2c-1.336-1.643-2.669-3.29-4-4.938-.743-.916-1.485-1.833-2.25-2.777C483 702 483 702 483 701"/><path fill="#bea364" d="M457 680h2c.077 4.516.102 8.591-1 13h-1c-.144-1.093-.289-2.186-.438-3.312-.445-3.619-.445-3.619-1.562-6.688h2z"/><path fill="#a88e51" d="M452 516c2 3 2 3 1.625 5.188-.206.598-.412 1.196-.625 1.812l-3-1v5c-1.125-1.75-1.125-1.75-2-4 .967-2.66 2.419-4.629 4-7"/><path fill="#b79a54" d="m321 957 4 2-1 4-5-1c.875-3.875.875-3.875 2-5"/><path fill="#9a8960" d="m612 943 2 2c-.25 4.5-2.418 7.418-5 11-1-2-1-2-.223-4.602.383-.997.766-1.995 1.16-3.023.381-1.003.761-2.006 1.153-3.039.3-.771.601-1.542.91-2.336"/><path fill="#ac9356" d="M144 911c2.607 3.022 3.463 5.16 3.812 9.125.089.869.178 1.738.27 2.633C148 925 148 925 146 927c-.339-1.728-.671-3.458-1-5.188-.186-.962-.371-1.925-.563-2.917-.406-2.688-.516-5.183-.437-7.895"/><path fill="#a38f63" d="m242 816 4 1c-1.491 3.795-3.757 5.61-7 8z"/><path fill="#ad9559" d="M195 807c-10.447 5.345-10.447 5.345-15 4 1.743-.868 3.495-1.719 5.25-2.562.975-.476 1.949-.952 2.953-1.442 2.896-1.031 3.997-1.109 6.797.004"/><path fill="#2d1f09" d="M479 759h3c.054 1.625.093 3.25.125 4.875.023.905.046 1.81.07 2.742C482 769 482 769 480 771z"/><path fill="#ab9152" d="m445 833 2 2c-.209 3.273-.437 5.324-2.563 7.875-.474.371-.948.743-1.437 1.125-1.136-3.409-.867-4.003.437-7.188.288-.715.575-1.43.872-2.167.228-.543.456-1.086.691-1.645"/><path fill="#36240c" d="M248 799c1 3 1 3-.188 6.625-1.812 3.375-1.812 3.375-4 4.313-.598.02-1.196.041-1.812.062 1.45-4.11 3.511-7.433 6-11"/><path fill="#af914c" d="M479 762h1c.186 1.702.186 1.702.375 3.438.309 1.763.309 1.763.625 3.562l2 1-1 3-4 1z"/><path fill="#36260e" d="M406 496v2l-4 2v-2l-3 1c-1.561.067-3.125.085-4.688.062-1.212-.013-1.212-.013-2.449-.027-.922-.017-.922-.017-1.863-.035v-1c1.916-.337 3.833-.67 5.75-1 1.067-.186 2.135-.371 3.234-.562C402 496 402 496 406 496"/><path fill="#b19656" d="m457 928 3 1-7 7-1-4 2-2h3z"/><path fill="#b59b5d" d="m275 837 1 3h-2v2c-2.812 1.562-2.812 1.562-6 3l-3-1z"/><path fill="#aa9769" d="M348 770c2.798.386 3.821.801 5.75 2.938C355 775 355 775 355 777c-2.867-1.285-4.976-2.571-7-5z"/><path fill="#9a895f" d="M283 718c1.45 2.901.454 4.56-.438 7.625-.287 1.003-.574 2.006-.871 3.039-.228.771-.456 1.542-.691 2.336h-1v-6l-2-1z"/><path fill="#bfa160" d="M451 720c1.467 3.815.433 6.29-1 10-1.5-1.25-1.5-1.25-3-3v-4l3-1z"/><path fill="#231808" d="M292 658h2l-2 13c-2.135-4.269-2.175-4.728-1-9 .186-.763.371-1.526.563-2.312.144-.557.288-1.114.437-1.688"/><path fill="#c6a75a" d="M451 600h10v3l-10-1z"/><path fill="#a18d59" d="M289 587v7h-1v-5l-3 1c-2.341-.278-4.676-.605-7-1v-1c3.734-.879 7.168-1.089 11-1"/><path fill="#b9a164" d="M298 576c1.438.115 2.876.242 4.312.375 1.201.104 1.201.104 2.426.211C307 577 307 577 310 579l-7 1v-2l-4-1-1 3z"/><path fill="#b39655" d="M405 971c2 3 2 3 1.625 5.688-.206.763-.412 1.526-.625 2.312l-5-1z"/><path fill="#b39656" d="M259 895c2.12 2.615 4.131 5.196 6 8-4.875-.875-4.875-.875-6-2-.041-2-.043-4 0-6"/><path fill="#bea460" d="m575 856 2 4-4 4-1-7z"/><path fill="#a89055" d="m152 834 2 3c-.461 2.262-.461 2.262-1.375 4.688-.445 1.212-.445 1.212-.898 2.449-.24.615-.48 1.229-.727 1.863h-2c.31-1.438.623-2.875.938-4.312l.527-2.426C151 837 151 837 152 834"/><path fill="#3f2909" d="m294 834 2 1-9 8-1-3z"/><path fill="#af965a" d="M258 633h7v2l3 1c-1.625.688-1.625.688-4 1-3.25-1.438-3.25-1.438-6-3z"/><path fill="#b5974d" d="M301 579c-.534 3.916-1.197 6.393-3 10l-1-9c2-1 2-1 4-1"/><path fill="#a88f56" d="M409 991h3c-1.393 3.367-2.979 4.986-6 7 .75-4.75.75-4.75 3-7"/><path fill="#827559" d="m396 985 2 3-7 8-2-1z"/><path fill="#c7a755" d="m453 814 3 1v8l-2 1z"/><path fill="#ab925c" d="M339 788c1.938.75 1.938.75 4 2 .75 2.125.75 2.125 1 4-3 0-3 0-5.188-2L337 790h2z"/><path fill="#ac955b" d="M240.375 783.625c3.377.482 4.469 1.82 6.625 4.375l-11-2c2-2 2-2 4.375-2.375"/><path fill="#af9352" d="m327 777 5 5-3 2c-1.562-1.25-1.562-1.25-3-3 .312-2.188.312-2.188 1-4"/><path fill="#a59569" d="M316 746c2.29 3.435 2.178 4.985 2 9l-3 1c-.125-6.625-.125-6.625 1-10"/><path fill="#b59e65" d="M492 710c1.938.75 1.938.75 4 2 .688 1.875.688 1.875 1 4 .186.743.371 1.485.562 2.25.217.866.217.866.438 1.75-2.335-2.257-4.187-4.281-6-7z"/><path fill="#b39957" d="M473 666c2.152 3.228 2.603 5.19 3 9l-1 3h-2z"/><path fill="#ae9352" d="m514 590 5 1-3 2-1 3h-5l2-1c.722-1.644 1.394-3.311 2-5"/><path fill="#9f8e60" d="M353 518h1v11l-1-2-3 1z"/><path fill="#ba9d57" d="M325 492h3c-1.393 3.367-2.979 4.986-6 7 .75-4.75.75-4.75 3-7"/><path fill="#231c12" d="m386 991 1 3-8 7c0-3 0-3 2.375-5.562.866-.805 1.733-1.609 2.625-2.438z"/><path fill="#b4974d" d="M203 867v7h-3l-1-5c3-2 3-2 4-2"/><path fill="#a99154" d="M437 854c.828 3.312 1.093 5.66 1 9l-4 2z"/><path fill="#a8925a" d="m247 840 6 2-4 4-2-1z"/><path fill="#ab9251" d="M539 830h2l-1 6c-3 1-3 1-5.188.062-.598-.35-1.196-.701-1.812-1.062l6-1-1-3z"/><path fill="#af9a68" d="M464 781h1v9l-2 1c-1.158-4.054-.837-6.218 1-10"/><path fill="#34230b" d="m256 746 4 1-5 8c-1.073-4.294-.797-5.195 1-9"/><path fill="#9f874f" d="M317 698c3 3.625 3 3.625 3 7h-3l-1 4c-.089-3.832.121-7.266 1-11"/><path fill="#aa925a" d="M533 598c2.562 2.125 2.562 2.125 5 5-.188 3.312-.188 3.312-1 6h-1c-2.143-7.429-2.143-7.429-3-11"/><path fill="#c6a85b" d="m297 599 15 1v1l-14 1z"/><path fill="#a38748" d="M330 914h3c2.092 4.431 2.092 4.431 1.625 7.312-.206.557-.412 1.114-.625 1.688l-2-5h-2z"/><path fill="#b69b59" d="m275 871 1 3-6 5-2-1z"/><path fill="#ad9458" d="M180 860h2c.389 1.455.761 2.914 1.125 4.375.209.812.418 1.624.633 2.461.08.714.16 1.428.242 2.164l-2 2z"/><path fill="#c7a859" d="M438 854c2.679 4.019 2.156 6.242 2 11l-2-1c-.891-3.645-1.237-6.427 0-10"/><path fill="#b79d61" d="m485 835 9 6c-3 1-3 1-5.625-.188C486 839 486 839 485 835"/><path fill="#a68e4f" d="M482 751h1l.438 2.312c.525 2.77.525 2.77 1.562 5.688-.938 2.688-.938 2.688-2 5h-1z"/><path fill="#aa8e4e" d="m370 701 3 2c-.688 1.938-.688 1.938-2 4-2.625.75-2.625.75-5 1z"/><path fill="#a4915f" d="m466 689 2 4-4 4c.875-6.875.875-6.875 2-8"/><path fill="#a2894f" d="M273 639c1.458-.054 2.916-.093 4.375-.125.812-.023 1.624-.046 2.461-.07C282 639 282 639 284 641c-4.002 1.601-7.046.293-11-1z"/><path fill="#ba9d5c" d="M505 625v3h-2l1 3h-3l-1-4c3-2 3-2 5-2"/><path fill="#a28d56" d="M259 594v2h-4l-1 3-4-2c3.268-2.179 5.08-3 9-3"/><path fill="#aa9358" d="m369 493 2 4c-2 1-2 1-5.125.062-.949-.35-1.897-.701-2.875-1.062 2.139-2.139 3.133-2.427 6-3"/><path fill="#ad9250" d="m417 979 2 2 2-1c-.375 2.438-.375 2.438-1 5l-2 1-2-6z"/><path fill="#96855f" d="M342 957c2.125 3.188 2.502 5.265 3 9-2.252-2.688-3.882-4.646-5-8z"/><path fill="#37270f" d="M320 951c3.367 1.393 4.986 2.979 7 6l-4 1z"/><path fill="#baa05e" d="M129 947h1c1.231 6.4 1.231 6.4.063 9.438-.351.515-.702 1.031-1.063 1.562h-1c-.143-7.429-.143-7.429 1-11"/><path fill="#c8aa5a" d="M422 894c1.984 2.917 1.988 4.124 1.625 7.75-.206 1.072-.413 2.145-.625 3.25-1.984-2.917-1.988-4.124-1.625-7.75.206-1.072.412-2.145.625-3.25"/><path fill="#95835c" d="M214 880c1.312 3.937.243 6.125-1 10h-1v-9z"/><path fill="#2e220e" d="m557 874-2 3-8-1v-1c1.289-.363 2.582-.715 3.875-1.062.719-.198 1.439-.395 2.18-.598C555 873 555 873 557 874"/><path fill="#af975c" d="m477 829 8 5-2 2c-2.438-1.25-2.438-1.25-5-3z"/><path fill="#aa9156" d="M489 726c3.367 1.393 4.986 2.979 7 6-3 0-3 0-5.188-1.875C489 728 489 728 489 726"/><path fill="#82775d" d="m287 697 2 1-7 7-2-2z"/><path fill="#c3a662" d="M375 694v12h-1c-.144-1.072-.289-2.145-.438-3.25-.399-2.667-.838-5.164-1.562-7.75 2-1 2-1 3-1"/><path fill="#baa267" d="M302 691v7c-1.376-1.29-2.708-2.627-4-4v-2c2-1 2-1 4-1"/><path fill="#ab9051" d="M454 602h5v2l-7 2-1-2h3z"/><path fill="#b69956" d="m472 923 1 2-5 6-1-3z"/><path fill="#ae955a" d="m280 916 3 1c.333 1.333.667 2.667 1 4l3 1-2 2c-5-5.75-5-5.75-5-8"/><path fill="#3e2b0a" d="M607 875h2v6l-4 2z"/><path fill="#a79160" d="M546.262 872.926c.8.127 1.601.255 2.426.386.808.12 1.616.24 2.449.364.615.107 1.229.214 1.863.324v1l-12 1c3-3 3-3 5.262-3.074"/><path fill="#b79d61" d="m525 866 4 3c-.375 1.938-.375 1.938-1 4l-2 1z"/><path fill="#37270f" d="M194 856h2l1 7h-3z"/><path fill="#ba9f5f" d="m259 849 1 3c-2.375 1.562-2.375 1.562-5 3l-2-1z"/><path fill="#c5a655" d="M617 837h3v3h-2l-1 5h-1c-.125-5.75-.125-5.75 1-8"/><path fill="#1e1307" d="m518 802 6 4c-3 2-3 2-5 2z"/><path fill="#887c5e" d="M349 798c3.255.349 4.019 1.021 6.25 3.562.577.805 1.155 1.609 1.75 2.438-2.972-1.125-5.334-2.223-8-4z"/><path fill="#a7966b" d="M482 744c2.392 2.392 2.676 3.678 3 7l-2 3c-1.158-3.473-1.069-6.361-1-10"/><path fill="#b29757" d="M261 744c2 3 2 3 2 5l-6 2z"/><path fill="#b99e57" d="m312 636 7 1c-3.088 1.765-4.233 2-8 2z"/><path fill="#a68d4e" d="M306 632c3.356.599 5.378 1.846 8 4l-5 1c-.124-.639-.248-1.279-.375-1.938-.309-1.02-.309-1.02-.625-2.062z"/><path fill="#c5a656" d="M297 611h2l1 5h-5z"/></svg>