<svg xmlns="http://www.w3.org/2000/svg" width="416" height="512" fill="none" viewBox="48 0 416 512">
  <g fill="#c3a04c" clip-path="url(#a)">
    <path d="M244.891-.203033c.818-.007015 1.637-.014029 2.48-.021256 2.626-.017402 5.253-.023852 7.879-.025619l2.72-.002045c13.252.015839 26.029.493745 39.03 3.252043.812.15566 1.624.31131 2.461.47168C336.9 10.6859 371.073 29.3526 398.521 55.588c.981.9364 1.967 1.8675 2.958 2.793 8.96 8.3751 16.367 17.6749 23.521 27.6191.456.6331.913 1.2662 1.383 1.9184C442.23 110.154 453.05 135.391 459 162c.295 1.272.59 2.545.895 3.856 9.967 47.384 2.874 101.54-23.358 142.78-8.431 12.835-18.619 24.4-28.639 36.001-2.822 3.268-5.614 6.562-8.398 9.863-4.315 5.111-8.662 10.195-13.02 15.27-3.343 3.896-6.668 7.807-9.98 11.73-4.315 5.111-8.662 10.195-13.02 15.27-3.343 3.896-6.668 7.807-9.98 11.73-4.315 5.111-8.662 10.195-13.02 15.27-3.798 4.426-7.57 8.874-11.331 13.331-3.402 4.028-6.835 8.028-10.274 12.024-3.581 4.162-7.107 8.358-10.563 12.625-3.555 4.382-7.28 8.567-11.078 12.738-3.015 3.39-5.849 6.915-8.703 10.442-3.565 4.324-7.242 8.546-10.927 12.768-.524.601-1.048 1.202-1.588 1.822-.508.582-1.016 1.164-1.54 1.763-1.429 1.663-2.82 3.351-4.206 5.049-3.301 3.88-5.957 5.374-11.04 6.02-5.724.273-10.417.086-15.121-3.364-4.587-4.324-8.539-9.212-12.531-14.08-2.541-3.073-5.158-6.079-7.766-9.095-3.472-4.04-6.894-8.112-10.25-12.25-5.157-6.349-10.541-12.494-15.911-18.662-6.901-7.946-13.717-15.965-20.507-24.007-3.363-3.98-6.749-7.941-10.144-11.894-4.306-5.015-8.588-10.049-12.851-15.101-3.402-4.028-6.835-8.028-10.274-12.024-3.581-4.162-7.107-8.358-10.562-12.625-3.556-4.381-7.281-8.567-11.079-12.738-3.028-3.404-5.872-6.944-8.738-10.485-2.835-3.438-5.752-6.796-8.683-10.152C74.8924 311.438 52.3995 274.783 49 228c-.0656-.875-.1312-1.75-.1987-2.651-3.8816-55.944 12.8323-111.117 49.5146-153.8831 2.6901-3.0603 5.4571-6.0411 8.2721-8.9863.936-.9812 1.867-1.9675 2.793-2.959C122.039 45.9785 136.998 35.2627 153 26.0001c.664-.3864 1.329-.7728 2.013-1.1709C181.859 9.42022 213.82-.023758 244.891-.203033M132 89.0001c-3.185 3.5391-6.119 7.2112-9 10.9999-.724.909-1.449 1.818-2.195 2.754-27.4738 35.18-40.0606 81.045-34.8572 125.336C89.8326 257.004 100.19 282.719 119 305c.726.862.726.862 1.466 1.741 2.975 3.522 5.983 7.014 9.005 10.496 2.581 2.976 5.15 5.962 7.717 8.951.75.873.75.873 1.516 1.764 3.048 3.558 6.034 7.158 8.984 10.798 3.555 4.382 7.28 8.567 11.078 12.738 3.021 3.397 5.86 6.928 8.718 10.461 2.945 3.572 5.973 7.063 9.016 10.551 3.823 4.382 7.592 8.791 11.25 13.313 2.825 3.489 5.727 6.867 8.75 10.187 3.822 4.197 7.415 8.537 10.984 12.949 2.945 3.572 5.973 7.063 9.016 10.551 3.823 4.382 7.592 8.791 11.25 13.313 3.522 4.351 7.216 8.503 10.984 12.64 3.907 4.391 7.57 8.979 11.266 13.547 1.659 2.007 3.328 4.004 5 6 3.714-1.497 5.497-3.554 7.938-6.687 3.692-4.637 7.478-9.159 11.374-13.625 1.116-1.283 2.232-2.565 3.348-3.848.555-.637 1.109-1.274 1.68-1.93 6.121-7.043 12.22-14.1 18.098-21.347 5.157-6.349 10.541-12.494 15.911-18.662 6.901-7.946 13.717-15.965 20.507-24.007 3.865-4.574 7.762-9.12 11.664-13.663 3.798-4.427 7.57-8.875 11.331-13.332 3.402-4.028 6.835-8.028 10.274-12.024 3.581-4.162 7.107-8.358 10.563-12.625 2.754-3.4 5.586-6.667 8.562-9.875 29.869-33.002 42.84-73.257 40.642-117.559-2.442-38.97-19.171-76.535-45.892-104.8159-1.151-1.3501-2.297-2.7041-3.438-4.0625-26.86-30.5152-68.857-47.3206-108.624-50.5625C216.907 33.2373 168.469 51.7849 132 89.0001"/>
    <path d="M317.5 126.125c1.505 1.285 3.006 2.576 4.5 3.875.88.665.88.665 1.777 1.344C341.313 144.877 353.107 169.361 356 191c.11.804.219 1.609.332 2.438 3.054 26.063-3.31 51.973-18.957 73.124-1.445 1.824-2.902 3.638-4.375 5.438-.5.652-1 1.305-1.516 1.977C316.533 292.794 291.311 303.76 268 307c-27.13 2.135-53.481-3.855-74.852-21.332-2.44-2.171-4.81-4.388-7.148-6.668-.887-.846-1.774-1.691-2.687-2.562-1.145-1.207-1.145-1.207-2.313-2.438-.507-.512-1.013-1.024-1.535-1.551C164.127 256.133 156.094 233.092 155 211c-.041-.688-.082-1.377-.125-2.086-.772-25.192 8.316-48.598 24.125-67.914.75-.978.75-.978 1.516-1.977 31.943-40.2047 97.991-43.7974 136.984-12.898M208 164c-11.12 13.1-16.817 28.452-16.273 45.73 1.563 18.698 9.534 34.483 23.809 46.571C230.672 268.5 247.164 271.036 266 270c16.349-2.118 30.222-11.801 40.828-24.043 10.458-14.238 15.444-31.334 12.879-48.971-3.089-17.319-11.961-31.386-25.644-42.361C266.41 135.494 230.801 139.511 208 164"/>
  </g>
  <defs>
    <clipPath id="a">
      <path fill="#fff" d="M0 0h512v512H0z"/>
    </clipPath>
  </defs>
</svg>
