<svg xmlns="http://www.w3.org/2000/svg" width="512" height="512" fill="none" viewBox="0 0 512 512">
  <path fill="#eed979"
    d="M236.937 18.8125c.671.2979 1.342.5958 2.033.9027C247.211 23.4071 254.823 27.4505 262 33c.797.6139 1.594 1.2277 2.415 1.8602C276.318 44.2963 283.512 59.2357 286 74c1.531 16.9146-1.43 30.798-9 46 .629-.046 1.258-.093 1.906-.141 6.319-.266 10.945.314 16.094 4.141 5.057 4.777 8.607 9.18 9.336 16.27.094 8.516-.218 14.406-6.207 20.695-6.048 5.59-10.659 7.366-18.942 7.16-.692-.009-1.385-.018-2.099-.027-1.696-.024-3.392-.06-5.088-.098.046.764.093 1.529.141 2.316.685 20.352-8.1 38.752-21.708 53.457-.932.976-1.868 1.947-2.808 2.915-.467.48-.934.961-1.415 1.456-2.919 2.889-5.636 4.642-9.335 6.356-2.334 1.187-2.334 1.187-3.875 3.5-1.407 6.207-1.157 12.676-1 19 .601.04 1.202.08 1.821.122 7.925.618 15.7 1.88 23.523 3.237 2.354.407 4.709.809 7.064 1.209 6.687 1.136 13.373 2.281 20.057 3.435 4.109.709 8.22 1.41 12.332 2.105 1.559.265 3.118.534 4.676.806 2.174.379 4.349.748 6.524 1.114 1.235.212 2.47.425 3.742.643 6.197.625 9.23-1.171 14.261-4.671 3.947-1.316 7.727-1.164 11.842-1.177 1.357-.01 1.357-.01 2.741-.02 2.997-.02 5.994-.031 8.991-.041 1.537-.006 1.537-.006 3.104-.013 5.423-.02 10.847-.035 16.27-.044 5.594-.011 11.188-.046 16.782-.085 4.308-.026 8.615-.035 12.923-.038 2.061-.005 4.123-.017 6.184-.035 2.892-.025 5.782-.024 8.673-.017 1.269-.019 1.269-.019 2.562-.039 6.816.06 12.017 1.959 17.17 6.474.539.651 1.078 1.302 1.633 1.973.554.648 1.108 1.296 1.68 1.964 3.248 4.714 3.687 8.695 3.64 14.368-.004 1.021-.004 1.021-.008 2.063-.012 2.16-.037 4.32-.062 6.48-.01 1.47-.019 2.941-.027 4.412-.022 3.592-.057 7.183-.098 10.775.663-.009 1.326-.018 2.01-.027 6.91-.088 13.821-.149 20.732-.193 2.578-.02 5.156-.047 7.734-.082 3.709-.048 7.417-.071 11.125-.089 1.151-.02 2.301-.041 3.486-.062 6.104-.002 10.269.043 14.913 4.453 3.568 4.531 4.501 7.469 4.508 13.211.006.703.012 1.407.019 2.131.016 2.345.003 4.688-.01 7.033.006 1.686.013 3.371.022 5.057.018 4.57.011 9.14-.002 13.711-.01 4.785-.001 9.571.006 14.357.007 8.037-.003 16.073-.022 24.109-.021 9.288-.014 18.575.008 27.863.018 7.978.02 15.956.01 23.934-.006 4.763-.007 9.526.006 14.289.012 4.479.004 8.957-.02 13.435-.005 1.642-.003 3.285.006 4.927.011 2.245-.003 4.488-.023 6.732-.002 1.883-.002 1.883-.005 3.803-.783 5.3-3.029 8.207-7.134 11.552-3.997 2.202-7.182 2.414-11.624 2.359-.819.006-1.639.012-2.483.018-2.752.015-5.503.001-8.255-.013-1.991.005-3.981.011-5.972.019-5.474.017-10.948.008-16.423-.004-5.901-.009-11.803.005-17.705.016-10.895.017-21.789.015-32.684.004-10.063-.01-20.125-.012-30.188-.008-1.001.001-1.001.001-2.022.001-2.709.002-5.417.003-8.125.004-25.41.012-50.82.001-76.23-.02-22.585-.019-45.169-.018-67.753.002-25.367.021-50.733.029-76.099.017-2.703-.001-5.406-.002-8.109-.004-.665 0-1.331 0-2.016-.001-10.059-.004-20.118.001-30.177.011-11.4338.011-22.8674.008-34.301-.013-5.8374-.01-11.6747-.014-17.5121-.001-5.3379.012-10.6755.005-16.0135-.016-1.9366-.005-3.8732-.002-5.8098.007-2.622.012-5.2428 0-7.8647-.019-.7611.01-1.5221.019-2.3063.029-3.4424-.05-5.3629-.285-8.16545-2.357-2.15844-3.066-2.08611-5.863-2.03919-9.478-.00624-.737-.01248-1.475-.01891-2.235-.01596-2.472-.00332-4.944.00926-7.417-.00542-1.772-.01254-3.545-.02124-5.318-.01826-4.818-.01116-9.637.00151-14.455.01013-5.05.00074-10.099-.00554-15.149-.00728-8.49.00233-16.98.02137-25.469.0217-9.792.01476-19.584-.00731-29.375-.01821-8.418-.02068-16.836-.01024-25.254.00621-5.023.00713-10.045-.00615-15.067-.01164-4.732-.00339-9.464.01958-14.196.00524-1.728.00384-3.456-.00506-5.184-.08556-18.332 4.28127-32.611 17.04627-46.254 9.9834-9.34 22.0562-13.428 35.2735-15.679 1.1518-.205 2.3036-.41 3.4903-.621 3.2116-.566 6.4247-1.121 9.6394-1.669 2.1424-.365 4.2844-.733 6.4263-1.102 9.3884-1.613 18.7821-3.194 28.179-4.757 4.101-.683 8.201-1.371 12.301-2.061 3.198-.537 6.396-1.071 9.595-1.603q2.271-.3795 4.542-.762c2.096-.353 4.193-.701 6.289-1.048 1.187-.198 2.373-.396 3.596-.6 2.771-.371 5.363-.508 8.153-.422.932-11.451.932-11.451-3.094-21.621-2.723-1.868-2.723-1.868-5.726-3.52-15.914-9.306-25.146-27.697-29.993-44.796-1.498-6.358-1.47-12.566-1.187-19.063-.99.046-1.98.093-3 .141-14.3624.48-14.3624.48-20.0001-4.141-5.0423-4.811-8.6052-9.157-9.3359-16.269-.0939-8.517.2182-14.407 6.207-20.696 5.0552-4.673 8.8148-7.127 15.789-7.07.812.005 1.624.01 2.461.015.62.007 1.24.013 1.879.02-.323-.639-.646-1.278-.978-1.937-1.48-2.951-2.939-5.913-4.397-8.875-.508-1.005-1.0159-2.01-1.5392-3.045C92.1085 91.8666 91.767 79.1836 95.9999 64 99.8303 53.335 108.15 43.643 118 38c2.156-.9 4.324-1.7724 6.5-2.625 5.874-2.3795 10.414-5.3312 15.375-9.25 29.831-23.32804 63.628-22.23072 97.062-7.3125M160 33c1.299 2.5992 2.333 2.6943 5 3.75 10.236 4.403 19.585 11.3229 25 21.25-1.316 3.9488-3.054 4.55-6.563 6.6875-1.517.934-1.517.934-3.066 1.8868-.782.4705-1.565.941-2.371 1.4257-2.647-2.5714-4.976-4.9678-7.188-7.9375C166.194 54.4065 158.941 50.8636 152 49c-8.853-.789-17.294-.957-25 4-.695.4241-1.39.8482-2.106 1.2852-7.904 5.3243-12.343 12.6794-14.484 21.8984C108.914 86.4598 112.467 94.9335 117 104h2c.323-.661.645-1.322.978-2.004 1.459-2.9807 2.928-5.9571 4.397-8.9335.508-1.0409 1.016-2.0818 1.539-3.1543.49-.9893.98-1.9787 1.484-2.998.451-.9164.901-1.8329 1.365-2.7771C130 82 130 82 132 81c6.423-.7994 9.409.4167 14.494 4.3189.744.596 1.489 1.1921 2.256 1.8061 6.831 5.1886 13.243 9.6582 21.25 12.875.793.335 1.585.67 2.402 1.016C186.78 106.013 205.347 104.577 219 98c6.06-3.2332 11.62-7.1498 17.035-11.3593 7.923-6.1465 7.923-6.1465 12.465-6.3282 3.676.7222 4.242.9598 6.5 3.6875.877 1.4537 1.701 2.9408 2.48 4.4493.442.8475.883 1.6951 1.338 2.5683.452.8811.904 1.7622 1.369 2.6699.464.8927.927 1.7854 1.405 2.7051 1.141 2.1999 2.277 4.4024 3.408 6.6074 3.815-5.7226 4.365-11.6292 4.312-18.3125-.008-1.1236-.008-1.1236-.017-2.27-.295-13.5077-6.071-24.7415-15.561-34.2495-7.903-6.2663-16.995-10.3127-26.172-14.3555-1.15-.5201-2.301-1.0402-3.486-1.5761-10.178-4.5154-19.612-7.8134-30.826-7.6739-.857.0062-1.714.0123-2.597.0186C179.677 24.8468 169.577 27.5276 160 33m-21 68-4.938 9.375c-.468.889-.937 1.779-1.42 2.695-.447.851-.895 1.702-1.357 2.578-.414.786-.827 1.572-1.254 2.381-1.58 3.02-2.159 4.754-2.176 8.167-.007.869-.013 1.738-.02 2.634-.001.945-.002 1.891-.003 2.865-.003.981-.007 1.961-.01 2.971-.005 2.086-.008 4.173-.007 6.259-.003 3.139-.021 6.277-.04 9.415-.071 24.438 1.844 44.764 19.674 63.191C160.429 225.758 175.314 231.474 193 232c18.73-.563 34.1-8.375 46.875-21.937 6.034-7.113 10.071-14.153 12.937-23 .311-.948.311-.948.628-1.915 3.496-11.622 2.992-24.498 3.185-36.532.041-2.02.102-4.04.184-6.058.632-15.924-2.39-26.987-10.809-40.558-3.69 0-4.492.912-7.375 3.125-18.527 13.272-39.765 16.222-62.005 13.594-13.509-2.249-26.623-9.807-37.62-17.719m-41.0001 38c-1.4204 2.841-1.3145 4.855-1 8 2.2321 2.848 3.5501 3.85 7.0001 5h8v-16c-7.786-.164-7.786-.164-14.0001 3M272 136v16c7.786.164 7.786.164 14-3 1.42-2.841 1.314-4.855 1-8-2.232-2.848-3.55-3.85-7-5zM168 245c-1.4 9.672-1.4 9.672 2.156 18.394 2.866 3.283 6.084 6.162 9.344 9.044 1.111 1.036 2.219 2.075 3.324 3.119 2.688 2.524 5.418 4.996 8.176 7.443 5.854-2.544 10.211-7.317 14.75-11.687.487-.468.974-.937 1.476-1.419 7.5-7.14 7.5-7.141 10.242-16.731-.221-2.812-.682-5.455-1.468-8.163-.643.142-1.287.283-1.949.429-7.412 1.504-14.502 1.874-22.051 1.821-1.098.008-2.197.016-3.328.023-7.097-.016-13.742-.749-20.672-2.273m-17.008 28.619c-.838.137-1.676.274-2.539.415-.922.153-1.844.306-2.793.463-.969.16-1.939.319-2.937.483-10.161 1.674-20.319 3.368-30.477 5.064-4.815.803-9.632 1.6-14.4497 2.391-5.8201.956-11.6382 1.923-17.4551 2.898-2.2128.369-4.4263.735-6.6403 1.096-3.1106.508-6.2184 1.031-9.326 1.556-.9053.145-1.8107.29-2.7434.439-11.3539 1.959-21.4028 6.105-28.8191 15.201-8.9187 12.745-8.9639 26.062-8.926 40.992.0002 1.568.0001 3.136-.0005 4.704-.0003 4.233.0056 8.466.0126 12.698.0063 4.433.0068 8.865.008 13.297.0031 8.383.0113 16.765.0214 25.148.0112 9.548.0167 19.096.0217 28.643.0104 19.631.0287 39.262.0503 58.893h64V352H104v136h144c.026-11.913.051-23.827.078-36.102.025-7.537.051-15.075.082-22.613.049-11.97.093-23.939.111-35.909.013-8.718.04-17.435.084-26.152.022-4.616.038-9.231.037-13.847-.001-4.345.017-8.69.049-13.036.009-1.594.01-3.187.005-4.781-.007-2.18.011-4.357.035-6.536.005-1.828.005-1.828.011-3.693.756-4.959 2.965-8.145 6.913-11.179 2.906-1.29 4.948-1.547 8.12-1.584 1.08-.02 2.161-.04 3.275-.06 1.155-.007 2.31-.013 3.501-.02 1.787-.027 1.787-.027 3.61-.054 3.801-.054 7.601-.088 11.401-.121 2.579-.034 5.158-.068 7.737-.104 6.317-.087 12.633-.147 18.951-.209v-25c-10.751-1.874-21.503-3.736-32.258-5.58-4.994-.856-9.988-1.717-14.979-2.589-4.816-.842-9.633-1.67-14.452-2.49q-2.76-.4725-5.517-.96c-2.572-.453-5.146-.89-7.721-1.323-.762-.138-1.523-.276-2.308-.418-2.992-.489-5.25-.818-8.15.186-1.987 1.445-3.661 3.029-5.365 4.799-.92.948-.92.948-1.859 1.914-.459.482-.918.964-1.391 1.461.456 1.709.915 3.417 1.375 5.125.272 1.011.544 2.021.824 3.063.78 2.892.78 2.892 1.988 5.937 1.426 5.045 1.957 9.555-.425 14.385-1.699 2.623-3.476 5.158-5.325 7.678-1.246 1.711-2.477 3.433-3.691 5.168-.55.749-1.1 1.498-1.666 2.27-1.909 4.197-.405 7.497 1.135 11.65.497 1.162.995 2.324 1.508 3.521.544 1.302 1.087 2.604 1.63 3.906.851 2.022 1.707 4.041 2.575 6.055.843 1.965 1.664 3.938 2.482 5.914.496 1.166.993 2.332 1.504 3.534 2.324 8.12.945 15.871-.994 23.938-.221.959-.442 1.918-.67 2.906-.726 3.138-1.468 6.273-2.211 9.407-.512 2.193-1.023 4.387-1.533 6.58-1.067 4.582-2.142 9.162-3.223 13.74-1.384 5.867-2.756 11.736-4.122 17.607-1.054 4.522-2.112 9.044-3.171 13.565-.507 2.164-1.014 4.329-1.519 6.494-.707 3.021-1.419 6.041-2.133 9.06-.208.892-.415 1.784-.63 2.703-1.975 8.308-1.975 8.308-3.708 11.794-3.116 1.558-6.605 1.565-10 1-3.278-2.464-3.811-5.209-4.734-9.102-.155-.64-.31-1.281-.47-1.94-.526-2.192-1.037-4.387-1.546-6.583-.374-1.58-.748-3.16-1.123-4.739-.868-3.671-1.727-7.344-2.582-11.018-1.132-4.861-2.278-9.719-3.43-14.575-1.551-6.534-3.093-13.071-4.624-19.609-.86-3.67-1.723-7.338-2.593-11.005-.834-3.512-1.656-7.027-2.47-10.544-.449-1.931-.91-3.859-1.371-5.787-2.34-10.188-3.443-18.407.822-28.117.291-.707.582-1.413.881-2.141.918-2.225 1.858-4.439 2.802-6.652.947-2.232 1.888-4.466 2.813-6.706.573-1.386 1.157-2.766 1.756-4.141 1.597-3.852 2.323-6.372.869-10.341-1.189-2.119-1.189-2.119-2.723-4.109-.538-.756-1.076-1.511-1.631-2.289-1.133-1.56-2.276-3.112-3.429-4.657-3.814-5.402-5.355-9.338-4.217-15.945.861-3.366 2.115-6.532 3.398-9.756 1.403-3.663 1.403-3.663.969-7.459-1.52-1.985-3.091-3.774-4.867-5.535-.609-.614-1.217-1.227-1.844-1.859-2.515-2.112-4.583-1.28-7.664-.772M349 280c3.458 2.775 3.458 2.775 6.957 5.5 8.82 7.131 13.489 16.255 18.043 26.5h50c1.789-21.54 1.789-21.54-3-30-3.8-2.28-7.356-2.243-11.718-2.227-.654 0-1.309-.001-1.983-.001-2.148.002-4.296.017-6.444.033-1.495.003-2.99.006-4.485.008-3.924.008-7.848.028-11.772.05-4.009.02-8.017.029-12.026.039-7.857.022-15.715.056-23.572.098m-21 10v22h27c-3.462-8.654-9.689-14.77-18-19zm-149 7c-.862 3.22-1.507 5.812-.161 8.968 1.264 2.041 2.611 3.975 4.036 5.907.473.676.946 1.351 1.433 2.047 2.175 3.178 2.175 3.178 4.692 6.078 2.865.517 2.865.517 6 0 2.358-2.21 2.358-2.21 4.187-5.187.654-.963 1.308-1.926 1.981-2.918.604-.956 1.209-1.911 1.832-2.895.58-.866 1.16-1.732 1.758-2.625 1.758-3.361 1.022-5.759.242-9.375-2.543 1.13-4.203 2.191-6.25 4.125-2.977 2.03-5.078 2.565-8.688 2.414-3.278-.857-5.267-2.865-7.617-5.226-1.366-1.537-1.366-1.537-3.445-1.313m85 31c-.997 29.362-.997 29.362 12.758 52.957 11.144 10.154 24.136 11.214 38.523 11.141 1.054-.002 2.108-.003 3.194-.005 3.342-.005 6.683-.018 10.025-.03 2.276-.005 4.552-.01 6.828-.014 5.557-.011 11.115-.028 16.672-.049.014-.832.029-1.665.044-2.523.061-3.092.135-6.183.218-9.275.05-1.995.084-3.99.119-5.985.053-1.881.053-1.881.107-3.799.026-1.157.053-2.315.08-3.507.484-3.262.901-3.937 3.432-5.911 3.049-.298 5.888-.42 8.937-.398.877-.003 1.753-.006 2.656-.009 1.853-.002 3.706.003 5.558.016 2.838.016 5.675 0 8.513-.019 1.799.002 3.599.006 5.398.012.85-.006 1.7-.013 2.576-.019 5.918.071 5.918.071 8.083 1.759 1.981 2.568 1.718 4.879 1.791 8.076.035 1.254.07 2.507.107 3.799.023 1.31.045 2.621.068 3.971.034 1.335.068 2.67.104 4.005.082 3.269.152 6.538.209 9.807 6.616.051 13.232.086 19.849.11 2.246.01 4.492.024 6.738.041 3.247.024 6.494.036 9.741.044.988.011 1.976.021 2.994.032 14.707.002 26.7-2.728 37.635-12.985C490.284 364.615 488 347.128 488 328zm-74 8c-1.735 3.637-3.381 7.311-5 11-.343.777-.685 1.554-1.038 2.355-1.134 2.602-2.238 5.215-3.337 7.833-.37.842-.74 1.685-1.121 2.553-.339.822-.678 1.643-1.028 2.49-.308.726-.617 1.451-.935 2.199-1.603 7.609 1.688 16.427 3.4 23.82.287 1.254.575 2.508.87 3.8.758 3.308 1.52 6.615 2.284 9.922.78 3.385 1.556 6.771 2.333 10.157 1.519 6.625 3.044 13.248 4.572 19.871h2c1.856-7.847 3.7-15.696 5.528-23.549.849-3.647 1.703-7.293 2.566-10.936.833-3.519 1.656-7.04 2.47-10.563.312-1.341.629-2.681.949-4.021.449-1.881.882-3.765 1.315-5.65.251-1.071.502-2.141.761-3.244 1.022-7.55-2.416-14.49-5.09-21.398-.751-1.957-1.475-3.923-2.198-5.891-.479-1.246-.959-2.491-1.442-3.736-.642-1.695-.642-1.695-1.298-3.423-1.325-2.835-1.325-2.835-4.24-3.465-.766-.041-1.532-.082-2.321-.124m178 40c-.074 5.587-.129 11.173-.165 16.76-.015 1.899-.035 3.799-.061 5.698-.037 2.735-.054 5.47-.067 8.206-.016.844-.031 1.688-.047 2.558-.001 5.003.536 8.451 3.34 12.778 2.841 1.42 4.855 1.315 8 1 2.848-2.232 3.85-3.55 5-7 .085-1.335.118-2.674.113-4.012v-2.426c-.005-.86-.01-1.719-.015-2.605-.002-.884-.003-1.767-.005-2.677-.005-2.823-.018-5.645-.031-8.467-.005-1.914-.009-3.827-.013-5.741-.011-4.69-.029-9.381-.049-14.072zm-104 16v64h224v-64l-8 6c-2.317 1.318-4.671 2.574-7.063 3.75-1.146.572-2.292 1.145-3.472 1.734-8.158 3.569-15.198 3.849-24.055 3.93-1.949.029-1.949.029-3.938.059-3.434.051-6.869.091-10.303.128-3.513.04-7.026.091-10.538.141-6.877.097-13.754.181-20.631.258-.053 1.03-.107 2.06-.162 3.121-.078 1.365-.157 2.729-.237 4.094-.034.677-.068 1.354-.103 2.052-.452 7.51-2.417 12.071-7.936 17.108-6.716 5.579-14.189 5.374-22.562 4.625-6.206-1.632-10.536-5.694-14-11-2.047-4.2-2.414-8.213-2.625-12.812-.039-.693-.077-1.386-.117-2.1-.094-1.696-.177-3.392-.258-5.088-.713-.004-1.425-.007-2.159-.011-6.766-.038-13.532-.095-20.297-.173-3.477-.039-6.954-.071-10.431-.087-4.012-.018-8.023-.068-12.035-.12-1.229-.001-2.457-.002-3.723-.003-10.243-.171-19.263-2.501-28.23-7.543-.843-.463-1.686-.926-2.555-1.403-3.039-1.963-5.791-4.344-8.57-6.66m0 80v16h224v-16z" />
</svg>