<svg width="512" height="512" viewBox="0 0 512 512" fill="none" xmlns="http://www.w3.org/2000/svg">
    <g clip-path="url(#clip0_91_3)" transform="matrix(-1 0 0 1 512 0)">
        <path
            d="M243.836 -0.238517C245.2 -0.253207 245.2 -0.253207 246.591 -0.268195C267.051 -0.443153 286.888 -0.213083 307 3.99976C308.549 4.32122 308.549 4.32122 310.129 4.64918C337.462 10.518 363.965 20.9672 388 35.2498C388.794 35.7206 389.588 36.1914 390.407 36.6765C403.726 44.8602 403.726 44.8602 405.825 50.0325C406.395 53.3244 406.109 55.7264 404.875 58.8123C402.659 61.3978 401.181 62.7275 398 63.9998C390.741 63.8653 386.478 61.1731 380.563 57.1873C353.765 39.9706 324.35 29.3039 293 23.9998C292.268 23.8752 291.536 23.7507 290.782 23.6223C286.204 22.877 281.622 22.3692 277 21.9998C276.189 21.9327 275.377 21.8657 274.542 21.7966C250.837 19.9776 227.192 21.8319 204 26.9998C203.209 27.1735 202.418 27.3472 201.603 27.5261C167.689 35.1789 135.884 51.0419 109 72.9998C108.488 73.4098 107.977 73.8199 107.45 74.2424C93.549 85.4036 80.8142 97.9351 70.2427 112.313C69.0214 113.971 67.7763 115.609 66.5274 117.246C30.0809 165.793 15.7163 229.267 23.5169 289.066C28.8944 325.382 42.2318 362.619 64.5703 392.07C67.4083 395.816 68.647 398.311 69 403C68.588 405.915 67.852 408.715 67.086 411.554C66.8745 412.374 66.6629 413.193 66.445 414.037C65.9948 415.771 65.5389 417.504 65.0777 419.236C64.3873 421.829 63.7135 424.425 63.043 427.023C60.3294 437.449 57.3207 447.751 54 458C55.0792 457.657 55.0792 457.657 56.1802 457.307C65.1992 454.483 74.2814 451.944 83.4043 449.48C85.8933 448.807 88.3802 448.127 90.8672 447.447C92.4713 447.012 94.0754 446.578 95.6797 446.144C96.4121 445.943 97.1446 445.742 97.8992 445.535C110.534 442.148 110.534 442.148 116.09 444.871C119.184 446.699 122.052 448.831 124.973 450.922C143.684 463.766 164.397 473.212 186 480C186.738 480.235 187.475 480.471 188.235 480.714C247.457 499.351 313 490.831 367.656 462.625C382.541 454.727 396.253 445.009 409 434C409.803 433.308 410.606 432.615 411.434 431.902C423.19 421.538 433.658 410.578 443 398C443.628 397.171 443.628 397.171 444.268 396.326C466.19 367.348 479.337 334.297 487 299C487.295 297.651 487.295 297.651 487.595 296.275C499.318 239.252 484.167 175.828 452.745 127.66C451.844 126.295 450.938 124.932 450.025 123.574C447.639 119.909 447.948 117.441 448.508 113.195C449 111 449 111 450.563 108.5C453.983 106.395 457 105.831 461 106C469.998 109.072 475.576 121.991 479.875 129.75C480.484 130.847 481.092 131.944 481.719 133.074C493.125 153.958 501.657 176.377 506.813 199.625C506.995 200.444 507.178 201.264 507.366 202.109C511.029 219.823 512.527 237.375 512.375 255.437C512.369 256.909 512.369 256.909 512.362 258.41C512.288 272.799 511.79 286.847 509 301C508.834 301.911 508.667 302.823 508.496 303.762C499.45 352.937 475.655 398.124 441 434C440.401 434.621 439.802 435.241 439.185 435.881C431.524 443.78 423.799 451.358 415 458C414.368 458.481 413.736 458.963 413.085 459.459C367.616 493.901 313.439 512.535 256.375 512.312C254.92 512.31 254.92 512.31 253.436 512.307C239.084 512.261 225.121 511.756 211 509C210.103 508.839 209.206 508.678 208.282 508.512C174.771 502.448 138.808 489.602 111.801 468.265C104.539 464.984 94.4536 469.339 87.1875 471.379C84.7058 472.059 82.2241 472.74 79.7422 473.42C75.8638 474.491 71.9863 475.566 68.1104 476.646C64.3471 477.692 60.5801 478.723 56.8125 479.754C55.6623 480.079 54.512 480.404 53.3269 480.738C47.0199 482.455 41.5418 483.538 35 483C32.1297 481.206 30.5087 480.017 29 477C28.3654 469.365 30.1456 462.995 32.3623 455.717C32.9775 453.685 33.5711 451.647 34.1586 449.607C35.8277 443.812 37.5082 438.021 39.2649 432.252C40.3431 428.706 41.3743 425.149 42.3771 421.58C42.7648 420.234 43.1695 418.891 43.5918 417.555C46.1368 409.696 46.1368 409.696 44.7273 401.824C42.9688 399.046 41.0704 396.55 39 394C37.9872 392.385 36.9968 390.756 36.043 389.105C35.3417 387.908 35.3417 387.908 34.6263 386.687C19.1937 359.876 8.47148 331.49 3.00003 301C2.83777 300.168 2.67551 299.337 2.50833 298.481C-2.76692 270.863 -2.55754 238.546 3.00003 211C3.17695 210.098 3.35388 209.196 3.53616 208.267C4.83504 201.794 6.3466 195.391 8.00003 189C8.20966 188.18 8.4193 187.36 8.63528 186.515C16.282 157.276 29.9813 129.235 48 105C48.6705 104.096 48.6705 104.096 49.3545 103.174C56.0239 94.2696 63.2742 85.9979 71 77.9998C71.599 77.3789 72.1979 76.7581 72.815 76.1184C80.4788 68.2173 88.22 60.6721 97 53.9998C97.5403 53.5831 98.0806 53.1664 98.6372 52.7371C108.632 45.0538 119.092 38.3113 130 31.9998C130.677 31.6055 131.355 31.2112 132.052 30.8049C165.301 11.6808 205.427 0.106423 243.836 -0.238517Z"
            fill="#eed979" />
        <path
            d="M316 112.406C337.008 130.57 352.376 153.618 355 182C356.776 208.983 349.938 234.703 332.707 255.809C330.53 258.27 328.288 260.642 326 263C325.389 263.684 324.778 264.369 324.148 265.074C317.577 272.191 309.182 277.045 300.828 281.809C294.424 285.556 290.243 288.756 288 296C287.275 299.756 286.761 303.543 286.221 307.329C284.74 316.914 280.551 323.486 273.016 329.598C265.801 334.617 257.623 335.87 249 335C239.451 332.679 231.948 328.488 226.625 320.125C219.482 307.102 221.584 292.928 225 279C228.788 266.641 234.796 255.928 243 246C243.628 245.179 244.256 244.358 244.902 243.512C251.193 235.98 259.657 230.828 267.984 225.836C278.606 219.369 285.942 212.194 289.586 200.047C291.446 190.851 289.568 182.186 284.914 174.117C283.98 172.719 282.993 171.357 282 170C281.67 169.257 281.34 168.515 281 167.75C279.689 165.456 278.37 165.143 276 164C274.413 163.007 272.83 162.006 271.25 161C263.478 156.327 255.873 154.755 246.922 156.652C236.465 159.485 229.223 164.106 223.449 173.344C222.041 175.925 220.79 178.555 219.552 181.221C215.364 190.142 210.357 196.2 201.313 200.5C192.594 203.537 182.691 203.324 174.313 199.383C165.186 193.926 160.326 186.978 157 177C155.171 159.31 164.13 142.274 174.997 128.763C210.11 87.0299 272.554 77.9327 316 112.406ZM191.91 141.488C185.507 149.908 177.418 160.721 177.875 171.812C178.436 174.976 179.298 176.836 181.625 179.062C185.593 181.34 187.498 181.724 192 181C197.641 178.053 199.54 174.822 202 169.25C209.239 153.938 219.14 144.467 235 138C249.938 133.163 264.964 133.957 279.25 140.687C292.887 148.068 302.566 158.427 308 173C308.32 173.851 308.639 174.702 308.969 175.578C313.509 189.62 311.719 205.173 305.387 218.359C299.037 229.68 291.756 236.667 280.441 243.02C263.994 252.302 251.795 264.893 245.742 283.238C242.299 295.598 242.299 295.598 244.313 307.75C244.869 308.492 245.426 309.235 246 310C246.392 310.577 246.784 311.155 247.188 311.75C250.201 313.829 253.428 314.236 257 314C260.796 312.032 262.629 310.557 265 307C265.334 304.696 265.595 302.381 265.813 300.062C267.205 288.021 271.728 277.022 281.25 269.137C285.612 265.984 290.167 263.347 294.875 260.75C312.605 250.563 325.688 233.011 331.438 213.5C336.811 193.26 334.254 172.687 324.508 154.164C319.961 146.572 314.181 140.271 308 134C307.343 133.33 306.685 132.659 306.008 131.969C291.729 118.487 270.824 111.166 251.379 111.715C227.988 113.689 207.277 123.408 191.91 141.488Z"
            fill="#eed979" />
        <path
            d="M273.219 362.543C280.442 368.432 285.377 375.882 286.336 385.297C286.466 396.802 284.284 404.572 276.285 413.02C269.38 419.004 261.472 421.339 252.469 421.219C242.878 420.369 235.355 416.17 229 409C223.585 401.723 220.94 394.169 222 385C223.855 375.38 227.999 367.902 235.937 362.062C247.517 354.641 261.842 354.631 273.219 362.543ZM246 381C243.669 384.419 243 386.41 243 390.562C244.231 394.795 245.431 396.418 249 399C251.739 399.964 254.108 400.294 257 400C260.188 398.406 262.224 397.023 264.375 394.187C265.317 390.89 265.413 388.419 265 385C262.943 381.416 261.777 379.575 257.84 378.301C253.081 377.562 249.709 377.618 246 381Z"
            fill="#eed979" />
        <path
            d="M431.844 71.5662C435.03 72.207 436.803 73.6658 439 75.9998C440.743 79.4859 440.572 83.1962 440 86.9998C437.476 90.6706 435.83 91.7585 431.562 92.9998C427.382 92.9998 425.412 92.404 422 89.9998C419.596 86.5875 419 84.6179 419 80.4373C421.051 73.3878 424.815 71.1797 431.844 71.5662Z"
            fill="#eed979" />
    </g>
    <defs>
        <clipPath id="clip0_91_3">
            <rect width="512" height="512" fill="white" />
        </clipPath>
    </defs>
</svg>