<svg xmlns="http://www.w3.org/2000/svg" width="512" height="512" fill="none" viewBox="0 0 512 512">
  <path fill="#eed979"
    d="M412 299c2.38 1.848 4.56 3.806 6.746 5.879 2.194 2.065 4.453 3.942 6.816 5.809 4.382 3.467 8.729 6.973 13.063 10.5.683.555 1.365 1.11 2.069 1.682 1.403 1.141 2.806 2.283 4.209 3.424 3.365 2.737 6.731 5.471 10.097 8.206 1.333 1.083 2.667 2.167 4 3.25.66.536 1.32 1.073 2 1.625 3 2.438 3 2.438 6 4.875.661.537 1.322 1.074 2.003 1.627 1.324 1.076 2.648 2.153 3.971 3.23 3.469 2.825 6.95 5.635 10.448 8.424.724.581 1.449 1.162 2.195 1.76 1.382 1.107 2.767 2.21 4.156 3.309 6.71 5.391 11.249 10.875 12.551 19.564.339 6.603-1.37 13.359-5.715 18.473-5.225 4.579-10.727 6.862-17.609 7.363-1.673-.299-3.342-.626-5-1 .01 1.697.01 1.697.02 3.428.061 10.653.106 21.306.135 31.96.016 5.477.037 10.954.071 16.431.033 5.284.051 10.568.059 15.853.005 2.017.016 4.035.032 6.052.022 2.823.025 5.645.024 8.468.01.837.021 1.673.032 2.535-.018 3.324-.12 5.801-1.707 8.761-3.144 2.853-6.342 2.643-10.384 2.659-1.192.007-2.383.014-3.611.022-1.309.003-2.619.005-3.967.008-1.392.006-2.783.013-4.174.02-4.57.021-9.14.031-13.71.041-1.573.004-3.146.008-4.72.013-7.39.019-14.78.033-22.17.041-8.532.01-17.064.036-25.595.077-6.595.03-13.189.045-19.784.048-3.939.002-7.877.011-11.816.036-3.705.024-7.41.028-11.115.018-2.007-.001-4.013.018-6.02.038-1.197-.007-2.394-.014-3.628-.021-1.039.002-2.077.005-3.147.007-3.611-.633-5.282-1.889-7.825-4.495-.615-1.929-.615-1.929-.601-3.974-.011-1.169-.011-1.169-.021-2.362.018-.846.036-1.692.054-2.563 0-.898-.001-1.796-.002-2.721.004-2.966.043-5.93.082-8.896.009-2.057.016-4.114.021-6.17.019-5.413.068-10.824.124-16.236.051-5.524.074-11.047.099-16.57.053-10.836.139-21.672.244-32.508-.62.076-1.24.152-1.879.23-.812.095-1.624.191-2.461.29-.805.096-1.611.192-2.441.292-6.082.516-10.997-2.33-15.594-6.062-5.548-5.327-6.776-9.665-7.063-17.188.21-7.609 2.17-12.341 7.313-17.874 3.959-3.731 8.28-7.027 12.579-10.353 4.188-3.242 8.27-6.581 12.296-10.022 4.432-3.784 8.915-7.485 13.48-11.106 3.484-2.776 6.94-5.584 10.395-8.394.681-.554 1.362-1.107 2.063-1.677 3.484-2.832 6.965-5.669 10.441-8.511 3.945-3.223 7.903-6.43 11.871-9.625.616-.498 1.232-.995 1.867-1.508 1.745-1.403 3.499-2.793 5.258-4.179.993-.788 1.985-1.576 3.008-2.387 9.214-6.189 20.494-5.361 29.867.074m-32.33 23.623c-3.104 2.56-6.232 5.092-9.358 7.627-1.378 1.12-2.757 2.24-4.136 3.359-.692.562-1.383 1.123-2.095 1.702-3.361 2.729-6.721 5.459-10.081 8.189-1.333 1.083-2.667 2.167-4 3.25-.66.536-1.32 1.073-2 1.625l-6 4.875c-.661.537-1.322 1.074-2.003 1.627-1.324 1.076-2.648 2.152-3.973 3.228-3.471 2.82-6.941 5.64-10.411 8.461-.72.586-1.44 1.171-2.181 1.774-1.373 1.116-2.745 2.231-4.118 3.348-.623.506-1.246 1.013-1.888 1.535-.879.718-.879.718-1.775 1.451-1.487 1.194-3.012 2.34-4.542 3.478-2.432 1.802-2.432 1.802-3.171 5.348-.244 3.491-.244 3.491 1.624 5.938 3.177 2.036 4.699 2.019 8.438 1.562 2.412-1.526 4.41-2.983 6.562-4.812.605-.495 1.209-.989 1.832-1.498 1.882-1.547 3.746-3.115 5.606-4.69.867-.728.867-.728 1.751-1.472 2.752-2.312 5.492-4.636 8.226-6.969 3.476-2.942 7.018-5.788 10.585-8.618 2.539-2.022 5.053-4.071 7.563-6.128.911-.747 1.823-1.493 2.762-2.262 1.656-1.357 3.312-2.714 4.967-4.073 4.056-3.327 8.126-6.635 12.215-9.921 1.24-1 2.475-2.005 3.705-3.016 1.583-1.301 3.185-2.578 4.788-3.853.889-.719 1.777-1.437 2.692-2.176 3.545-1.952 5.752-2.026 9.746-1.512 2.484 1.434 2.484 1.434 4.75 3.438.859.737 1.717 1.474 2.602 2.234.874.768 1.748 1.536 2.648 2.328 1.703 1.402 3.411 2.798 5.125 4.188 1.365 1.119 1.365 1.119 2.758 2.261 3.696 3.029 7.407 6.039 11.117 9.051 4.61 3.743 9.217 7.489 13.812 11.25.865.708 1.73 1.415 2.622 2.145 1.745 1.431 3.487 2.866 5.226 4.304 5.583 4.603 11.24 9.08 17.013 13.439 2.13 1.618 4.164 3.191 6.015 5.128 1.381 1.542 1.381 1.542 4.312 1.609 2.949-.134 2.949-.134 4.812-1.625 1.4-2.062 2.041-3.245 2.188-5.75-4.434-8.509-13.12-13.939-20.555-19.715-4.148-3.232-8.196-6.558-12.195-9.972-4.432-3.784-8.915-7.485-13.48-11.106-3.484-2.776-6.94-5.584-10.395-8.394-.676-.549-1.353-1.098-2.05-1.664-3.567-2.897-7.124-5.806-10.665-8.735-.707-.582-1.415-1.165-2.144-1.765-1.345-1.107-2.687-2.219-4.024-3.335-13.431-11.031-18.339-7.028-30.822 3.309m9.83 30.877c-1.276 1.112-2.554 2.223-3.832 3.332-.941.817-.941.817-1.901 1.651-3.048 2.617-6.195 5.104-9.345 7.595-4.519 3.586-8.963 7.263-13.422 10.922-1.833 1.5-3.666 3-5.5 4.5-1.344 1.1-1.344 1.1-2.715 2.223-1.949 1.593-3.899 3.184-5.851 4.773-1.483 1.209-1.483 1.209-2.996 2.442-.899.73-1.797 1.461-2.723 2.214-2.237 1.81-2.237 1.81-4.215 3.848-.188 2.832-.252 5.565-.227 8.397 0 .868-.001 1.737-.001 2.631.001 2.879.017 5.757.033 8.636.003 1.993.006 3.985.008 5.978.008 5.251.028 10.501.05 15.752.02 5.356.029 10.711.039 16.067.022 10.513.057 21.026.098 31.539h28c.039-4.482.039-4.482.078-9.055.039-2.922.084-5.845.13-8.767.028-2.017.049-4.035.063-6.052.022-2.915.068-5.829.12-8.743.001-1.334.001-1.334.003-2.694.212-9.252 3.176-17.131 9.536-23.931 8.587-7.292 18.167-8.598 29.07-7.758 3.621.898 6.729 2.221 10 4 .646.339 1.292.678 1.957 1.027C423.001 428.34 426.87 436.243 429 444c.321 3.256.372 6.503.414 9.773.019.924.039 1.848.059 2.8.059 2.934.106 5.868.152 8.802q.057 2.994.117 5.988c.098 4.879.177 9.758.258 14.637h28c.317-11.397.574-22.791.725-34.191.073-5.294.172-10.586.331-15.879.153-5.116.236-10.229.272-15.347.026-1.945.076-3.889.152-5.832.665-11.586.665-11.586-4.442-21.502-2.858-2.649-5.917-4.883-9.178-7.008-3.119-2.081-5.999-4.461-8.922-6.803-1.167-.91-2.335-1.817-3.504-2.723-3.387-2.653-6.668-5.417-9.934-8.215-5.677-4.861-11.508-9.501-17.406-14.09-1.983-1.544-3.944-3.118-5.875-4.726-4.651-3.529-7.082.6-10.719 3.816m-6.301 88.781c-2.893 4.147-2.326 8.715-2.297 13.543.002.862.003 1.723.005 2.611.005 2.751.018 5.501.031 8.253.005 1.865.009 3.73.013 5.595.01 4.573.03 9.145.049 13.717h33c.092-5.266.172-10.53.22-15.796.02-1.788.047-3.577.082-5.365.049-2.582.071-5.163.089-7.745.02-.79.041-1.58.062-2.394.002-5.687-1.303-9.937-4.453-14.7-3.872-3.773-7.555-5.74-12.938-6.312-6.447.657-9.88 3.826-13.863 8.593M39.467 241.353c1.2062-.009 2.4124-.018 3.6552-.027 3.2791-.018 6.5573-.014 9.8365.002 3.4484.013 6.8968.001 10.3452-.007 5.7874-.009 11.5745.003 17.3618.027 6.6714.027 13.3419.018 20.0133-.009 5.751-.023 11.501-.026 17.252-.013 3.424.008 6.849.009 10.274-.008 3.819-.012 7.638.007 11.457.035 1.121-.01 2.242-.02 3.397-.031 7.815.105 13.567 1.804 19.49 7.05 5.904 6.414 6.897 13.789 6.839 22.078.008 1.38.008 1.38.016 2.788.014 3.066.007 6.131 0 9.197q.009 3.3075.021 6.615c.018 5.977.017 11.954.011 17.932-.003 4.992.003 9.985.009 14.978.015 12.451.011 24.902-.001 37.353-.01 10.803.003 21.606.027 32.409.024 11.106.034 22.212.027 33.318-.003 6.23-.001 12.46.017 18.69.015 5.857.011 11.714-.008 17.571-.003 2.148 0 4.296.01 6.443.013 2.936.002 5.87-.016 8.806.015 1.27.015 1.27.029 2.566-.082 6.626-1.959 11.7-6.135 16.872-7.953 6.656-16.177 7.458-26.274 7.416-1.155.007-2.311.014-3.502.021-3.799.018-7.597.014-11.396.009-1.983.003-3.965.006-5.947.011-6.225.014-12.45.012-18.6752.001-6.3979-.012-12.7955.003-19.1934.029-5.5162.023-11.0323.029-16.5486.023-3.2845-.003-6.5686.001-9.8531.017-3.6662.014-7.3315.004-10.9977-.013-1.072.009-2.144.019-3.2484.029-7.8417-.076-14.8452-1.501-21.162-6.39-.7599-.936-.7599-.936-1.5351-1.891-.787-.92-.787-.92-1.5899-1.859-3.98217-6.465-4.91337-12.263-4.85358-19.683-.00702-1.354-.00702-1.354-.01418-2.736-.01191-3.008-.00251-6.016.00695-9.025-.00407-2.163-.00941-4.327-.01593-6.491-.01366-5.866-.00838-11.731.00114-17.597.0076-6.145.00055-12.289-.00416-18.433-.00546-10.319.00173-20.638.01602-30.957.01632-11.92.01104-23.841-.00548-35.762-.01362-10.243-.01553-20.486-.00768-30.729.00467-6.115.00531-12.229-.00461-18.343-.00868-5.749-.00263-11.499.01468-17.249.00396-2.107.00284-4.214-.00379-6.321-.00823-2.882.00213-5.764.01704-8.647-.01004-1.242-.01003-1.242-.02028-2.509.07374-7.378 1.57806-15.005 6.78616-20.573 7.3335-6.067 14.8556-7.067 24.0821-6.983M26 262c-.4985 3.117-.6721 5.688-.6282 8.806-.0071.899-.0142 1.798-.0215 2.724-.0176 3.019.0005 6.037.0186 9.056-.0052 2.161-.0124 4.323-.0217 6.485-.0186 5.876-.0056 11.751.0141 17.627.0163 6.143.0076 12.286.0025 18.428-.0046 10.317.0113 20.633.0392 30.95.0321 11.936.0321 23.871.0148 35.807-.0158 11.471-.0091 22.942.008 34.413.0069 4.887.0058 9.773-.0016 14.66-.0076 5.752.0044 11.504.0319 17.256.0069 2.114.0069 4.228-.0002 6.342-.0087 2.881.0072 5.76.0294 8.64-.0082.841-.0165 1.683-.025 2.55.0508 3.545.2359 5.811 2.2611 8.775 2.6662 1.733 4.0882 1.983 7.2504 1.989 1.001.011 2.002.022 3.0333.034 1.0921-.008 2.1842-.016 3.3093-.024 1.7323.01 1.7323.01 3.4995.021 3.8227.017 7.6446.006 11.4673-.008 2.6527.003 5.3054.007 7.9582.012 5.5617.007 11.1232-.003 16.6849-.022 6.4281-.021 12.8557-.014 19.2837.008 5.521.018 11.042.02 16.563.01 3.297-.006 6.593-.006 9.89.006 3.675.01 7.349-.005 11.025-.027 1.092.008 2.184.016 3.309.024 1.001-.011 2.002-.023 3.033-.034.869-.002 1.738-.003 2.632-.005 3.336-.717 4.408-1.683 6.34-4.503.391-3.018.536-5.669.501-8.686.006-.886.011-1.772.017-2.685.014-2.975-.001-5.949-.016-8.924.003-2.13.009-4.261.016-6.391.014-5.791.003-11.582-.014-17.374-.013-6.055-.007-12.111-.004-18.166.003-10.171-.01-20.342-.033-30.514-.027-11.764-.029-23.528-.017-35.292.011-11.308.005-22.617-.01-33.926-.005-4.816-.005-9.632-.001-14.448.005-5.671-.005-11.342-.027-17.013-.005-2.083-.006-4.165-.001-6.248.006-2.841-.006-5.68-.023-8.521.006-.827.012-1.654.018-2.506-.051-4.586-.427-7.59-3.406-11.306-3.209-2.139-4.042-2.253-7.731-2.268-.973-.008-1.946-.017-2.948-.025-1.066.001-2.132.001-3.231.002-1.124-.006-2.247-.013-3.405-.02-3.726-.019-7.451-.023-11.177-.025-2.585-.006-5.169-.013-7.754-.02-5.422-.012-10.844-.016-16.2662-.015-6.2639.002-12.5274-.02-18.7912-.051-6.0287-.029-12.0572-.037-18.0859-.035-2.5637-.003-5.1274-.012-7.691-.027-3.5841-.02-7.1672-.014-10.7513-.002-1.593-.017-1.593-.017-3.2181-.034-.9786.008-1.9572.017-2.9654.025-.847-.001-1.6939-.002-2.5665-.003-3.5154.724-5.0348 1.802-7.4184 4.498M360.484 9.72531c1.137-.00511 2.275-.01022 3.447-.01549 3.749-.01386 7.499-.01294 11.249-.01063 2.614-.00389 5.228-.00823 7.842-.01299 5.475-.0082 10.951-.00731 16.427-.0019 6.311.00603 12.623-.00627 18.934-.02757 6.093-.0198 12.185-.02279 18.278-.01927 2.583-.00051 5.166-.00573 7.748-.01581 3.616-.01238 7.232-.00557 10.848.00601 1.06-.00765 2.12-.01529 3.213-.02317 7.604.0536 15.517.89101 21.405 6.20801.534.4602 1.067.9204 1.617 1.3945 4.532 5.3885 4.934 10.2943 4.849 17.0112 0 .908 0 1.8159.001 2.7514-.002 2.9869-.025 5.9733-.049 8.9601-.006 2.0765-.01 4.153-.013 6.2295-.011 5.4548-.041 10.9093-.074 16.364-.031 5.5704-.044 11.1407-.06 16.7111-.032 10.922-.083 21.8437-.146 32.7657.82-.035 1.64-.07 2.484-.105 1.078-.028 2.156-.055 3.266-.083 1.601-.052 1.601-.052 3.234-.105 3.366.327 4.666.902 7.016 3.293 1.416 5.234.852 8.541-1.203 13.484-.486 1.182-.972 2.364-1.473 3.582-.258.605-.517 1.21-.783 1.833-.792 1.853-1.557 3.716-2.318 5.581-4.251 10.188-4.251 10.188-7.223 12.52-3.287 1.096-5.712 1.131-9.174 1.14-1.939.009-1.939.009-3.917.018l-4.307.003c-1.51.005-3.019.01-4.529.015-4.103.013-8.206.02-12.31.024q-3.8445.0045-7.689.012c-8.018.013-16.036.023-24.054.027-9.259.004-18.517.022-27.775.051q-10.7325.0315-21.465.033c-4.275.001-8.549.007-12.823.025-4.02.016-8.04.018-12.061.01-1.475-.001-2.95.003-4.425.013-2.014.013-4.029.005-6.043-.004-1.128.002-2.255.003-3.416.005-3.404-.42-5.271-1.342-8.012-3.372-1.454-2.309-1.454-2.309-2.605-5.008-.427-.987-.853-1.975-1.291-2.992-.427-1.031-.853-2.063-1.292-3.125-.437-1.008-.875-2.016-1.326-3.055-2.496-5.883-4.49-11.495-5.486-17.82 1.291-3.099 2.001-4.5 5-6 1.874-.07 3.75-.084 5.625-.063 1.504.014 1.504.014 3.039.028.771.011 1.542.023 2.336.035-.009-1.15-.018-2.299-.027-3.484-.081-10.843-.141-21.6866-.18-32.5304-.021-5.5747-.049-11.1491-.095-16.7237-.043-5.3816-.067-10.763-.078-16.1449-.007-2.0512-.021-4.1025-.043-6.1537-.029-2.8775-.033-5.754-.031-8.6315-.022-1.2667-.022-1.2667-.044-2.559.046-6.5755 1.797-10.6694 6.174-15.6986.54-.4576 1.08-.9152 1.636-1.3867.533-.4705 1.065-.941 1.614-1.4258 6.375-3.8782 13.338-3.5532 20.558-3.53639M347 29c-.209 2.6888-.294 5.2755-.291 7.9663-.006.8229-.013 1.6458-.02 2.4937-.019 2.7295-.023 5.4588-.025 8.1884-.006 1.8933-.013 3.7866-.02 5.6798-.012 3.973-.016 7.9459-.015 11.9188.001 5.0937-.027 10.1867-.061 15.2802-.022 3.9119-.026 7.8237-.025 11.7357-.003 1.8779-.012 3.7558-.027 5.6336-.02 2.6265-.014 5.2515-.002 7.8785-.011.777-.022 1.554-.034 2.355.037 3.194.335 5.528 1.866 8.352 4.333 2.479 8.697 2.073 13.601 2.036 1.116.007 2.232.014 3.382.021 3.692.017 7.384.006 11.077-.008q3.8445.0045 7.689.012c5.374.006 10.747-.002 16.12-.022 6.21-.021 12.42-.014 18.63.008 5.977.02 11.953.018 17.93.006 2.542-.002 5.085.001 7.627.01 3.55.01 7.1-.005 10.651-.027 1.582.012 1.582.012 3.196.024 5.452-.041 5.452-.041 10.404-2.067 1.903-3.496 1.898-6.712 1.849-10.592.005-.816.011-1.631.016-2.47.013-2.692-.004-5.3819-.022-8.0732 0-1.8704.002-3.7408.005-5.6112.001-3.9182-.012-7.8361-.034-11.7543-.029-5.0263-.026-10.0521-.013-15.0785.007-3.8613-.001-7.7224-.014-11.5837-.004-1.8536-.004-3.7072-.001-5.5607.003-2.5881-.013-5.1754-.035-7.7634.005-.7684.009-1.5368.014-2.3285.005-3.9166.005-3.9166-1.641-7.3563-2.328-1.7074-3.729-1.678-6.604-1.6775-.994-.007-1.988-.014-3.012-.0212-1.635.0115-1.635.0115-3.302.0232-1.148-.0037-2.296-.0073-3.479-.0111-3.805-.0081-7.61.0055-11.415.0201-2.637.0005-5.273 0-7.91-.0015-5.529-.0009-11.058.0102-16.586.0286-6.397.0212-12.794.0247-19.191.0184-6.149-.0057-12.298.0001-18.448.0112-2.619.0039-5.238.005-7.857.0034-3.654-.0004-7.308.0122-10.962.0285-1.637-.0037-1.637-.0037-3.307-.0075-1.487.0106-1.487.0106-3.004.0215-.864.002-1.729.0041-2.619.0062-2.302.0647-2.302.0647-4.081 2.2545m-11 105 3 8h140c3.149-5.18 3.149-5.18 3-8zM157 20.0001c3.612 2.7626 6.837 5.7375 10 9 .572.5633 1.145 1.1266 1.734 1.707 10.397 11.0129 13.821 25.8069 13.453 40.4805-.013 1.0474-.027 2.0947-.041 3.1738-.034 2.5468-.083 5.0925-.146 7.6387.792-.0262 1.583-.0524 2.399-.0794 3.596-.104 7.192-.169 10.788-.2331 1.246-.0419 2.492-.0838 3.776-.127 10.306-.1381 10.306-.1381 13.4 2.834C214 87.0001 214 87.0001 214 89.0001c1.411-.0522 1.411-.0522 2.852-.1055 1.867-.0406 1.867-.0406 3.773-.082 1.23-.0348 2.46-.0696 3.727-.1055 3.974.3192 6.282 1.196 9.648 3.293 5.773 7.3337 5.186 14.2179 5.185 23.1619.002 2.133.021 4.266.04 6.399.003 1.371.004 2.743.005 4.115.005 1.236.009 2.473.013 3.747-.345 5.073-1.122 10.319-4.868 14.015-5.561 4.489-13.669 2.997-20.375 2.562-.34 1.145-.34 1.145-.688 2.313-1.658 3.396-2.903 4.092-6.312 5.687-2.654.287-5.065.422-7.715.399-1.1.004-1.1.004-2.222.008-1.546.002-3.091-.003-4.637-.016-2.353-.016-4.704 0-7.057.019-1.507-.002-3.014-.006-4.521-.011-.697.006-1.394.012-2.113.018-4.621-.066-7.812-.977-11.735-3.417-1.566-3.133-1.144-6.476-1.142-9.915-.003-.818-.007-1.637-.01-2.48-.008-1.782-.013-3.564-.017-5.346-.007-2.831-.023-5.661-.041-8.492-.052-8.051-.1-16.102-.116-24.153-.01-4.9237-.04-9.8471-.081-14.7707-.012-1.8677-.018-3.7353-.015-5.603.013-15.0677-1.037-28.4315-11.578-40.2402-9.956-9.4642-20.459-12.5227-33.883-12.2774-10.808.4981-20.4764 6.225-27.867 13.9024-6.8385 8.238-9.3989 18.1912-9.3919 28.6443-.0052 1.247-.0052 1.247-.0105 2.5192-.0073 1.8028-.0127 3.6056-.0163 5.4084-.0072 2.854-.0228 5.7078-.0413 8.5618-.0525 8.1135-.1005 16.2272-.116 24.3402-.01 4.965-.0394 9.93-.0813 14.895-.0123 1.891-.0174 3.782-.0152 5.673.0024 2.645-.0198 5.289-.0475 7.934.0099 1.17.0099 1.17.02 2.364-.0633 3.678-.4335 5.848-2.3957 8.998-3.7357 3.533-7.5957 3.21-12.4551 3.24-.714.006-1.428.012-2.1636.017-1.5105.01-3.021.016-4.5315.02-2.298.01-4.595.041-6.8928.073q-2.20605.009-4.4121.015c-1.0222.019-1.0222.019-2.065.038C43.043 154.344 39.87 153.478 36 151c-.875-2.687-.875-2.687-1-5-1.0854.046-2.1708.093-3.2891.141-1.4453.037-2.8906.074-4.3359.109-.7129.034-1.4257.067-2.1602.102-5.188.095-8.2327-.732-12.2148-4.352-2.616-5.034-3.44885-9.187-3.39847-14.875-.00287-.728-.00574-1.456-.0087-2.206-.00202-1.53.00342-3.059.01603-4.589.01607-2.324.00011-4.646-.01905-6.971.00199-1.494.00583-2.989.01172-4.484-.00607-.686-.01214-1.371-.0184-2.078.07234-5.03 1.14407-8.3997 3.41687-12.7969 4.9204-4.6745 8.545-5.1234 15.1875-5.0625 1.9084.0135 1.9084.0135 3.8554.0273.9759.0116 1.9517.0232 2.9571.0352.2681-.7838.5362-1.5675.8125-2.375C37 84.0001 37 84.0001 40 82.0001c2.7273-.2271 2.7273-.2271 5.9804-.1953 1.7451.0096 1.7451.0096 3.5254.0195 1.215.0168 2.4299.0335 3.6817.0508 1.2265.009 2.4531.018 3.7168.0273 3.0321.0236 6.0638.0566 9.0957.0977-.021-.659-.0419-1.3179-.0635-1.9968-.68-24.647-.68-24.647 4.0635-35.0032.4357-.9578.8714-1.9156 1.3203-2.9024C78.4314 27.9338 90.1311 18.3062 105 13.0001c18.607-5.23507 35.358-3.31136 52 7m-106 78V137h15V98.0001zm131 0V137h16V98.0001zM27 105v25h8v-25zm187 0v25h8v-25zM376.748 181.86c.926-.006 1.853-.012 2.807-.018 1.004-.001 2.009-.002 3.043-.003 1.068-.005 2.135-.01 3.235-.015 3.528-.015 7.056-.022 10.585-.027 2.457-.006 4.915-.012 7.373-.017 5.153-.011 10.307-.017 15.461-.02 6.59-.006 13.179-.03 19.768-.058 5.078-.019 10.156-.024 15.234-.025 2.428-.003 4.856-.011 7.285-.025 3.405-.017 6.81-.015 10.216-.008.994-.01 1.988-.019 3.012-.028 9.21.054 17.047 1.449 23.76 8.079 4.786 7.49 4.917 15.469 4.871 24.118.005 1.813.005 1.813.009 3.663.002 2.545-.003 5.09-.016 7.634-.016 3.878 0 7.755.019 11.632q-.003 3.723-.012 7.446c.006 1.15.013 2.3.019 3.485-.069 7.914-.589 14.992-5.855 21.202-4.881 4.048-7.933 6.24-14.425 6.272-1.002.007-2.004.015-3.037.022-1.099.003-2.197.005-3.329.008-1.158.007-2.316.013-3.509.02-3.842.02-7.683.031-11.524.041-1.311.004-2.622.009-3.973.013-6.225.019-12.449.033-18.674.041-7.174.01-14.347.036-21.521.077-5.552.03-11.104.045-16.655.048-3.313.002-6.625.013-9.937.037-3.701.024-7.401.023-11.102.016-1.088.013-2.177.026-3.299.039-8.071-.055-13.501-1.57-19.39-7.196-5.211-7.892-5.635-15.636-5.585-24.907-.003-1.186-.006-2.373-.009-3.596-.002-2.497.003-4.995.016-7.493.016-3.805 0-7.609-.019-11.415q.003-3.654.012-7.308c-.007-1.129-.013-2.257-.019-3.419.069-7.841.863-15.097 5.667-21.55 5.469-5.221 12.122-6.738 19.498-6.765M390 199c2.841 2.841 5.357 4.579 8.77 6.652.837.513.837.513 1.692 1.035 1.781 1.088 3.566 2.169 5.35 3.251 1.774 1.078 3.547 2.158 5.319 3.239 1.615.985 3.232 1.967 4.849 2.948C419 218 419 218 422.073 220.299c2.738 1.941 2.738 1.941 5.529 1.601 2.442-.917 4.541-1.949 6.769-3.306.816-.493 1.631-.985 2.472-1.493.856-.528 1.712-1.057 2.594-1.601.881-.537 1.762-1.073 2.669-1.626 5.41-3.309 10.795-6.657 16.144-10.061.59-.374 1.179-.748 1.787-1.133 1.34-.865 2.655-1.768 3.963-2.68v-1zm-21 7c-.076 7.066-.129 14.132-.165 21.198-.015 2.404-.035 4.809-.061 7.213-.037 3.453-.054 6.906-.067 10.359-.015 1.078-.031 2.156-.047 3.267 0 1.001 0 2.002-.001 3.033-.006.881-.013 1.763-.02 2.671.449 2.812 1.141 3.52 3.361 5.259 2.163.447 2.163.447 4.599.374 1.416.011 1.416.011 2.86.022 1.55-.012 1.55-.012 3.131-.024 1.634.006 1.634.006 3.302.011 3.61.009 7.22-.005 10.831-.02 2.502 0 5.004 0 7.506.002 5.246 0 10.493-.01 15.739-.029 6.07-.021 12.139-.024 18.208-.018 5.836.006 11.671 0 17.507-.011 2.485-.004 4.97-.005 7.455-.004 3.467.001 6.934-.012 10.401-.028 1.036.002 2.071.005 3.138.007 1.411-.01 1.411-.01 2.851-.021.82-.002 1.64-.004 2.485-.006 2.218-.079 2.218-.079 3.987-2.255.292-2.264.292-2.264.227-4.909v-3.093c-.011-1.105-.021-2.211-.032-3.349-.003-1.13-.005-2.259-.008-3.422-.012-3.618-.037-7.235-.062-10.852q-.015-3.672-.027-7.344c-.022-6.01-.056-12.021-.098-18.031-3.178 1.244-6.035 2.515-8.906 4.363-.734.469-1.467.937-2.223 1.42-.782.504-1.565 1.009-2.371 1.53-1.699 1.084-3.398 2.167-5.098 3.25-.883.563-1.766 1.126-2.676 1.707-7.1 4.507-14.26 8.917-21.429 13.312-2.038 1.258-4.06 2.538-6.078 3.828-1.042.649-2.083 1.297-3.157 1.965-.854.544-1.709 1.088-2.589 1.649-3.407 1.345-4.956 1.052-8.473-.024-3.177-1.592-6.174-3.433-9.188-5.312-.873-.535-1.747-1.07-2.647-1.621-2.729-1.677-5.448-3.369-8.165-5.067-.845-.527-1.69-1.054-2.56-1.597-6.935-4.334-13.838-8.717-20.706-13.157-.982-.635-.982-.635-1.985-1.282-1.218-.789-2.435-1.581-3.651-2.375-2.364-1.816-2.364-1.816-5.098-2.589M331.384 204.043c10.106 8.405 10.106 8.405 11.241 14.082-.812 3.735-1.697 5.386-4.625 7.875-3.388.678-4.812.908-8 0-2.147-1.445-3.9-3.081-5.766-4.875-19.747-18.78-46.377-26.932-73.207-26.371-23.556.898-46.993 10.616-63.914 27.082-2.998 2.87-5.059 4.563-9.301 4.852C174 226 174 226 171.5 223.875c-1.844-3.534-2.347-4.949-1.5-8.875 11.497-18.612 38.533-29.826 58.821-34.835 36.286-8.072 73.762.666 102.563 23.878" />
  <path fill="#eed979"
    d="M311 226c9.599 7.729 9.599 7.729 10.824 11.613.225 3.055-.346 4.712-1.824 7.387-1.688 1.875-1.688 1.875-4 3-5.423-.287-8.104-1.405-12.062-5.063C287.905 229.164 269.05 223.412 248 225c-14.937 1.914-29.347 8.443-39.984 19.117-1.974 1.843-3.496 2.942-6.016 3.883-6.116-.322-6.116-.322-8.676-2.285-2.105-2.727-1.986-5.024-1.855-8.379 1.006-4.427 4.063-6.646 7.531-9.336.703-.563 1.405-1.127 2.129-1.707 32.562-24.408 77.5-25.444 109.871-.293M272.719 271.887c7.385 6.223 10.904 12.016 12.218 21.55.474 8.056-1.812 15.299-6.937 21.563-6.174 6.267-12.632 9.368-21.453 9.996-8.358.013-15.22-2.894-21.274-8.633-6.187-6.782-8.486-14.249-8.273-23.363 1.665-9.578 6.234-16.294 14-22 9.972-5.784 22.136-5.764 31.719.887m-28.094 17.863c-1.29 4.643-1.29 8.676.562 13.062 2.534 3.058 4.716 4.877 8.739 5.473 4.49.195 7.511-.333 11.074-3.285 2.867-3.461 3.534-6.502 3.355-11.004-.72-4.047-2.931-6.877-6.105-9.371-7.179-1.994-12.868-.929-17.625 5.125" />
  <path fill="#eed979"
    d="M296.504 254.484c2.111 2.139 2.473 3.311 2.808 6.329-.398 4.067-1.198 5.54-4.312 8.187-4.336.882-6.498.965-10.238-1.437-1.53-1.227-3.042-2.476-4.535-3.746-9.321-7.604-20.572-8.761-32.227-7.817-7.942 1.625-13.883 4.787-20 10-3.484 2.924-5.607 3.598-10.094 3.414C216 269 216 269 213.5 266.875c-1.816-3.481-2.274-5.007-1.5-8.875 4.919-9.108 16.422-14.424 25.812-17.437 21.565-5.809 42.083-.916 58.692 13.921M89.375 265.75c.8508-.021 1.7016-.041 2.5782-.063 4.8676-.03 8.0718.177 12.0468 3.313 1.579 1.579 1.208 3.194 1.25 5.375.026.791.052 1.583.078 2.398-.406 2.754-1.139 3.56-3.328 5.227-4.1414 1.38-8.037 1.224-12.375 1.25-.8508.021-1.7015.041-2.5781.062-4.8303.031-8.1505-.114-12.0469-3.312-1.5284-3.057-1.2324-5.63-1-9 3.4122-6.174 9.1168-5.212 15.375-5.25M83.2812 460.469c1.0068-.005 2.0136-.011 3.0508-.016 1.5682.023 1.5682.023 3.168.047 1.0454-.015 2.0909-.031 3.168-.047 1.0067.005 2.0135.01 3.0508.016 1.3757.007 1.3757.007 2.7792.013 3.238.67 4.443 1.988 6.502 4.518.531 2 .531 2 .5 4 .01.66.021 1.32.031 2-.773 2.911-2.235 4.092-4.531 6-2.502.518-2.502.518-5.2812.531-1.0068.005-2.0136.011-3.0508.016-1.5682-.023-1.5682-.023-3.168-.047-1.0454.015-2.0909.031-3.168.047-1.0067-.005-2.0135-.01-3.0508-.016-.9171-.004-1.8343-.009-2.7792-.013-3.2376-.67-4.4425-1.988-6.502-4.518-.5312-2-.5312-2-.5-4-.0155-.99-.0155-.99-.0312-2 1.3449-5.063 4.9596-6.507 9.8124-6.531" />
</svg>